<?xml version="1.0" encoding="utf-8"?>
<!-- Generator: Adobe Illustrator 26.5.0, SVG Export Plug-In . SVG Version: 6.00 Build 0)  -->
<svg version="1.1" xmlns="http://www.w3.org/2000/svg" xmlns:xlink="http://www.w3.org/1999/xlink" x="0px" y="0px"
	 viewBox="0 0 280 200" style="enable-background:new 0 0 280 200;" xml:space="preserve">
<style type="text/css">
	.st0{display:none;}
	.st1{display:inline;}
	.st2{display:inline;fill:#94CC33;}
	.st3{display:inline;fill:#3AAA35;}
	.st4{display:inline;fill:#C6C6C6;}
	.st5{display:inline;fill:#F6F6F6;}
	.st6{display:inline;fill:#231F20;}
	.st7{display:inline;fill:#020303;}
	.st8{display:inline;fill:#A9A09D;}
	.st9{display:inline;fill:#282729;}
	.st10{display:inline;fill:#595558;}
	.st11{display:inline;fill:#E1DCD7;}
	.st12{fill:#706D6E;}
	.st13{fill:#F1511B;}
	.st14{fill:#80CC28;}
	.st15{fill:#00ADEF;}
	.st16{fill:#FBBC09;}
	.st17{display:inline;fill:#646464;}
	.st18{display:inline;fill:url(#SVGID_1_);}
	.st19{display:inline;fill:url(#SVGID_00000090982828468451237410000003611007811932624015_);}
	
		.st20{display:inline;opacity:0.444;fill:url(#SVGID_00000105391419969322213290000008088018016557695628_);enable-background:new    ;}
	.st21{display:inline;fill:#0F0F0F;}
	.st22{fill:#EE4C2C;}
	.st23{fill:url(#SVGID_00000134251500174426842240000010855209882250971020_);}
	.st24{fill:url(#SVGID_00000109727461796573633910000013846234507399513505_);}
	.st25{fill:#7CC040;}
	.st26{fill:#016123;}
	.st27{display:inline;fill:#E55B2D;}
	.st28{display:inline;fill:#ED8E24;}
	.st29{display:inline;fill:#F8BF3C;}
	.st30{fill:#1F4899;}
	.st31{fill:url(#SVGID_00000061432297747276580570000006728529865729927818_);}
	.st32{display:inline;fill:#00467F;}
	.st33{display:inline;fill:#FFFFFF;}
	.st34{display:inline;fill:none;}
	.st35{fill:#F26207;}
</style>
<g id="Layer_1" class="st0">
	<g id="Layer_1_00000062181511644363635890000003577991169041870769_">
		<path class="st1" d="M185.6,28.3h-19.3v-18h-53.2v18H93.8v50.3h-8.6v14.2c0,27.9,22.7,50.5,50.6,50.5h7.8
			c27.9,0,50.5-22.6,50.6-50.5V78.6h-8.6V28.3z M180.7,33.2v52.3h-14.4V33.2H180.7z M161.4,15.2v80c-5.5-1.6-11.2-2.4-17-2.4H135
			c-5.8,0-11.5,0.8-17,2.4v-80C118,15.2,161.4,15.2,161.4,15.2z M98.7,33.2h14.4v52.3H98.7V33.2z M189.3,83.5v9.3
			c0,25.2-20.5,45.6-45.7,45.7h-7.8c-25.2,0-45.7-20.4-45.7-45.7v-9.3h3.7v6.9h19.3v6.5c-4.5,1.7-8.8,4-12.8,6.8l2.8,4
			c9.3-6.5,20.5-10,31.9-10h9.5c11.4,0,22.5,3.5,31.9,10l2.8-4c-4-2.8-8.3-5.1-12.8-6.8v-6.5h19.3v-6.9H189.3z"/>
		<rect x="126.3" y="40.7" class="st1" width="7.3" height="13.3"/>
		<rect x="145.8" y="40.7" class="st1" width="7.3" height="13.3"/>
		<rect x="126.3" y="66.3" class="st1" width="7.3" height="13.3"/>
		<rect x="145.8" y="66.3" class="st1" width="7.3" height="13.3"/>
		<path class="st2" d="M185.6,90.3h-19.3v6.5c4.5,1.7,8.8,4,12.8,6.8l-2.8,4c-9.3-6.5-20.5-10-31.9-10H135c-11.4,0-22.5,3.5-31.9,10
			l-2.8-4c4-2.8,8.3-5.1,12.8-6.8v-6.5H93.8v-6.9h-3.7v9.3c0,25.2,20.5,45.6,45.7,45.7h7.8c25.2,0,45.7-20.4,45.7-45.7v-9.3h-3.7
			V90.3z"/>
		<path class="st3" d="M143.6,134.6h-7.8c-25.2,0-45.7-20.5-45.7-45.7v3.9c0,25.2,20.5,45.6,45.7,45.7h7.8
			c25.2,0,45.7-20.4,45.7-45.7v-3.9C189.3,114.2,168.8,134.6,143.6,134.6z"/>
		<rect x="98.7" y="33.2" class="st4" width="14.4" height="52.3"/>
		<rect x="166.3" y="33.2" class="st4" width="14.4" height="52.3"/>
		<path class="st5" d="M144.4,92.8c5.8,0,11.5,0.8,17,2.4v-80H118v80c5.5-1.6,11.2-2.4,17-2.4H144.4z M145.8,40.7h7.3V54h-7.3V40.7z
			 M145.8,66.3h7.3v13.3h-7.3V66.3z M133.7,79.6h-7.3V66.3h7.3V79.6z M133.7,54h-7.3V40.7h7.3V54z"/>
		<path class="st1" d="M203.6,66.8v28.7c0,30.9-25.1,56-56,56h-15.8c-30.9,0-56-25.1-56-56V66.8h-4.9v28.7
			c0.1,33.6,27.3,60.8,60.9,60.8h15.7c33.6-0.1,60.8-27.3,60.9-60.8V66.8H203.6z"/>
		<path class="st1" d="M74.1,29.4c0,0-16.1,18.4-13.8,34.8c2.1,15.2,25.5,15.2,27.6,0C90.2,47.9,74.1,29.4,74.1,29.4z"/>
		<path class="st2" d="M74.1,73.1c-5,0-10.3-2.8-11.2-9.2C61.2,52.2,70,39,74.1,33.6C78.2,39,87,52.2,85.3,63.8
			C84.4,70.2,79,73.1,74.1,73.1z"/>
		<path class="st3" d="M85.3,61.2c-0.9,6.3-6.3,9.2-11.2,9.2s-10.3-2.8-11.2-9.2c-0.1-0.6-0.1-1.2-0.2-1.8c-0.1,1.5,0,3,0.2,4.5
			c0.9,6.3,6.3,9.2,11.2,9.2s10.3-2.8,11.2-9.2c0.2-1.5,0.3-3,0.2-4.5C85.4,60,85.4,60.6,85.3,61.2z"/>
		<path class="st1" d="M206,29.4c0,0-16.1,18.4-13.8,34.8c2.1,15.2,25.5,15.2,27.6,0C222.1,47.9,206,29.4,206,29.4z"/>
		<path class="st2" d="M205.9,73.1c-4.9,0-10.3-2.8-11.2-9.2c-1.6-11.6,7.2-24.9,11.2-30.2c4.1,5.4,12.9,18.6,11.2,30.2
			C216.3,70.2,210.9,73.1,205.9,73.1z"/>
		<path class="st3" d="M217.2,61.2c-0.9,6.3-6.3,9.2-11.2,9.2s-10.3-2.8-11.2-9.2c-0.1-0.6-0.1-1.2-0.1-1.8c-0.1,1.5-0.1,3,0.1,4.5
			c0.9,6.4,6.3,9.2,11.2,9.2s10.4-2.8,11.2-9.2c0.2-1.5,0.3-3,0.1-4.5C217.3,60,217.3,60.6,217.2,61.2z"/>
		<path class="st6" d="M81,175.9v2h-6v3.8h4.8v1.9H75v3.9h6v2h-8.5v-13.6L81,175.9z"/>
		<path class="st6" d="M99.8,186.3c0.1,0,0.3,0.1,0.4,0.2l1,1.1c-0.5,0.7-1.2,1.2-2,1.6c-0.9,0.4-1.9,0.6-2.9,0.6
			c-0.9,0-1.9-0.2-2.7-0.5c-0.8-0.3-1.5-0.8-2.1-1.4c-0.6-0.6-1-1.4-1.3-2.2c-0.3-0.9-0.5-1.8-0.5-2.8s0.2-1.9,0.5-2.8
			c0.3-0.8,0.8-1.6,1.4-2.2c0.6-0.6,1.3-1.1,2.1-1.4c1.7-0.7,3.6-0.7,5.4,0c0.7,0.3,1.4,0.7,2,1.3l-0.8,1.2
			c-0.1,0.1-0.1,0.1-0.2,0.2c-0.1,0.1-0.2,0.1-0.3,0.1c-0.1,0-0.2,0-0.3-0.1l-0.3-0.2c-0.1-0.1-0.2-0.2-0.4-0.3
			c-0.2-0.1-0.4-0.2-0.6-0.3s-0.5-0.1-0.7-0.2c-0.3-0.1-0.7-0.1-1-0.1c-0.6,0-1.1,0.1-1.7,0.3c-0.5,0.2-0.9,0.5-1.3,0.9
			s-0.7,0.9-0.8,1.5c-0.2,0.6-0.3,1.3-0.3,2s0.1,1.4,0.3,2c0.2,0.6,0.5,1.1,0.9,1.5s0.8,0.7,1.3,0.9s1.1,0.3,1.6,0.3
			c0.3,0,0.6,0,0.9-0.1c0.3,0,0.5-0.1,0.8-0.2c0.2-0.1,0.5-0.2,0.7-0.3s0.4-0.3,0.6-0.5c0.1-0.1,0.1-0.1,0.2-0.1
			C99.6,186.3,99.7,186.3,99.8,186.3z"/>
		<path class="st6" d="M123.1,182.7c0,0.9-0.2,1.9-0.5,2.8c-0.3,0.8-0.8,1.6-1.4,2.2c-0.6,0.6-1.4,1.1-2.2,1.4
			c-0.9,0.4-1.9,0.5-2.8,0.5c-1,0-1.9-0.2-2.8-0.5c-0.8-0.3-1.6-0.8-2.2-1.4c-0.6-0.6-1.1-1.4-1.4-2.2c-0.7-1.8-0.7-3.8,0-5.5
			c0.6-1.7,1.9-3,3.6-3.7c0.9-0.4,1.8-0.5,2.8-0.5c0.7,0,1.3,0.1,1.9,0.2c0.6,0.2,1.2,0.4,1.7,0.7s1,0.6,1.4,1.1
			c0.4,0.4,0.7,0.9,1,1.4s0.5,1.1,0.6,1.7C123,181.5,123.1,182.1,123.1,182.7z M120.5,182.7c0-0.7-0.1-1.4-0.3-2
			c-0.2-0.6-0.5-1.1-0.9-1.5s-0.8-0.8-1.3-1c-1.2-0.4-2.4-0.4-3.6,0c-0.5,0.2-1,0.6-1.4,1s-0.7,1-0.9,1.5c-0.4,1.3-0.4,2.7,0,4
			c0.2,0.6,0.5,1.1,0.9,1.5s0.8,0.7,1.4,0.9c1.2,0.4,2.4,0.4,3.6,0c0.5-0.2,1-0.5,1.3-0.9c0.4-0.4,0.7-0.9,0.9-1.5
			C120.4,184.1,120.5,183.4,120.5,182.7z"/>
		<path class="st6" d="M154.3,186.3c0.1,0,0.3,0.1,0.4,0.2l1,1.1c-0.5,0.7-1.2,1.2-2,1.6c-0.9,0.4-1.9,0.6-2.9,0.6
			c-0.9,0-1.9-0.2-2.7-0.5s-1.5-0.8-2.1-1.4c-0.6-0.6-1-1.4-1.3-2.2c-0.3-0.9-0.5-1.8-0.5-2.8s0.2-1.9,0.5-2.8
			c0.3-0.8,0.8-1.6,1.4-2.2c0.6-0.6,1.3-1.1,2.1-1.4c1.7-0.7,3.6-0.7,5.4,0c0.7,0.3,1.4,0.7,2,1.3l-0.9,1.2
			c-0.1,0.1-0.1,0.1-0.2,0.2c-0.1,0.1-0.2,0.1-0.3,0.1s-0.2,0-0.3-0.1l-0.3-0.2c-0.1-0.1-0.2-0.2-0.4-0.3s-0.4-0.2-0.5-0.3
			c-0.2-0.1-0.5-0.1-0.7-0.2c-0.3-0.1-0.7-0.1-1-0.1c-0.6,0-1.1,0.1-1.7,0.3c-0.5,0.2-0.9,0.5-1.3,0.9c-0.4,0.4-0.7,0.9-0.9,1.5
			s-0.3,1.3-0.3,2s0.1,1.4,0.3,2s0.5,1.1,0.9,1.5s0.8,0.7,1.3,0.9s1.1,0.3,1.6,0.3c0.3,0,0.6,0,0.9-0.1c0.3,0,0.5-0.1,0.8-0.2
			c0.2-0.1,0.5-0.2,0.7-0.3s0.4-0.3,0.6-0.5c0.1-0.1,0.1-0.1,0.2-0.1C154.1,186.3,154.2,186.3,154.3,186.3z"/>
		<path class="st6" d="M167.4,189.5h-2.5v-13.6h2.5V189.5z"/>
		<path class="st6" d="M187.5,175.9v2.1h-4.1v11.5h-2.5V178h-4.1v-2.1H187.5z"/>
		<path class="st6" d="M202.7,184.3v5.3h-2.5v-5.3l-5-8.3h2.2c0.2,0,0.4,0,0.5,0.2c0.1,0.1,0.2,0.3,0.3,0.4l2.5,4.5
			c0.1,0.3,0.3,0.5,0.4,0.8s0.2,0.5,0.3,0.7c0.1-0.2,0.2-0.5,0.3-0.7s0.2-0.5,0.4-0.8l2.5-4.5c0.1-0.1,0.2-0.3,0.3-0.4
			c0.1-0.1,0.3-0.2,0.5-0.2h2.2L202.7,184.3z"/>
	</g>
	<g id="Layer_2_00000003070655913728728710000012838085339746442174_">
		<path class="st7" d="M279.8,106l-0.9-3l-0.8-2.7c0,0-2.5-8.3-2.9-9.4c-0.4-1.3-0.8-2.7-1.2-4l-0.1-0.2l5.6-6.8l-2.7-8.3h-28.4
			l-0.9,1.4l-0.3-1.4h-28.6l-0.7,1.6l-0.3-1.6h-28.9l-0.5,1.9l-0.2-1.9h-29.1l-0.3,3.1l-0.1-3.1h-29.3l-0.1,2.8l-0.3-2.8h-29
			l-0.2,1.8l-0.5-1.8h-14l-1.1,8L83.4,78h-0.3l-2.4-6.2H66.9l-0.3,1.5l-0.7-1.5H52.2l-0.3,1.4L51,71.9H37.4L35.9,78h-3.7l-0.7,2.7
			L25.1,72H11.9L0.6,107l12,11.1h13.1l2.1-7.8l1,1.1h3.5l5.8,6.7h13.4l0.3-1.3l1,1.3h13.5l0.2-1.4l0.9,1.4h13.7l1.1-7.3l3.5,7.3
			h13.9l0.2-1.7l0.6,1.7h28.8l0.1-2.7l0.3,2.7h29l0.3-2.9l0.1,2.9h14.2l0.4-2l0.1,2h14.1l0.6-1.8l0.2,1.8h13.9l0.7-1.6l0.2,1.6h13.8
			l0.8-1.4l0.2,1.4h13.7l7.9-11.3l-0.4-1.8h4.4l6.2-8.6l5.3,21.6h13.4l11.2-11.2L279.8,106L279.8,106z M144,97.5l0.1-4.8h13.7
			l0.1-1.6l0.2,6.4H144z"/>
		<path class="st8" d="M25.7,79.8l-1.8,6.4H32l1.7-6.3h3.7l1.6-6.1h10.7l-7.5,32.3H30.7L34,92.4h-4.2L28,99.1h-7.5l1.9-6.7h-4.2
			l-4.1,13.7H2.8l10.4-32.3h10.5L22,79.7L25.7,79.8z M64.3,73.9L58,106.2H46.5l7.2-32.4L64.3,73.9z M79.9,95.7l1-6.7h-4.2l-2.8,17.2
			H62.4l6-32.4h10.7l-0.9,6l3.7,0.1L81,86.1l4.1,0.1l1.8-12.4h10.7l-3.7,32.4H82.4l1.4-10.3L79.9,95.7z M126,99.5l-0.3,6.7H98.2
			l3.4-32.4h25.5l-0.3,5.7h-15l-0.5,6.6h15.2l-0.3,6.3h-15.5l-0.5,7L126,99.5z M275.5,73.6l1.8,5.7h-7.4v0.2c0.3,1.3,0.6,2.5,1,3.8
			s0.7,2.6,1.1,4s0.8,2.7,1.2,4.1c0.4,1.4,0.8,2.8,1.3,4.2c0.3,0.8,0.5,1.7,0.8,2.6s0.5,1.7,0.8,2.6s0.5,1.8,0.8,2.6
			c0.3,0.9,0.5,1.8,0.8,2.7h-11.6l-7.3-26.7h-7.4l-1.5-5.7L275.5,73.6L275.5,73.6z M248.8,85.9l1.6,6.4h-15.5l2.9,13.8h-11.6
			l-5.9-32.5h25.6l1.4,5.7h-15.1l1.4,6.5L248.8,85.9z M204.2,95.6l1.4,10.5H194l-3.6-32.4H216l5.6,32.5H210l-1.5-10.5L204.2,95.6
			L204.2,95.6z M211.7,82.9l-0.7-4.1h-5.1l0.5,3.8h-4l-0.5-3.7H197l0.5,4.1h4.5l0.2,1.5h-2.3l0.8,6.3h2.7l-0.2-2.2h4l0.3,2.2h2.8
			l-1-6.3h-2.2l-0.2-1.5L211.7,82.9 M184.1,89.3h3.8l1.7,16.8H178l-1-13.7l-4.3-0.1l0.9,13.8H162l-1.2-32.4h25.5l1.2,12h-3.8
			L184.1,89.3z M176.6,86.1l-0.5-6.7h-4.2l0.4,6.7H176.6 M142.1,79.5h14.8l-0.2-5.7h-25.5l-1.1,32.4h27.5l-0.2-6.7h-15.7L142.1,79.5
			z"/>
		<path class="st9" d="M4.4,106.2c-0.8,0-1,0.5-0.4,1l8.2,7.8c0.6,0.6,1.8,1,2.6,1H22c0.8,0,1-0.5,0.5-1.1l-7.2-7.7
			c-0.6-0.6-1.7-1.1-2.5-1.1L4.4,106.2L4.4,106.2z M32.1,106.2c-0.8,0-1.1,0.5-0.5,1.2L38,115c0.5,0.6,1.6,1.2,2.5,1.2H48
			c0.8,0,1.1-0.5,0.6-1.2l-5.6-7.5c-0.5-0.7-1.6-1.2-2.4-1.2L32.1,106.2L32.1,106.2z"/>
		<path class="st9" d="M22.1,99.1c-0.8,0-1.1,0.5-0.5,1.1l7.1,8c0.6,0.6,1.6,1.1,2.2,1.1c0.7,0,0.8-0.6,0.4-1.3l-0.5-0.7
			c-0.5-0.7-0.7-1.9-0.5-2.7l0.1-0.5c0.2-0.8,0-2-0.5-2.6l-1-1.2c-0.5-0.7-1.6-1.2-2.4-1.2L22.1,99.1L22.1,99.1z M48,106.2
			c-0.8,0-1.1,0.6-0.6,1.2l5.5,7.4c0.5,0.7,1.6,1.2,2.4,1.2h7.4c0.8,0,1.1-0.6,0.7-1.3l-4.6-7.3c-0.4-0.7-1.5-1.3-2.3-1.3L48,106.2
			L48,106.2z M63.9,106.2c-0.8,0-1.2,0.6-0.7,1.3l4.4,7.3c0.4,0.7,1.5,1.3,2.3,1.3h7.3c0.8,0,1.2-0.6,0.8-1.4l-3.5-7.1
			c-0.4-0.7-1.3-1.4-2.2-1.4L63.9,106.2L63.9,106.2z M83.8,106.2c-0.8,0-1.2,0.6-0.9,1.4l3.3,7.2c0.4,0.8,1.3,1.4,2.1,1.4h7.6
			c0.8,0,1.3-0.6,1-1.4l-2.6-7.1c-0.3-0.8-1.2-1.4-2-1.4L83.8,106.2L83.8,106.2z M99.7,106.1c-0.8,0-1.3,0.6-1,1.4l2.5,6.9
			c0.3,0.8,1.2,1.4,2,1.4h22.4c0.8,0,1.4-0.7,1.3-1.5l-1-6.8c-0.1-0.8-0.9-1.5-1.7-1.5L99.7,106.1z M131.6,106.1
			c-0.8,0-1.4,0.7-1.3,1.5l0.8,7c0.1,0.8,0.8,1.5,1.7,1.5H155c0.8,0,1.6-0.7,1.7-1.5l0.8-7c0.1-0.8-0.5-1.5-1.3-1.5H131.6
			L131.6,106.1z M163.6,106.1c-0.8,0-1.6,0.7-1.7,1.5l-0.9,6.9c-0.1,0.8,0.5,1.5,1.3,1.5h7.4c0.8,0,1.7-0.7,1.9-1.5l1.7-6.9
			c0.2-0.8-0.3-1.5-1.2-1.5H163.6L163.6,106.1z M179.6,106.1c-0.8,0-1.7,0.7-1.9,1.5l-1.6,6.8c-0.2,0.8,0.3,1.5,1.2,1.5h7.4
			c0.8,0,1.7-0.6,2-1.4l2.4-6.9c0.3-0.8-0.2-1.4-1-1.4L179.6,106.1L179.6,106.1z M195.6,106.1c-0.8,0-1.7,0.6-2,1.4l-2.5,7
			c-0.3,0.8,0.2,1.4,1,1.4h7.4c0.8,0,1.8-0.6,2.2-1.4l3.3-7.1c0.4-0.8,0-1.4-0.9-1.4L195.6,106.1L195.6,106.1z M211.6,106.1
			c-0.8,0-1.8,0.6-2.2,1.4l-3.5,7.2c-0.4,0.7,0,1.4,0.8,1.4h7.7c0.8,0,1.8-0.6,2.3-1.3l4.2-7.3c0.4-0.7,0.1-1.3-0.8-1.3L211.6,106.1
			L211.6,106.1z M227.6,106.1c-0.8,0-1.9,0.6-2.3,1.3l-4.5,7.3c-0.4,0.7-0.1,1.3,0.7,1.3h7.6c0.8,0,1.9-0.6,2.4-1.2l5.3-7.4
			c0.5-0.7,0.2-1.2-0.6-1.2L227.6,106.1L227.6,106.1z M267.6,106.1c-0.8,0-2,0.5-2.5,1.1l-6.6,7.5c-0.6,0.6-0.3,1.1,0.5,1.1h7.2
			c0.8,0,2-0.5,2.6-1.1l7.9-7.7c0.6-0.6,0.4-1.1-0.4-1.1L267.6,106.1L267.6,106.1z"/>
		<path class="st7" d="M11.4,79.2c-0.1,0.2,0.5,0.4,1.4,0.4h7.9c0.8,0,1.5-0.2,1.5-0.4c0-0.2-0.7-0.4-1.5-0.4H13
			C12.2,78.9,11.4,79,11.4,79.2 M10.8,95.7c0.3-0.8-0.2-1.4-1-1.4H7.9c-0.8,0-1.5,0.2-1.5,0.4C6.3,94.8,7,95,7.9,95h1
			c0.8,0,1.3,0.6,1,1.4l-1.8,5.4c-0.3,0.8,0.2,1.4,1,1.4H15c0.8,0,1.5-0.2,1.5-0.4s-0.7-0.4-1.5-0.4h-5c-0.8,0-1.3-0.6-1-1.4
			l0.1-0.4c0.3-0.8,1.2-1.4,2-1.4h4.6c0.8,0,1.5-0.2,1.5-0.4c0-0.2-0.7-0.4-1.5-0.4h-4.3c-0.8,0-1.3-0.6-1-1.4L10.8,95.7L10.8,95.7z
			 M42.4,80.6c0.1-0.8-0.5-1.5-1.3-1.5h-2.3c-0.8,0-1.6,0.2-1.6,0.4c-0.1,0.2,0.5,0.3,1.4,0.3h1.8c0.8,0,1.4,0.7,1.3,1.5l-0.3,2.4
			c-0.1,0.8-0.9,1.5-1.7,1.5h-7.3c-0.8,0-1.5,0.2-1.5,0.4c0,0.2,0.7,0.4,1.5,0.4h14.3c0.8,0,1.5-0.2,1.5-0.4c0-0.2-0.7-0.4-1.5-0.4
			h-3.3c-0.8,0-1.4-0.7-1.3-1.5L42.4,80.6L42.4,80.6z M52.4,102.2c0.1-0.8,0.1-1.1-0.2-0.7s-0.6,1.4-0.8,2.3l-0.2,1.2
			c-0.2,0.8,0.1,2,0.6,2.7l0.4,0.6c0.5,0.7,1.2,1.5,1.7,1.8c0.4,0.3,0.4,0,0-0.7l-1.3-1.9c-0.5-0.7-0.7-1.9-0.6-2.7L52.4,102.2z
			 M63.7,80.4c0-0.2-0.7-0.3-1.5-0.3l-3,0.1c-0.8,0-1.2,0.2-0.7,0.3c0.4,0.2,1.4,0.3,2.3,0.3h1.4C63,80.7,63.7,80.6,63.7,80.4
			 M68.1,103.9c0.2-0.8,0.1-1.1-0.2-0.7c-0.3,0.4-0.6,1.3-0.8,1.8c-0.1,0.6,0,1.6,0.2,2.3c0.3,0.7,0.7,1.6,1,2s0.3,0.1,0.1-0.7
			l-0.4-1.2c-0.3-0.8-0.3-2.1-0.2-2.9L68.1,103.9z M65.2,95.7c-0.8,0-1.5,0.1-1.5,0.3c0,0.2,0.7,0.4,1.5,0.4l8.4,0.4
			c0.8,0,1.7,0.4,2,0.8s0.6,0.7,0.8,0.6c0.2-0.1,0-0.6-0.3-1.1s-1.3-0.9-2.1-1L65.2,95.7L65.2,95.7z M74.2,79.3
			c0.3,0.2,1.3,0.4,2.1,0.4h0.6c0.8,0,1.5-0.2,1.5-0.4c0-0.2-0.7-0.4-1.5-0.4h-1.8C74.3,78.9,73.8,79,74.2,79.3 M84.2,96
			c-0.8,0-1.5,0.2-1.5,0.4c0,0.2,0.7,0.3,1.5,0.3l4.9-0.2c0.8,0,1.4,0.6,1.3,1.4l-1,6.8c-0.1,0.8,0,2.1,0.2,2.9l0.2,0.7
			c0.2,0.8,0.7,1.8,1.1,2.3c0.3,0.5,0.4,0.2,0.2-0.6l-0.8-2.5c-0.2-0.8-0.3-2.1-0.2-2.9l1.1-7.5c0.1-0.8-0.5-1.5-1.3-1.4L84.2,96
			L84.2,96z M85.9,79.1c0,0.2,0.6,0.5,1.4,0.6l8.4,1c0.8,0.1,1.5,0,1.5-0.2s-0.7-0.4-1.5-0.5l-8.2-1C86.7,78.9,86,78.9,85.9,79.1
			 M104.1,100.3c0-0.8-0.6-1.5-1.4-1.5c0,0,0,0-0.1,0h-3c-0.8,0-1.5,0.2-1.5,0.4c0,0.2,0.7,0.4,1.5,0.4h2.3c0.8,0,1.5,0.6,1.5,1.4
			c0,0,0,0,0,0.1l-0.1,3.5c0,0.8,0.1,2.2,0.3,3l0.6,2.2c0.2,0.8,0.6,1.9,0.9,2.3c0.3,0.5,0.3,0.2,0.2-0.6l-0.9-4
			c-0.2-0.8-0.3-2.2-0.3-3V100.3L104.1,100.3z M99.9,83.2c0,0.2,0.7,0.4,1.5,0.4h2.9c0.8,0,1.9-0.2,2.3-0.4c0.4-0.2,0.1-0.4-0.7-0.4
			l-4.4,0.1C100.6,82.8,99.9,83,99.9,83.2 M119.4,86.8c0-0.8-0.2-1.5-0.4-1.5c-0.2,0-0.4,0.7-0.4,1.5v3.4c0,0.8,0.2,1.1,0.4,0.6
			c0.2-0.5,0.4-1.6,0.4-2.4V86.8L119.4,86.8z M122.8,99.7c0,0.8-0.7,1.5-1.6,1.5h-2.3c-0.8,0-1.5,0.7-1.5,1.5v2.3
			c0,0.8,0.2,1.5,0.4,1.5c0.2,0,0.4-0.7,0.4-1.5v-1.6c0-0.8,0.7-1.5,1.5-1.5h2.3c0.8,0,1.5-0.7,1.6-1.5v-0.7c0-0.8-0.1-1.5-0.3-1.5
			C123,98.1,122.8,98.8,122.8,99.7L122.8,99.7z M151.7,101.2c-0.2,0.3-0.2,1.2-0.1,2.1l0.1,1.4c0.1,0.8,0.1,2.2,0,3l-1,7.2
			c-0.1,0.8,0,1.5,0.2,1.5s0.5-0.7,0.6-1.5l0.9-7.1c0.1-0.8,0.1-2.2,0-3l-0.3-2.6C152.1,101.4,151.9,100.9,151.7,101.2 M130.5,112.4
			c0,0.2,0.7,0.4,1.5,0.4h0.4c0.8,0,1.5-0.2,1.5-0.4c0-0.2-0.7-0.4-1.5-0.4H132C131.2,112,130.5,112.2,130.5,112.4 M133.2,84.1
			c0.4,0.2,1.4,0.5,2.2,0.7l5.8,1c0.8,0.3,1.5,0.5,1.5,0.3c0.1-0.2-0.5-0.5-1.3-0.8l-7.5-1.3C133.1,83.9,132.8,83.9,133.2,84.1
			 M133.1,90.7c0.3-0.2-0.1-0.4-0.9-0.4h-0.3c-0.8,0-1.5,0.2-1.5,0.4s0.5,0.4,1.1,0.4C132,91.1,132.7,90.9,133.1,90.7 M165.9,84.5
			c0,0.5,0.8,0.8,1.6,0.8h0.7c0.8,0,1.6,0,1.7,0.1c0.1,0,0.6,0.4,0.8,0.3s0-0.4-0.3-0.6s-1.3-0.4-2.1-0.4h-0.1
			c-0.8,0-1.6-0.7-1.7-1.5l-0.9-8.3c-0.1-0.8-0.3-1.5-0.5-1.5s-0.3,0.7-0.2,1.5l0.7,6.6c0.1,0.8-0.5,1.5-1.3,1.5h-2.4
			c-0.8,0-1.5,0.2-1.5,0.4c0,0.2,0.7,0.4,1.5,0.4h2.5C165.2,83.7,165.9,84,165.9,84.5 M164.9,101.1c0.1,0.8-0.2,2.1-0.7,2.8
			l-0.6,0.7c-0.2,0.8-0.2,1.5,0,1.5s0.6-0.6,0.8-1.4c0,0,0.1-0.3,0.4-0.8c0.3-0.4,0.6-0.8,0.7-0.8c0.1,0,0.1-0.7,0.1-1.5l-0.3-3.8
			c-0.1-0.8,0.5-1.4,1.3-1.5h0.1h5.7c0.8,0,1.5-0.2,1.5-0.4c0-0.2-0.7-0.4-1.5-0.4H166c-0.8,0-1.5,0.7-1.4,1.5L164.9,101.1
			L164.9,101.1z M176.8,98.1c0,0.2,0.7,0.4,1.5,0.4h3.8c0.8,0,1.8-0.2,2.2-0.4c0.4-0.2,0-0.4-0.9-0.4h-5.1
			C177.5,97.8,176.8,97.9,176.8,98.1 M180.1,88.2c0.2,0.2,1.1,0.3,1.9,0.3h1.1c0.8,0,1.5-0.2,1.5-0.4c0-0.2-0.7-0.3-1.5-0.3h-1.9
			C180.4,87.8,179.9,88,180.1,88.2 M160.7,112.9c0,0.2,0.7,0.4,1.5,0.5l8.4,0.6c0.8,0.1,1.5,0,1.5-0.2s-0.7-0.4-1.5-0.5l-8.4-0.6
			C161.4,112.6,160.7,112.7,160.7,112.9 M209.7,97.9c-0.8,0-1.5,0.2-1.5,0.4c0,0.2,0.7,0.3,1.5,0.3l10.3,1.1c0.8,0.1,1.6,0,1.6-0.2
			c0.1-0.2-0.6-0.4-1.4-0.5L209.7,97.9L209.7,97.9z M241.7,84.8c-0.2,0.1-0.3,0.8-0.3,1.6l0.9,4.7c-0.4,0.8-0.5,1.4-0.3,1.5
			s0.6-0.5,1-1.2l-0.9-5.3C242.1,85.4,241.9,84.8,241.7,84.8 M236.2,76c-0.7,0-1.5-0.6-1.8-1.4c-0.2-0.8-0.6-1.4-0.8-1.3
			s-0.1,0.8,0.1,1.5l0.1,0.4c0.2,0.8,1.1,1.4,1.8,1.4s1.6,0.6,1.8,1.4l0.4,1c0.3,0.8,0.6,1.4,0.8,1.3s0.1-0.8-0.2-1.5l-0.5-1.5
			C237.8,76.7,237,76,236.2,76 M264.1,96.5c-0.8,0-1.5,0.2-1.5,0.4c0,0.2,0.7,0.4,1.5,0.4h9.7c0.8,0,1.5-0.2,1.5-0.4
			c0-0.2-0.7-0.4-1.5-0.4H264.1z M271.4,79.9c0.2-0.1,0.2-0.7-0.1-1.5l-1-3.6c-0.2-0.8-0.5-1.4-0.7-1.4c-0.2,0.1-0.2,0.7,0.1,1.5
			l1,3.6C270.9,79.3,271.3,80,271.4,79.9"/>
		<path class="st7" d="M36.8,79.7H40c0.8,0,0.8-0.1,0-0.3l-1.1-0.2c-0.8-0.2-1.4,0-1.4,0.3C37.6,79.5,36.8,79.7,36.8,79.7z
			 M19.2,111c-0.3-0.4-1.3-0.6-2.1-0.5l-1.8,0.2c-0.8,0.1-0.8,0.3,0,0.4l3,0.4C19.1,111.6,19.5,111.4,19.2,111 M49.1,114.9
			c-0.2-0.4-1.1-0.6-1.9-0.5l-3.9,0.3c-0.8,0.1-0.8,0.2,0,0.3l4.8,0.4C48.8,115.5,49.3,115.2,49.1,114.9 M85.3,113.4
			c-0.1-0.3,0.5-0.6,1.3-0.5h1c0.8,0,0.9,0.2,0.1,0.5l-0.7,0.2C86.1,113.8,85.4,113.7,85.3,113.4 M126.7,111.1
			c-0.1-0.5-0.8-0.8-1.6-0.7l-2.8,0.4c-0.8,0.1-0.8,0.3,0,0.4l3,0.5C126.2,111.9,126.8,111.6,126.7,111.1 M130.2,112.8
			c0-0.5,0.6-0.8,1.4-0.7h0.1c0.8,0.1,0.9,0.5,0.1,0.8l-0.2,0.1C130.9,113.4,130.2,113.3,130.2,112.8 M104,104.7
			c-0.1-0.7-0.3-0.8-0.4-0.1c-0.1,0.6,0,1.8,0.2,2.6l0.2,0.6c0.2,0.8,0.4,0.8,0.3-0.1v-0.3C104.2,106.6,104.1,105.6,104,104.7
			 M117.7,105.2c-0.2-0.3-0.3,0.1-0.2,1v0.4c0,0.8,0.2,1,0.3,0.3C117.9,106.3,117.9,105.5,117.7,105.2 M89.9,104.9
			c0-0.7-0.2-0.7-0.3,0c-0.1,0.7,0,1.9,0.2,2.7l0.2,0.7c0.3,0.8,0.4,0.8,0.2-0.1l-0.1-0.5C90,106.8,89.9,105.9,89.9,104.9
			 M67.5,105.5c-0.1-0.3-0.3-0.2-0.5,0.1c-0.1,0.4,0,1,0.3,1.5s0.5,0.4,0.5-0.1C67.7,106.4,67.6,105.8,67.5,105.5 M51.8,105
			c-0.2-0.7-0.5-0.6-0.6,0.2l0,0c-0.2,0.8,0.1,1.9,0.7,2.5c0.6,0.6,0.9,0.5,0.6-0.2C52.3,106.7,52,105.8,51.8,105 M23.7,103.9
			c-0.2-0.3,0.3-0.5,1.1-0.4l2.4,0.2c0.8,0.1,0.8,0.2,0,0.3l-1.6,0.2C24.8,104.4,23.9,104.2,23.7,103.9 M151.9,104.4
			c0.1-0.8,0.4-0.8,0.5,0l0.1,0.3c0.2,0.8,0.1,2.1-0.1,2.9l-0.3,1.1c-0.2,0.8-0.4,0.8-0.4-0.1v-1c0-0.8,0.1-2.2,0.2-3V104.4z
			 M142.5,86.3c0,0.4-0.6,0.3-1.2-0.2l-0.4-0.3c-0.7-0.5-0.6-0.7,0.2-0.5l0,0C141.8,85.5,142.5,86,142.5,86.3 M188.4,110.2
			c0.1-0.3-0.5-0.6-1.3-0.5H186c-0.8,0-0.9,0.2-0.1,0.5l0.9,0.2C187.6,110.6,188.3,110.6,188.4,110.2 M182.5,105.2
			c-0.2-0.5-0.4-0.2-0.4,0.6v0.2c0,0.8,0.2,1.2,0.4,0.8C182.8,106.4,182.7,105.7,182.5,105.2 M203.4,111.7c0.1-0.4-0.4-0.6-1.3-0.5
			l-2.9,0.2c-0.8,0.1-0.8,0.2,0,0.3l2.4,0.4C202.5,112.3,203.2,112.1,203.4,111.7 M200.4,105.4c-0.1-0.4-0.3-0.4-0.4-0.1
			c-0.1,0.4-0.1,1.2,0.1,1.8c0.1,0.6,0.3,0.6,0.4,0.1C200.6,106.6,200.6,105.8,200.4,105.4 M242.1,92.9c-0.3-0.1-0.3-0.8,0.1-1.5
			c0.3-0.7,0.6-0.7,0.5,0.2l0,0C242.7,92.4,242.4,93,242.1,92.9 M222.4,110.9c0.3-0.4,1.2-0.5,2-0.4l4.1,0.6c0.8,0.1,0.8,0.2,0,0.3
			l-5.1,0.1C222.5,111.5,222.1,111.2,222.4,110.9 M260.9,110.9c0.4-0.5,1.3-0.8,2.1-0.6l3.7,0.7c0.8,0.2,0.8,0.3,0,0.4l-5,0.3
			C260.9,111.7,260.6,111.4,260.9,110.9 M262.4,96.8c-0.2-0.5,0.4-0.9,1.2-0.8l3.4,0.5c0.8,0.1,0.8,0.3,0,0.5l-2.8,0.5
			C263.4,97.7,262.6,97.3,262.4,96.8 M258.5,80.4c-0.3-0.2-0.5-1.1-0.5-1.9v-0.2c0-0.8,0.1-0.9,0.3,0l0.3,1.1
			C258.8,80.2,258.8,80.7,258.5,80.4 M221.1,100.1l-2.1-0.9c-0.8-0.3-0.7-0.5,0.1-0.4l2.3,0.2 M140.4,106.9c0.2-0.5,0.2-1.2,0-1.6
			s-1-0.8-1.8-0.8h-0.9c-0.8,0-1.7,0.4-2,0.9s0.1,1.1,0.9,1.3l2,0.6C139.5,107.6,140.3,107.4,140.4,106.9"/>
		<path class="st7" d="M139,105.8c-0.6-0.6-0.5-1.1,0.1-1.1s1.3,0.3,1.6,0.6c0.3,0.4,0.2,1.2-0.3,1.9l-0.2,0.3
			c-0.4,0.7-0.7,0.8-0.5,0.3C139.9,107.3,139.6,106.4,139,105.8 M85.8,79.3c0.1-0.5,0.8-0.7,1.6-0.5l0.4,0.1c0.8,0.2,0.8,0.5,0,0.7
			l-0.6,0.1C86.4,80,85.7,79.8,85.8,79.3 M47.8,85.7c-0.2,0.3-1,0.4-1.8,0.2l-0.5-0.1c-0.8-0.2-0.8-0.4,0-0.4l1-0.1
			C47.4,85.2,47.9,85.4,47.8,85.7 M17.2,98.7c0.1-0.4-0.4-0.6-1.2-0.4l-1.3,0.2c-0.8,0.2-0.8,0.4,0,0.5l0.8,0.1
			C16.2,99.3,17,99.1,17.2,98.7"/>
		<path class="st9" d="M19.5,111.1c-0.3-0.3-0.3-1.2,0-2l0.3-1.1c0.2-0.8,0.4-0.8,0.4,0.1l-0.1,2C20,111,19.8,111.4,19.5,111.1
			 M48.9,115c-0.3-0.2-0.3-0.9,0-1.6s0.5-0.6,0.5,0.2v0.2C49.4,114.6,49.2,115.2,48.9,115 M75.4,97.3c0-0.5,0.2-0.3,0.5,0.5l0.2,0.5
			c0.3,0.8,0.3,1.1,0,0.7C75.7,98.6,75.4,97.8,75.4,97.3 M222.7,111.4c0.3-0.2,0.3-1.1,0.1-1.9l-0.3-1.2c-0.2-0.8-0.4-0.8-0.4,0.1
			v1.9C222.2,111.1,222.4,111.6,222.7,111.4 M261.5,111.1c0.4-0.2,0.5-1,0.1-1.8l-1.6-3.4c-0.3-0.8-0.5-0.7-0.4,0.1l0.7,4
			C260.6,110.9,261.1,111.3,261.5,111.1 M263.1,96.7c-0.2-0.3-0.6,0-1,0.8l-1.6,3.3c-0.4,0.7-0.3,0.8,0.2,0.1l1.7-2.4
			C263,97.9,263.3,97,263.1,96.7"/>
		<path class="st7" d="M237.9,80.6l0.1-1.9c0-0.8,0.2-0.9,0.4,0l0.6,2.2"/>
		<path class="st10" d="M13.9,111.9c-0.7-0.2-0.7-0.4,0.1-0.3c0.9,0.1,1.8,0.2,2.6,0.3c0.6,0.1,0.6,0.2-0.1,0.3
			C15.9,112.3,14.7,112.2,13.9,111.9 M51.1,107.8c-0.6-0.6-0.7-0.5-0.2,0.2l0.6,0.8c0.5,0.7,1.2,1.5,1.7,1.8s0.4,0.1-0.1-0.5
			C52.6,109.3,51.9,108.6,51.1,107.8L51.1,107.8z M66.3,106.1c-0.2,0-0.1,0.6,0.2,1.2c0.3,0.7,0.5,0.7,0.4,0
			C66.8,106.7,66.5,106.1,66.3,106.1 M87.9,113.6c-0.6-0.1-0.5-0.2,0.3-0.4l0.9-0.2c0.8-0.1,1.1-0.1,0.7,0.2
			C89.4,113.6,88.6,113.7,87.9,113.6 M103,107.4c-0.3-0.4-0.4-0.2-0.2,0.6c0.2,0.7,0.6,1.9,0.9,2.5c0.4,0.6,0.5,0.5,0.3-0.3
			l-0.1-0.6C103.7,108.8,103.3,107.8,103,107.4 M153,108.6c-0.1-0.5-0.3-0.4-0.5,0.2s-0.4,1.7-0.4,2.5s0.2,0.8,0.5,0l0.1-0.3
			C153,110.2,153.1,109.1,153,108.6 M136.3,105.4c-0.2-0.5-0.5-0.4-0.8,0.2s0.1,1.4,0.8,1.7l0,0c0.7,0.4,1.1,0.3,0.8-0.2
			C136.9,106.7,136.5,105.9,136.3,105.4 M164.3,113.9c-0.7-0.2-0.7-0.4,0.2-0.4h0.3c0.8,0,2.1,0.2,2.9,0.5c0.7,0.3,0.7,0.4-0.2,0.4
			h-0.3C166.3,114.3,165,114.1,164.3,113.9 M183.2,107.4c-0.1-0.3-0.3,0-0.5,0.6s-0.2,0.9,0.1,0.5
			C183,108.2,183.2,107.6,183.2,107.4 M201.3,106.7c-0.1-0.3-0.3,0-0.5,0.6s-0.2,0.9,0.1,0.5C201.2,107.5,201.4,107,201.3,106.7
			 M198.4,112.2c-0.8-0.2-0.8-0.4,0-0.4l0.6-0.1c0.8-0.1,1.8,0.1,2.3,0.3c0.4,0.3,0.3,0.5-0.3,0.5S199.3,112.3,198.4,112.2
			L198.4,112.2z M225.1,112.1c-0.7,0.1-0.7-0.1,0-0.3c0.7-0.2,2-0.4,2.9-0.3l1.1,0.1c0.8,0.1,0.8,0.2,0,0.2l-1.1,0.1
			C227.1,112,225.8,112.1,225.1,112.1"/>
		<path class="st9" d="M242.3,93.1c-0.4,0.2-1,0.9-1.3,1.7l0,0c-0.3,0.8-0.2,0.9,0.3,0.2l0.8-1C242.6,93.4,242.7,93,242.3,93.1"/>
		<path class="st7" d="M271.5,80.3c-0.4,0-0.7-0.7-0.8-1.5l-0.1-0.6c-0.1-0.8,0.1-0.9,0.5-0.1l0.4,0.9
			C271.9,79.6,271.9,80.3,271.5,80.3 M160.4,83.6c0-0.4,0.6-0.7,1.5-0.7h0.5c0.8,0,0.9,0.3,0.1,0.6l-0.6,0.3
			C161.1,84.1,160.4,84,160.4,83.6 M119.1,85.1c-0.3-0.2-0.5,0.4-0.4,1.2l0.1,0.7c0.1,0.8,0.3,0.8,0.5,0v-0.1
			C119.5,86.1,119.4,85.3,119.1,85.1 M82.1,96.6C82,96.3,82.6,96,83.4,96h3.2c0.8,0,0.8,0.1,0,0.3l-2.9,0.6
			C82.9,97.1,82.2,96.9,82.1,96.6 M16.5,103.1c0-0.2-0.6-0.4-1.4-0.4h-0.8c-0.8,0-0.9,0.2,0,0.4l0.7,0.2
			C15.7,103.3,16.4,103.3,16.5,103.1"/>
		<path class="st11" d="M4.8,105.8c-0.8,0-1.4,0.1-1.2,0.3c0.2,0.2,1,0.3,1.8,0.3h6.2c0.8,0,1.6-0.2,1.8-0.4
			c0.2-0.2-0.4-0.3-1.2-0.3C12.1,105.7,4.8,105.8,4.8,105.8z M32.7,105.8c-0.8,0-1.4,0.1-1.2,0.3c0.2,0.2,1,0.3,1.8,0.3h6.2
			c0.8,0,1.6-0.2,1.8-0.4c0.2-0.2-0.4-0.3-1.2-0.3L32.7,105.8z M48.3,105.6c-0.8,0-1.5,0.2-1.4,0.3c0.1,0.2,0.8,0.3,1.6,0.3h0.1
			c0.8,0,1.6-0.2,1.6-0.4c0.1-0.2-0.6-0.3-1.4-0.3L48.3,105.6z M20.4,92c-0.8,0-1.5,0.2-1.4,0.3c0.1,0.2,0.8,0.3,1.6,0.3h0.1
			c0.8,0,1.6-0.2,1.6-0.4c0.1-0.2-0.6-0.3-1.4-0.3L20.4,92L20.4,92z M31.9,92c-0.8,0-1.5,0.2-1.4,0.3c0.1,0.2,0.8,0.3,1.6,0.3h0.1
			c0.8,0,1.6-0.2,1.6-0.4c0.1-0.2-0.6-0.3-1.4-0.3L31.9,92z M8.8,93.8c-0.8,0-1.5,0.2-1.4,0.4c0,0.2,0.7,0.3,1.5,0.3
			s1.4-0.2,1.5-0.4c0.1-0.2-0.6-0.3-1.4-0.3H8.8L8.8,93.8z M22.7,98.5c-0.8,0-1.4,0.2-1.3,0.3c0.1,0.2,0.9,0.3,1.7,0.3h2.8
			c0.8,0,1.6-0.2,1.7-0.4c0.1-0.2-0.5-0.3-1.3-0.3L22.7,98.5z M16.3,78.4c-0.8,0-1.4,0.2-1.3,0.3c0.1,0.2,0.9,0.3,1.7,0.3h2.8
			c0.8,0,1.6-0.2,1.7-0.4c0.1-0.2-0.5-0.3-1.3-0.3C19.8,78.3,16.3,78.4,16.3,78.4z M64.4,105.6c-0.8,0-1.5,0.2-1.4,0.3
			c0.1,0.2,0.8,0.3,1.6,0.3h0.1c0.8,0,1.6-0.2,1.6-0.4c0.1-0.2-0.6-0.3-1.4-0.3L64.4,105.6z M91.8,105.6c-0.8,0-1.5,0.2-1.4,0.3
			c0,0.2,0.7,0.3,1.5,0.3s1.4-0.2,1.5-0.4c0.1-0.2-0.6-0.3-1.4-0.3L91.8,105.6z M69.5,105.7c-0.8,0-1.4,0.2-1.3,0.3
			c0.1,0.2,0.8,0.3,1.7,0.3H72c0.8,0,1.6-0.2,1.7-0.4c0.1-0.2-0.5-0.3-1.3-0.3L69.5,105.7z M84,105.7c-0.8,0-1.4,0.2-1.3,0.3
			c0.1,0.2,0.9,0.3,1.7,0.3H87c0.8,0,1.6-0.2,1.7-0.4c0.1-0.2-0.5-0.3-1.3-0.3L84,105.7L84,105.7z M100.1,105.6
			c-0.8,0-1.5,0.2-1.4,0.3c0.1,0.2,0.8,0.3,1.6,0.3h1.1c0.8,0,1.6-0.2,1.6-0.4c0.1-0.2-0.5-0.3-1.4-0.3L100.1,105.6L100.1,105.6z
			 M131.9,105.6c-0.8,0-1.5,0.2-1.4,0.3c0.1,0.2,0.8,0.3,1.6,0.3h1.1c0.8,0,1.6-0.2,1.6-0.4c0.1-0.2-0.5-0.3-1.4-0.3L131.9,105.6
			L131.9,105.6z M154.6,105.6c-0.8,0-1.5,0.2-1.4,0.3c0.1,0.2,0.8,0.3,1.6,0.3h0.7c0.8,0,1.6-0.2,1.6-0.4c0.1-0.2-0.6-0.3-1.4-0.3
			L154.6,105.6L154.6,105.6z M165.9,105.7c-0.8,0-1.4,0.2-1.3,0.3c0.1,0.2,0.9,0.3,1.8,0.3h4.9c0.8,0,1.6-0.2,1.8-0.4
			s-0.4-0.3-1.3-0.3L165.9,105.7L165.9,105.7z M179.8,105.6c-0.8,0-1.5,0.2-1.4,0.3c0.1,0.2,0.8,0.3,1.6,0.3h0.2
			c0.8,0,1.6-0.2,1.6-0.4c0.1-0.2-0.6-0.3-1.4-0.3L179.8,105.6L179.8,105.6z M184.8,105.7c-0.8,0-1.4,0.2-1.3,0.3
			c0.1,0.2,0.8,0.3,1.7,0.3h2.1c0.8,0,1.6-0.2,1.7-0.4c0.1-0.2-0.5-0.3-1.3-0.3L184.8,105.7L184.8,105.7z M195.9,105.6
			c-0.8,0-1.4,0.2-1.4,0.3c0.1,0.2,0.8,0.3,1.7,0.3h1.3c0.8,0,1.6-0.2,1.6-0.4s-0.5-0.3-1.4-0.3L195.9,105.6z M202.5,105.6
			c-0.8,0-1.5,0.2-1.4,0.3c0.1,0.2,0.8,0.3,1.6,0.3h0.5c0.8,0,1.6-0.2,1.6-0.4c0.1-0.2-0.6-0.3-1.4-0.3L202.5,105.6L202.5,105.6z
			 M211.9,105.7c-0.8,0-1.4,0.1-1.2,0.3c0.2,0.2,1,0.3,1.8,0.3h6.8c0.8,0,1.7-0.2,1.8-0.4c0.2-0.2-0.4-0.3-1.2-0.3L211.9,105.7z
			 M227.7,105.7c-0.8,0-1.4,0.1-1.2,0.3c0.2,0.2,1,0.3,1.8,0.3h6.8c0.8,0,1.7-0.2,1.8-0.4c0.2-0.2-0.4-0.3-1.2-0.3L227.7,105.7
			L227.7,105.7z M267.9,105.7c-0.8,0-1.4,0.1-1.2,0.3c0.2,0.2,1,0.3,1.8,0.3h6.8c0.8,0,1.7-0.2,1.8-0.4c0.2-0.2-0.4-0.3-1.2-0.3
			L267.9,105.7z M253.1,78.9c-0.8,0-1.4,0.2-1.3,0.3c0.1,0.2,0.9,0.3,1.7,0.3h2.5c0.8,0,1.6-0.2,1.7-0.4c0.1-0.2-0.5-0.3-1.3-0.3
			L253.1,78.9z M240.6,78.9c-0.8,0-1.4,0.2-1.3,0.3c0.1,0.2,0.9,0.3,1.7,0.3h3.3c0.8,0,1.6-0.2,1.7-0.4c0.1-0.2-0.5-0.3-1.3-0.3
			C244.7,78.9,240.6,78.9,240.6,78.9z M234.3,78.9c-0.8,0-1.4,0.2-1.4,0.3c0.1,0.2,0.8,0.3,1.7,0.3h1.4c0.8,0,1.6-0.2,1.7-0.4
			c0.1-0.2-0.5-0.3-1.4-0.3C236.2,78.9,234.3,78.9,234.3,78.9z M236.4,91.9c-0.8,0-1.4,0.2-1.3,0.3c0.1,0.2,0.9,0.3,1.7,0.3h2.7
			c0.8,0,1.6-0.2,1.7-0.4c0.1-0.2-0.5-0.3-1.3-0.3L236.4,91.9L236.4,91.9z M197.7,78.1c-0.8,0-1.4,0.2-1.4,0.3
			c0.1,0.2,0.8,0.3,1.7,0.3h1.4c0.8,0,1.6-0.2,1.7-0.4c0.1-0.2-0.5-0.3-1.4-0.3L197.7,78.1z M206.7,78.1c-0.8,0-1.4,0.2-1.4,0.3
			c0.1,0.2,0.8,0.3,1.7,0.3h1.4c0.8,0,1.6-0.2,1.7-0.4c0.1-0.2-0.5-0.3-1.4-0.3C208.6,78,206.7,78.1,206.7,78.1z M200.9,83.8
			c-0.7,0-1.2,0.2-1.1,0.4c0,0.2,0.6,0.3,1.2,0.3c0.6,0,1.1-0.2,1.1-0.4C202.1,83.9,201.6,83.7,200.9,83.8 M204.1,81.9
			c-0.8,0-1.5,0.2-1.4,0.4c0,0.2,0.7,0.3,1.4,0.3s1.4-0.2,1.4-0.4C205.6,82,205,81.9,204.1,81.9L204.1,81.9z M164.1,82.3
			c-0.8,0-1.5,0.2-1.4,0.4c0,0.2,0.7,0.3,1.4,0.3s1.4-0.2,1.4-0.4C165.6,82.4,165,82.2,164.1,82.3L164.1,82.3z M174.1,91.6
			c-0.8,0-1.5,0.2-1.4,0.3c0.1,0.2,0.8,0.3,1.6,0.3h0.3c0.8,0,1.6-0.2,1.6-0.4c0.1-0.2-0.6-0.3-1.4-0.3L174.1,91.6z M167.1,95
			c-0.8,0-1.4,0.2-1.3,0.3c0.1,0.2,0.8,0.3,1.7,0.3h2.1c0.8,0,1.6-0.2,1.7-0.4c0.1-0.2-0.5-0.3-1.3-0.3L167.1,95L167.1,95z
			 M266.9,95.7c-0.8,0-1.4,0.2-1.3,0.3c0.1,0.2,0.8,0.3,1.7,0.3h2.1c0.8,0,1.6-0.2,1.7-0.4c0.1-0.2-0.5-0.3-1.3-0.3L266.9,95.7
			L266.9,95.7z M100.9,98.3c-0.8,0-1.5,0.2-1.4,0.3c0.1,0.2,0.8,0.3,1.6,0.3h0.8c0.8,0,1.6-0.2,1.6-0.4c0.1-0.2-0.6-0.3-1.4-0.3
			L100.9,98.3z M86.8,95.5c-0.8,0-1.5,0.2-1.4,0.3s0.8,0.3,1.6,0.3h0.8c0.8,0,1.6-0.2,1.6-0.4c0.1-0.2-0.6-0.3-1.4-0.3L86.8,95.5z
			 M66.7,95.2c-0.8,0-1.5,0.2-1.4,0.3c0.1,0.2,0.8,0.3,1.6,0.3h0.8c0.8,0,1.6-0.2,1.6-0.4c0.1-0.2-0.6-0.3-1.4-0.3L66.7,95.2
			L66.7,95.2z M36.2,84.5c-0.8,0-1.4,0.2-1.3,0.3c0.1,0.2,0.8,0.3,1.7,0.3h2.2c0.8,0,1.6-0.2,1.7-0.3c0.1-0.2-0.5-0.3-1.3-0.3H36.2
			L36.2,84.5z M93.3,79.4c-0.8-0.1-1.5,0-1.4,0.1c0,0.2,0.8,0.4,1.6,0.5l0.8,0.1c0.8,0.1,1.6,0.1,1.7-0.1s-0.5-0.4-1.3-0.5
			C94.6,79.5,93.3,79.4,93.3,79.4z M179.9,97.2c-0.8,0-1.5,0.2-1.4,0.3c0.1,0.2,0.8,0.3,1.6,0.3h0.8c0.8,0,1.6-0.2,1.6-0.4
			c0.1-0.2-0.6-0.3-1.4-0.3L179.9,97.2L179.9,97.2z M205.3,94.7c-0.8,0-1.5,0.2-1.4,0.3c0.1,0.2,0.8,0.3,1.6,0.3h0.8
			c0.8,0,1.6-0.2,1.6-0.4c0.1-0.2-0.6-0.3-1.4-0.3L205.3,94.7L205.3,94.7z M144.2,78.7c-0.8,0-1.3,0.1-1.1,0.3
			c0.2,0.2,1.1,0.3,1.9,0.3h8.9c0.8,0,1.7-0.2,1.9-0.4c0.2-0.2-0.3-0.3-1.1-0.3L144.2,78.7z M114,78.8c-0.8,0-1.3,0.1-1.1,0.3
			c0.2,0.2,1.1,0.3,1.9,0.3h9.3c0.8,0,1.7-0.2,1.9-0.4c0.2-0.2-0.3-0.3-1.1-0.3L114,78.8L114,78.8z M112.4,91.6
			c-0.8,0-1.4,0.2-1.3,0.3c0.1,0.2,0.9,0.3,1.7,0.3h3.7c0.8,0,1.6-0.2,1.7-0.4c0.1-0.2-0.5-0.3-1.3-0.3L112.4,91.6L112.4,91.6z
			 M120.5,91.6c-0.8,0-1.4,0.2-1.3,0.3c0.1,0.2,0.9,0.3,1.7,0.3h3.3c0.8,0,1.6-0.2,1.7-0.4c0.1-0.2-0.5-0.3-1.3-0.3L120.5,91.6
			L120.5,91.6z M137.9,104c-0.8,0-1.5,0.2-1.4,0.3c0.1,0.2,0.8,0.3,1.6,0.3l0,0c0.8,0,1.6-0.2,1.6-0.4c0.1-0.2-0.6-0.3-1.4-0.3
			L137.9,104L137.9,104z M135.5,83.3c-0.8-0.1-1.5,0-1.4,0.1c0.1,0.2,0.8,0.4,1.6,0.5l1.5,0.2c0.8,0.1,1.6,0.1,1.7-0.1
			s-0.5-0.4-1.3-0.5L135.5,83.3z M211.3,97.2c-0.8-0.1-1.5,0-1.4,0.1c0.1,0.2,0.8,0.4,1.6,0.5L213,98c0.8,0.1,1.6,0.1,1.7-0.1
			c0.1-0.2-0.5-0.4-1.3-0.5L211.3,97.2z M208.6,83.8c-0.6,0-1.1,0.2-1.1,0.4c0,0.2,0.5,0.3,1.1,0.3s1-0.2,1.1-0.4
			C209.7,83.9,209.2,83.7,208.6,83.8 M244.4,91.9c-0.8,0-1.4,0.2-1.3,0.3c0.1,0.2,0.9,0.3,1.7,0.3h3.3c0.8,0,1.6-0.2,1.7-0.4
			c0.1-0.2-0.5-0.3-1.3-0.3L244.4,91.9z M273.5,78.9c-0.8,0-1.4,0.2-1.4,0.3c0.1,0.2,0.8,0.3,1.7,0.3h1.5c0.8,0,1.6-0.2,1.7-0.4
			c0.1-0.2-0.5-0.3-1.4-0.3L273.5,78.9z M143,105.7c-0.8,0-1.4,0.2-1.2,0.3c0.2,0.2,1,0.3,1.8,0.3h5.7c0.8,0,1.6-0.2,1.8-0.4
			c0.2-0.2-0.4-0.3-1.2-0.3L143,105.7L143,105.7z M106,105.7c-0.8,0-1.3,0.1-1.1,0.3c0.2,0.2,1,0.3,1.9,0.3h8.4
			c0.8,0,1.7-0.2,1.9-0.4c0.2-0.2-0.3-0.3-1.1-0.3L106,105.7L106,105.7z M119.7,105.7c-0.8,0-1.4,0.2-1.3,0.3
			c0.1,0.2,0.9,0.3,1.7,0.3h3.2c0.8,0,1.6-0.2,1.7-0.4c0.1-0.2-0.5-0.3-1.3-0.3L119.7,105.7z M54.3,105.7c-0.8,0-1.4,0.2-1.4,0.3
			c0.1,0.2,0.8,0.3,1.6,0.3h1.4c0.8,0,1.6-0.2,1.6-0.4c0.1-0.2-0.5-0.3-1.4-0.3L54.3,105.7L54.3,105.7z"/>
	</g>
	<g id="Layer_3" class="st1">
		<path class="st12" d="M280.5,105.4v-4.9h-6.1v-7.7l-0.2,0.1l-5.7,1.8h-0.1v5.8h-9.1v-3.2c0-1.5,0.3-2.7,1-3.4
			c0.7-0.8,1.6-1.1,2.8-1.1c0.9,0,1.8,0.2,2.7,0.6l0.2,0.1v-5.2h-0.1c-0.8-0.3-2-0.5-3.4-0.5c-1.8,0-3.4,0.4-4.8,1.2
			c-1.4,0.8-2.5,1.9-3.3,3.3s-1.2,3-1.2,4.8v3.6h-4.3v4.9h4.3v20.7h6.1v-20.7h9.1v13.2c0,5.4,2.6,8.2,7.6,8.2c0.8,0,1.7-0.1,2.6-0.3
			c0.9-0.2,1.5-0.4,1.9-0.6h0.1v-5l-0.2,0.2c-0.3,0.2-0.7,0.4-1.2,0.5s-0.9,0.2-1.2,0.2c-1.2,0-2.1-0.3-2.6-0.9s-0.8-1.7-0.8-3.3
			v-12.1h5.9V105.4z M235.3,121.8c-2.2,0-4-0.7-5.2-2.2s-1.9-3.5-1.9-6.2s0.6-4.9,1.9-6.3c1.2-1.5,3-2.2,5.2-2.2
			c2.1,0,3.8,0.7,5,2.1s1.8,3.5,1.8,6.3s-0.6,4.9-1.7,6.4C239.2,121.1,237.5,121.8,235.3,121.8 M235.5,99.9c-4.2,0-7.6,1.2-10,3.7
			c-2.4,2.4-3.6,5.8-3.6,10.1c0,4,1.2,7.3,3.5,9.6c2.3,2.4,5.5,3.5,9.5,3.5c4.1,0,7.4-1.3,9.8-3.7c2.4-2.5,3.6-5.8,3.6-10
			c0-4.1-1.1-7.3-3.4-9.7C242.7,101.1,239.5,99.9,235.5,99.9 M212.1,99.9c-2.9,0-5.3,0.7-7.1,2.2s-2.8,3.4-2.8,5.7
			c0,1.2,0.2,2.3,0.6,3.2c0.4,0.9,1,1.7,1.8,2.4c0.8,0.7,2.1,1.4,3.7,2.1c1.4,0.6,2.4,1.1,3.1,1.4c0.6,0.4,1.1,0.8,1.4,1.1
			c0.3,0.4,0.4,0.8,0.4,1.5c0,1.7-1.3,2.6-3.9,2.6c-1,0-2.1-0.2-3.3-0.6s-2.4-1-3.4-1.7l-0.3-0.2v5.9h0.1c0.9,0.4,2,0.7,3.2,1
			c1.3,0.3,2.4,0.4,3.5,0.4c3.1,0,5.6-0.7,7.5-2.2c1.8-1.5,2.8-3.4,2.8-5.8c0-1.7-0.5-3.2-1.5-4.4c-1-1.2-2.7-2.3-5.1-3.2
			c-1.9-0.8-3.1-1.4-3.6-1.9s-0.7-1.1-0.7-2c0-0.7,0.3-1.3,0.9-1.8c0.6-0.5,1.5-0.7,2.6-0.7c1,0,2.1,0.2,3.1,0.5s1.9,0.7,2.7,1.3
			l0.2,0.2V101h-0.1c-0.7-0.3-1.6-0.6-2.7-0.8C214,100,213,99.9,212.1,99.9 M186.3,121.8c-2.2,0-4-0.7-5.2-2.2s-1.9-3.5-1.9-6.2
			s0.6-4.9,1.9-6.3c1.2-1.5,3-2.2,5.1-2.2s3.8,0.7,5,2.1s1.8,3.5,1.8,6.3s-0.6,4.9-1.7,6.4C190.2,121.1,188.5,121.8,186.3,121.8
			 M186.6,99.9c-4.2,0-7.6,1.2-10,3.7c-2.4,2.4-3.6,5.8-3.6,10.1c0,4,1.2,7.3,3.5,9.6c2.3,2.4,5.5,3.5,9.5,3.5
			c4.1,0,7.4-1.3,9.8-3.7c2.4-2.5,3.6-5.8,3.6-10c0-4.1-1.1-7.3-3.4-9.7C193.7,101.1,190.6,99.9,186.6,99.9 M163.7,104.9v-4.4h-6
			v25.7h6V113c0-2.2,0.5-4.1,1.5-5.5s2.3-2.1,3.9-2.1c0.5,0,1.2,0.1,1.8,0.3c0.7,0.2,1.1,0.4,1.4,0.6l0.3,0.2v-6.1h-0.1
			c-0.6-0.2-1.4-0.4-2.4-0.4c-1.5,0-2.9,0.5-4,1.4C165.1,102.3,164.3,103.5,163.7,104.9L163.7,104.9z M146.8,99.9
			c-2.8,0-5.2,0.6-7.3,1.8c-2.1,1.2-3.7,2.8-4.8,5c-1.1,2.1-1.7,4.6-1.7,7.4c0,2.4,0.5,4.7,1.6,6.6c1.1,2,2.6,3.5,4.5,4.6
			s4.1,1.6,6.6,1.6c2.9,0,5.3-0.6,7.3-1.7h0.1v-5.5l-0.3,0.2c-0.9,0.6-1.9,1.2-3,1.5c-1.1,0.4-2,0.6-2.9,0.6c-2.4,0-4.3-0.7-5.7-2.2
			s-2.1-3.5-2.1-6.1s0.7-4.7,2.2-6.3c1.4-1.6,3.3-2.3,5.7-2.3c2,0,3.9,0.7,5.7,2l0.3,0.2v-5.8h-0.1c-0.7-0.4-1.6-0.7-2.8-0.9
			C149,100,147.9,99.9,146.8,99.9 M128.8,100.5h-6v25.7h6V100.5L128.8,100.5z M125.9,89.6c-1,0-1.9,0.3-2.6,1s-1.1,1.5-1.1,2.5
			s0.4,1.8,1.1,2.5s1.6,1,2.6,1s1.9-0.3,2.6-1s1.1-1.5,1.1-2.5s-0.4-1.8-1.1-2.5C127.8,89.9,126.9,89.6,125.9,89.6 M110.8,98.6v27.6
			h6.2V90.3h-8.5l-10.8,26.6L87.1,90.3h-8.9v35.8H84V98.6h0.2l11.1,27.6h4.4l10.9-27.6H110.8L110.8,98.6z"/>
		<path class="st13" d="M28.9,106.8H0.5V78.4h28.4V106.8z"/>
		<path class="st14" d="M60.3,106.8H31.9V78.4h28.4V106.8L60.3,106.8z"/>
		<path class="st15" d="M28.9,138.2H0.5v-28.4h28.4V138.2z"/>
		<path class="st16" d="M60.3,138.2H31.9v-28.4h28.4V138.2L60.3,138.2z"/>
	</g>
</g>
<g id="Layer_2" class="st0">
	<path class="st17" d="M105.3,94c0-8.6-2.4-13-7.3-13.2c-1.9-0.1-3.8,0.2-5.7,0.9c-1.5,0.5-2.5,1.1-3,1.6v20.5
		c3.1,2,5.9,2.9,8.3,2.7C102.7,106.1,105.3,102,105.3,94z M111.3,94.3c0,4.4-1,8-3.1,10.9c-2.3,3.3-5.5,4.9-9.5,5
		c-3.1,0.1-6.2-0.9-9.4-2.9V126l-5.2-1.9V82.7c0.9-1.1,2-2,3.3-2.7c3.1-1.8,6.9-2.8,11.4-2.8l0.1,0.1c4.1-0.1,7.2,1.6,9.4,5
		C110.3,85.4,111.3,89.4,111.3,94.3L111.3,94.3z M143.3,106.5c0,5.9-0.6,9.9-1.8,12.2c-1.2,2.3-3.4,4.1-6.7,5.4
		c-2.7,1.1-5.6,1.6-8.7,1.7l-0.9-3.3c3.2-0.4,5.4-0.9,6.7-1.3c2.5-0.9,4.3-2.2,5.2-4c0.8-1.4,1.1-4.2,1.1-8.3v-1.4
		c-3.6,1.6-7.3,2.4-11.2,2.4c-2.6,0-4.8-0.8-6.8-2.4c-2.2-1.8-3.3-4-3.3-6.8V79l5.2-1.8v22c0,2.4,0.8,4.2,2.3,5.4
		c1.5,1.3,3.5,1.9,5.9,1.8c2.4-0.1,5-1,7.7-2.8V78h5.2L143.3,106.5L143.3,106.5z M163.7,109.9c-0.6,0-1.1,0.1-1.7,0.1
		c-3,0-5.3-0.7-6.9-2.1c-1.6-1.4-2.5-3.4-2.5-5.9V81.3H149V78h3.6v-8.8l5.2-1.9V78h5.9v3.3h-5.9v20.5c0,2,0.5,3.4,1.6,4.2
		c0.9,0.7,2.3,1.1,4.3,1.2L163.7,109.9L163.7,109.9z M195.4,109.5h-5.2V89.2c0-2.1-0.5-3.8-1.4-5.3c-1.1-1.7-2.6-2.5-4.6-2.5
		c-2.4,0-5.4,1.3-9,3.8v24.3h-5.2V61l5.2-1.7v22.1c3.3-2.4,7-3.7,11-3.7c2.8,0,5,0.9,6.7,2.8c1.7,1.9,2.6,4.2,2.6,7L195.4,109.5
		L195.4,109.5L195.4,109.5z M223.2,93.1c0-3.3-0.6-6-1.9-8.2c-1.5-2.6-3.8-4-6.9-4.2c-5.7,0.3-8.6,4.5-8.6,12.4
		c0,3.6,0.6,6.7,1.8,9.1c1.5,3.1,3.8,4.6,6.9,4.6C220.3,106.8,223.2,102.2,223.2,93.1L223.2,93.1z M228.9,93.2
		c0,4.7-1.2,8.6-3.6,11.7c-2.6,3.5-6.3,5.2-10.9,5.2c-4.6,0-8.2-1.8-10.8-5.2c-2.3-3.1-3.5-7-3.5-11.7c0-4.4,1.3-8.1,3.8-11.2
		c2.7-3.2,6.2-4.8,10.5-4.8c4.3,0,7.9,1.6,10.6,4.8C227.7,85,228.9,88.8,228.9,93.2L228.9,93.2z M258.9,109.5h-5.2V88.1
		c0-2.4-0.7-4.2-2.1-5.5c-1.4-1.3-3.3-2-5.6-1.9c-2.5,0-4.8,0.9-7.1,2.4v26.4h-5.2v-27c3-2.2,5.8-3.6,8.3-4.3
		c2.4-0.6,4.5-0.9,6.3-0.9c1.2,0,2.4,0.1,3.5,0.4c2.1,0.5,3.7,1.4,5,2.7c1.4,1.4,2.2,3.2,2.2,5.2L258.9,109.5L258.9,109.5z"/>
	
		<linearGradient id="SVGID_1_" gradientUnits="userSpaceOnUse" x1="-2571.4744" y1="520.7523" x2="-2559.3059" y2="531.2216" gradientTransform="matrix(2.9618 0 0 2.9907 7614.6299 -1494.2257)">
		<stop  offset="0" style="stop-color:#5A9FD4"/>
		<stop  offset="1" style="stop-color:#306998"/>
	</linearGradient>
	<path class="st18" d="M32.4,61.2c-2.7,0-5.3,0.2-7.5,0.6C18.2,63,17,65.5,17,70.1v6h15.7v2H11.1c-4.6,0-8.6,2.8-9.8,8
		c-1.4,6-1.5,9.8,0,16.1c1.1,4.7,3.8,8,8.4,8H15V103c0-5.2,4.5-9.8,9.8-9.8h15.7c4.4,0,7.9-3.6,7.9-8V70.1c0-4.3-3.6-7.5-7.9-8.2
		C37.9,61.4,35.1,61.2,32.4,61.2L32.4,61.2z M23.9,66.1c1.6,0,3,1.4,3,3c0,1.7-1.3,3-3,3c-1.6,0-3-1.3-3-3
		C20.9,67.4,22.2,66.1,23.9,66.1L23.9,66.1z"/>
	
		<linearGradient id="SVGID_00000075848559483760750390000007277839633537648537_" gradientUnits="userSpaceOnUse" x1="-2554.5984" y1="537.5879" x2="-2558.9517" y2="531.4286" gradientTransform="matrix(2.9618 0 0 2.9907 7614.6299 -1494.2257)">
		<stop  offset="0" style="stop-color:#FFD43B"/>
		<stop  offset="1" style="stop-color:#FFE873"/>
	</linearGradient>
	<path style="display:inline;fill:url(#SVGID_00000075848559483760750390000007277839633537648537_);" d="M50.4,78.1v7
		c0,5.4-4.6,10-9.8,10H24.8c-4.3,0-7.9,3.7-7.9,8v15.1c0,4.3,3.7,6.8,7.9,8c5,1.5,9.8,1.7,15.7,0c4-1.2,7.9-3.5,7.9-8v-6H32.7v-2
		h23.6c4.6,0,6.3-3.2,7.9-8c1.6-5,1.6-9.7,0-16.1c-1.1-4.6-3.3-8-7.9-8H50.4z M41.6,116.2c1.6,0,3,1.3,3,3c0,1.7-1.3,3-3,3
		c-1.6,0-3-1.4-3-3C38.6,117.6,39.9,116.2,41.6,116.2z"/>
	<path class="st17" d="M269.1,73.3h0.9v-5.8h2.2v-0.7h-5.3v0.7h2.2L269.1,73.3 M273,73.3h0.8V68l1.7,5.3h0.9l1.8-5.3v5.3h0.9v-6.5
		h-1.1l-1.9,5.5l-1.7-5.5H273L273,73.3"/>
	
		<radialGradient id="SVGID_00000078767031253055737290000004041479479108394400_" cx="-4120.3286" cy="363.5161" r="3.2515" gradientTransform="matrix(0 -1.2632 5.5313 0 -1977.8187 -5068.2075)" gradientUnits="userSpaceOnUse">
		<stop  offset="0" style="stop-color:#B8B8B8;stop-opacity:0.498"/>
		<stop  offset="1" style="stop-color:#7F7F7F;stop-opacity:0"/>
	</radialGradient>
	
		<path style="display:inline;opacity:0.444;fill:url(#SVGID_00000078767031253055737290000004041479479108394400_);enable-background:new    ;" d="
		M54,136.5c0,2.3-9.4,4.1-21.1,4.1c-11.7,0-21.1-1.8-21.1-4.1s9.4-4.1,21.1-4.1C44.6,132.4,54,134.3,54,136.5z"/>
</g>
<g id="Layer_3_00000026156641034798885900000001794625649724905395_" class="st0">
	<path class="st1" d="M224.3,82.1c4.5-13.4,2.9-28.1-4.2-40.3c-10.7-18.7-32.3-28.3-53.4-23.8c-9.4-10.6-22.9-16.6-37-16.5
		C108.1,1.5,89,15.4,82.4,35.9c-13.9,2.8-25.8,11.5-32.8,23.8c-10.8,18.7-8.4,42.2,6.1,58.2c-4.5,13.4-2.9,28.1,4.2,40.3
		c10.7,18.7,32.3,28.3,53.4,23.8c9.4,10.6,22.9,16.6,37,16.5c21.6,0.1,40.7-13.8,47.3-34.4c13.9-2.8,25.8-11.5,32.8-23.8
		C241.3,121.6,238.8,98.1,224.3,82.1L224.3,82.1z M150.3,185.6c-8.6,0-17-3-23.6-8.5c0.3-0.2,0.8-0.5,1.2-0.7l39.2-22.6
		c2-1.1,3.2-3.3,3.2-5.6V92.9l16.6,9.6c0.2,0.1,0.3,0.3,0.3,0.5v45.8C187.2,169,170.7,185.5,150.3,185.6z M71,151.7
		c-4.3-7.5-5.9-16.2-4.4-24.7c0.3,0.2,0.8,0.5,1.2,0.7l39.2,22.6c2,1.2,4.5,1.2,6.4,0l47.9-27.6v19.1c0,0.2-0.1,0.4-0.2,0.5
		l-39.6,22.9C103.8,175.4,81.2,169.4,71,151.7L71,151.7z M60.7,66.1c4.3-7.5,11.1-13.2,19.2-16.2c0,0.3,0,0.9,0,1.4v45.3
		c0,2.3,1.2,4.4,3.2,5.6l47.9,27.6l-16.6,9.6c-0.2,0.1-0.4,0.1-0.6,0.1l-39.6-22.9C56.6,106.3,50.6,83.8,60.7,66.1z M196.9,97.8
		L149,70.2l16.6-9.6c0.2-0.1,0.4-0.1,0.6-0.1l39.6,22.9c17.7,10.2,23.7,32.8,13.5,50.4c-4.3,7.5-11.1,13.2-19.2,16.2v-46.7
		C200.1,101.1,198.9,99,196.9,97.8z M213.4,73c-0.3-0.2-0.8-0.5-1.2-0.7L173,49.6c-2-1.2-4.5-1.2-6.4,0l-47.9,27.6V58.1
		c0-0.2,0.1-0.4,0.2-0.5l39.6-22.9c17.7-10.2,40.2-4.1,50.4,13.5C213.3,55.8,214.8,64.5,213.4,73L213.4,73z M109.7,107.1l-16.6-9.6
		c-0.2-0.1-0.3-0.3-0.3-0.5V51.3c0-20.4,16.5-36.9,36.9-36.9c8.6,0,17,3,23.6,8.5c-0.3,0.2-0.8,0.5-1.2,0.7l-39.2,22.6
		c-2,1.1-3.2,3.3-3.2,5.6L109.7,107.1z M118.7,87.7L140,75.4l21.3,12.3v24.6L140,124.6l-21.3-12.3L118.7,87.7z"/>
</g>
<g id="Layer_4" class="st0">
	<path class="st21" d="M165.1,82.2L165.1,82.2c-0.1,0-0.3,0-0.4,0c-0.1,0-0.3,0-0.4,0c-8.3,0-13.5,5.2-13.5,13.6v4.1
		c0,8,5.2,13,13.6,13c0.2,0,0.3,0,0.5,0c0.1,0,0.2,0,0.3,0c5.6,0,9.5-2.1,12-6.3l-5-2.9c-1.7,2.4-3.9,4.3-7,4.3
		c-4.2,0-6.8-2.6-6.8-7v-1.2h19.7V95C178.1,87.2,173,82.2,165.1,82.2L165.1,82.2z M164.7,87c3.9,0.2,6.2,2.8,6.2,7v1.2h-12.5v-0.7
		C158.4,89.8,160.6,87.2,164.7,87L164.7,87z M134.1,82.2c-3.7,0-6.9,1.5-8.6,4.1l-0.4,0.7v-4.1h-7v39.4h7.4v-13.8l0.4,0.6
		c1.6,2.4,4.7,3.8,8.3,3.8h0.3c6.1,0,12.2-4,12.2-12.9v-5c0-6.4-3.8-12.9-12.3-12.9l0,0h-0.2L134.1,82.2z M132.4,87.8
		c4.3,0.1,7,3,7,7.7v4.3c0,4.7-2.7,7.6-7,7.7c-4-0.1-6.9-3.2-6.9-7.5v-4.4C125.4,91,128.3,87.9,132.4,87.8L132.4,87.8z M228.2,72.5
		L214,112.2h8l2.7-8.5h15.5v0.1l2.7,8.4h8l-14.3-39.8h-0.8l0,0L228.2,72.5z M232.5,79.3l5.9,18.8h-11.9L232.5,79.3z M279.6,78.1
		v-5.6h-24.4v5.6h8.6v28.5h-8.6v5.6h24.4v-5.6h-8.6V78.1H279.6z M199.3,82.2H199c-4.1,0-7.1,1.4-8.5,4.1l-0.4,0.8v-4.2h-7v29.3h7.4
		V94.8c0-4.1,2.2-6.5,6-6.5c3.7,0.1,5.8,2.4,5.8,6.4v17.6h7.4V93.3C209.6,86.4,205.7,82.2,199.3,82.2L199.3,82.2z M94.3,71.7
		c-10.9,0-17.7,6.8-17.7,17.7v5.9c0,10.9,6.8,17.7,17.7,17.7h0.3c10.9,0,17.7-6.8,17.7-17.7v-5.9c0-10.9-6.8-17.7-17.7-17.7H94.3z
		 M94.4,77.6c6.5,0.1,10.2,4.2,10.2,11.4v6.7c0,7.2-3.7,11.3-10.2,11.4c-6.5-0.1-10.2-4.2-10.2-11.4V89
		C84.2,81.8,87.9,77.7,94.4,77.6L94.4,77.6z M30,55.4c-7.5,0-14.2,4.8-16.6,12C4,69.4-2,78.6,0,88c0.6,3,2,5.8,4.1,8.1
		c-1.6,4.7-1,9.8,1.5,14.1c3.8,6.6,11.3,9.9,18.7,8.4c3.3,3.7,8,5.8,12.9,5.8c7.5,0,14.2-4.8,16.6-12c4.8-1,9-4,11.5-8.3
		c3.8-6.5,2.9-14.8-2.1-20.3v0c1.6-4.7,1-9.8-1.5-14.1c-3.8-6.5-11.3-9.9-18.7-8.3C39.7,57.5,34.9,55.4,30,55.4z M30,59.9L30,59.9
		c3,0,5.9,1.1,8.3,3c-0.1,0-0.3,0.2-0.4,0.2L24.1,71c-0.7,0.4-1.1,1.2-1.1,2v18.6l-5.9-3.4V72.8C17.1,65.7,22.9,59.9,30,59.9
		L30,59.9z M46.5,65.3c7.1,0,12.9,5.8,12.9,12.9c0,0.7-0.1,1.5-0.2,2.2c-0.1-0.1-0.3-0.2-0.4-0.2l-13.7-7.9c-0.7-0.4-1.6-0.4-2.3,0
		l-16.1,9.3v-6.8L40.1,67C42,65.9,44.3,65.3,46.5,65.3L46.5,65.3z M12.6,72.3v16.3c0,0.8,0.4,1.6,1.1,2l16.1,9.3l-5.9,3.4l-13.3-7.7
		C4.4,92,2.3,84.1,5.9,78C7.4,75.4,9.8,73.4,12.6,72.3L12.6,72.3z M43.3,76.4L56.6,84c6.2,3.6,8.3,11.4,4.7,17.6c0,0,0,0,0,0l0,0
		c-1.5,2.6-3.9,4.6-6.7,5.6V91c0-0.8-0.4-1.6-1.1-2l-16.1-9.3L43.3,76.4z M33.6,82l6.8,3.9v7.8l-6.8,3.9l-6.8-3.9v-7.8L33.6,82z
		 M44.2,88.1l5.9,3.4v15.3c0,7.1-5.8,12.9-12.9,12.9v0c-3,0-5.9-1.1-8.3-3c0.1,0,0.3-0.2,0.4-0.2l13.7-7.9c0.7-0.4,1.1-1.1,1.1-2
		L44.2,88.1z M40.4,98.2v6.8l-13.3,7.7c-6.2,3.6-14.1,1.4-17.6-4.7h0c-1.5-2.6-2.1-5.7-1.5-8.6c0.1,0.1,0.3,0.2,0.4,0.2l13.7,7.9
		c0.7,0.4,1.6,0.4,2.3,0L40.4,98.2z"/>
</g>
<g id="Layer_5" class="st0">
	<g class="st1">
		<path class="st22" d="M36.3,76l-3.8,3.8c6.2,6.2,6.2,16.1,0,22.2c-6.2,6.2-16.1,6.2-22.2,0c-6.2-6.2-6.2-16.1,0-22.2l9.8-9.8
			l1.4-1.4v-7.4L6.7,76c-8.2,8.2-8.2,21.5,0,29.8s21.5,8.2,29.6,0C44.5,97.5,44.5,84.2,36.3,76z"/>
		<circle class="st22" cx="28.9" cy="72.3" r="2.7"/>
		<path d="M74.5,94.9h-6.4v16.3h-4.8V64.8c0,0,11,0,11.7,0c12.2,0,18,6,18,14.4C93.2,89.6,86,94.9,74.5,94.9z M75,69.4
			c-0.5,0-6.7,0-6.7,0v21.4l6.5-0.2c8.8-0.2,13.6-3.6,13.6-10.8C88.4,73,83.6,69.4,75,69.4z"/>
		<path d="M114.5,111l-2.7,7.4c-3.1,8.2-6.4,10.6-11,10.6c-2.6,0-4.5-0.7-6.5-1.5l1.4-4.3c1.5,0.9,3.3,1.5,5.2,1.5
			c2.6,0,4.5-1.4,7-7.9l2.2-6L96.9,77.3h5l10.6,28.1L123,77.3h4.8L114.5,111z"/>
		<path d="M143.5,69.4v42h-4.8v-42h-16.3v-4.5h37.3v4.5C159.6,69.4,143.5,69.4,143.5,69.4z"/>
		<path d="M173.2,112.2c-9.5,0-16.3-7-16.3-17.9s7.2-18,16.8-18s16.3,7,16.3,17.9C189.9,105,182.7,112.2,173.2,112.2z M173.4,80.6
			c-7.2,0-11.9,5.7-11.9,13.7c0,8.2,4.8,13.9,12,13.9c7.2,0,11.9-5.7,11.9-13.7C185.4,86.1,180.6,80.6,173.4,80.6z"/>
		<path d="M201.6,111.4H197V77.3l4.6-1v7.2c2.2-4.3,5.5-7.2,10-7.2c2.2,0,4.3,0.7,6,1.5l-1.2,4.3c-1.5-0.9-3.3-1.5-5.2-1.5
			c-3.6,0-6.9,2.7-9.6,8.8L201.6,111.4L201.6,111.4z"/>
		<path d="M235.7,112.2c-10.3,0-16.7-7.4-16.7-17.9c0-10.6,7-18,16.7-18c4.1,0,7.7,1,10.6,2.9l-1.2,4.1c-2.6-1.7-5.8-2.7-9.5-2.7
			c-7.4,0-11.9,5.5-11.9,13.6c0,8.2,4.8,13.7,12,13.7c3.4,0,6.9-1,9.5-2.7l1,4.3C243.2,111.2,239.6,112.2,235.7,112.2z"/>
		<path d="M274.7,111.4v-22c0-6-2.4-8.6-7.2-8.6c-4,0-7.7,2.1-10.5,4.8v25.8h-4.6V61.3l4.6-1c0,0,0,21.4,0,21.5
			c3.6-3.6,8.1-5.3,11.9-5.3c6.5,0,10.6,4.3,10.6,11.7v23.3L274.7,111.4L274.7,111.4L274.7,111.4z"/>
	</g>
</g>
<g id="Layer_6" class="st0">
	<g class="st1">
		
			<linearGradient id="SVGID_00000128477722948575566760000012951152271192367242_" gradientUnits="userSpaceOnUse" x1="-814.0345" y1="642.6527" x2="-813.2977" y2="642.6527" gradientTransform="matrix(106.753 107.11 107.11 -106.753 18125.9844 155851.7656)">
			<stop  offset="0" style="stop-color:#387EB8"/>
			<stop  offset="1" style="stop-color:#366994"/>
		</linearGradient>
		<path style="fill:url(#SVGID_00000128477722948575566760000012951152271192367242_);" d="M123.9,41.2c-40.4,0-37.9,17.5-37.9,17.5
			l0,18.1h38.5v5.4H70.8c0,0-25.8-2.9-25.8,37.8s22.6,39.3,22.6,39.3H81v-18.9c0,0-0.7-22.6,22.2-22.6h38.2c0,0,21.5,0.3,21.5-20.8
			V62.3C162.9,62.3,166.1,41.2,123.9,41.2z M102.7,53.4c3.8,0,6.9,3.1,6.9,6.9s-3.1,6.9-6.9,6.9c-3.8,0-6.9-3.1-6.9-6.9
			S98.9,53.4,102.7,53.4z"/>
		
			<linearGradient id="SVGID_00000155847123955601156110000008039059378338195897_" gradientUnits="userSpaceOnUse" x1="-814.3923" y1="642.4705" x2="-813.6555" y2="642.4705" gradientTransform="matrix(114.653 109.843 109.843 -114.653 22909.9023 163222.1406)">
			<stop  offset="0" style="stop-color:#FFE052"/>
			<stop  offset="1" style="stop-color:#FFC331"/>
		</linearGradient>
		<path style="fill:url(#SVGID_00000155847123955601156110000008039059378338195897_);" d="M125.1,199.5c40.4,0,37.9-17.5,37.9-17.5
			l0-18.1h-38.5v-5.4h53.8c0,0,25.8,2.9,25.8-37.8s-22.6-39.3-22.6-39.3H168v18.9c0,0,0.7,22.6-22.2,22.6h-38.2
			c0,0-21.5-0.3-21.5,20.8v34.9C86.1,178.4,82.9,199.5,125.1,199.5z M146.3,187.3c-3.8,0-6.9-3.1-6.9-6.9c0-3.8,3.1-6.9,6.9-6.9
			s6.9,3.1,6.9,6.9C153.3,184.2,150.2,187.3,146.3,187.3z"/>
		<path class="st25" d="M170.9,78.1l-2.8-2.6l0-33.1c0-32.6,0-33.1,0.8-35.3c1.7-4.6,4.3-6.2,10.9-6.6c3.9-0.2,5.1-0.1,29.7,4
			L235,8.8v27.3c0,21-0.1,27.7-0.5,29c-0.6,2-2.6,4.7-4.2,5.6c-0.8,0.5-10.2,2.2-28.1,5.2c-14.8,2.5-27.3,4.6-27.7,4.7
			C174,80.7,172.9,79.9,170.9,78.1L170.9,78.1z M206.6,69.1c0.9,0,0.9-0.1,0.9-2.5c0-2.3-0.1-2.5-0.8-2.5c-1.4,0-2.7-0.9-3.4-2.4
			c-0.4-0.8-0.6-1.6-0.5-1.6c0.1-0.1,1-0.6,2-1.2c5-2.9,7.3-9.4,7.3-20.9c0-13.9-3.5-20.5-11.8-22.2c-2.6-0.5-5.6-0.2-7.9,0.8
			c-3.5,1.5-6.1,5.5-7.4,11.3c-0.9,4.1-0.9,15.4,0,19.7c1.4,6.4,4.6,11.1,8.5,12.4c1.4,0.5,1.6,0.7,2.2,2.7c0.9,3,1.8,4.5,3.1,5.4
			c1.3,1,4,1.6,5.6,1.3C205.1,69.1,206.1,69.1,206.6,69.1z M197.8,54.5c-1.2-0.6-2.6-2.7-3.1-4.5c-1.6-6.1-1.5-21.1,0.2-25.4
			c0.8-2,2.6-3.5,4.1-3.5c1.6,0,3.7,2,4.5,4.3c1.4,4.1,1.6,17.8,0.4,23.5C202.8,53.5,200.3,55.8,197.8,54.5z M223.9,57.3
			c3.7-0.8,3.9-1,3.9-3.4c0-1.8-0.1-2.1-0.7-1.9c-2.3,0.7-2.9,0.7-3.6,0c-0.7-0.7-0.8-1.3-0.8-10.8V31.2h4.7v-4.6l-4.7-0.5v-3.7
			c0-2-0.1-3.7-0.3-3.8c-0.2-0.1-1.2-0.2-2.2-0.3l-1.9-0.1l-0.7,2.7c-0.4,1.5-0.8,3.2-0.9,3.8c-0.2,0.9-0.4,1.1-1.6,1.1h-1.4v5.1
			h2.3v11.3c0,13.9,0.2,14.4,4.5,15.3C221.8,57.8,222,57.7,223.9,57.3z"/>
		<path class="st26" d="M170.7,77.7l-2.2-2.3V42.2c0-24.2,0.1-33.7,0.5-34.8c0.6-1.9,2.7-4.4,4.6-5.4c0.8-0.4,2.7-0.9,4.2-1
			c2-0.2,2.4-0.1,1.8,0.2c-1.9,0.8-3.6,2.5-4.7,4.6L173.7,8l-0.1,36c-0.1,19.8-0.2,36-0.4,36S171.9,79,170.7,77.7L170.7,77.7z
			 M198.4,69c-1.8-0.5-3.9-2.7-4.8-5.2c-0.4-1.1-0.8-2.3-1-2.7c-0.2-0.5-0.9-1-1.9-1.3c-3.5-1-6.7-5.7-8.2-11.8
			c-1-4.3-1-17.4,0-21.3c1.6-5.9,4.6-9.7,8.6-10.9c2.6-0.8,4.1-0.7,2,0.1c-3.7,1.3-6.4,4.8-8,10.5c-0.8,2.8-0.9,3.9-0.9,11.3
			c0,7.1,0.1,8.6,0.9,11.2c1.6,5.8,4,9.1,7.8,10.9c1.8,0.8,2.1,1.1,2.4,2.5c0.9,3.3,2.7,5.7,5,6.7c0.8,0.4,0.9,0.5,0.3,0.5
			C200.2,69.4,199.2,69.2,198.4,69L198.4,69z M216.9,57.2c-3.1-1.1-3.6-3.3-3.6-16.5c0-8.9-0.1-9.9-0.7-10c-0.5-0.1-0.8-0.8-1.1-2.5
			c-0.3-1.3-0.4-2.5-0.3-2.6c0.1-0.2,0.6-0.3,1.1-0.3c0.9,0,1,0.1,1,2.7v2.7h2.3l0.1,11.4c0.1,12.7,0.2,13.2,2.8,14.8
			c1,0.6,1.1,0.8,0.5,0.7C218.6,57.7,217.6,57.5,216.9,57.2L216.9,57.2z M199,53.5c2.2-2.3,3-6.6,3-16c0-8.9-1.1-14-3.3-15.6
			c-0.8-0.6-0.8-0.6,0.4-0.6c4,0,5.5,5.5,5.1,18.9c-0.2,7.5-0.7,10.4-2.1,12.5c-0.6,1-2.1,1.7-3.4,1.7C198,54.6,198,54.6,199,53.5z
			 M224.5,51.9c0.4-0.2,1.3-0.3,2-0.3c1,0,1.1,0.1,0.4,0.3c-0.4,0.2-1.3,0.3-2,0.3C223.9,52.2,223.8,52.2,224.5,51.9L224.5,51.9z
			 M214.3,24.9c1.7-7.5,1.5-6.9,2.7-6.9c1,0,1.1,0.1,0.9,0.9c-0.1,0.5-0.5,2.2-0.9,3.9c-0.6,3-0.7,3-1.8,3
			C214.2,25.7,214.1,25.6,214.3,24.9z"/>
	</g>
</g>
<g id="Layer_7" class="st0">
	<path class="st27" d="M153.2,31.4v30.5L206,92.4V61.9L153.2,31.4z M47.6,61.9v30.5L74,107.6V77.1L47.6,61.9z M126.8,77.1
		l-26.4,15.2v91.4l26.4,15.2v-60.9l26.4,15.2v-30.5l-26.4-15.2V77.1z"/>
	<path class="st28" d="M153.2,31.4L74,77.1v30.5l52.8-30.5v30.5l26.4-15.2V31.4z M232.4,46.7L206,61.9v30.5l26.4-15.2V46.7z
		 M179.6,107.6l-26.4,15.2v30.5l26.4-15.2V107.6z M153.2,153.3l-26.4-15.2V199l26.4-15.2V153.3z"/>
	<path class="st29" d="M153.2,1L47.6,61.9L74,77.1l79.2-45.7L206,61.9l26.4-15.2L153.2,1z M153.2,92.4l-26.4,15.2l26.4,15.2
		l26.4-15.2L153.2,92.4z"/>
</g>
<g id="Layer_8" class="st0">
	<g transform="matrix(2.64162 0 0 -2.64162 443.384 829.33)" class="st1">
		<g>
			<path class="st30" d="M-117.3,272.5h5v18.7h-5V272.5z"/>
			<path class="st30" d="M-90.8,291.2v-3.9h6.2v-14.8h5v14.8h6.2v3.9H-90.8z"/>
			<path class="st30" d="M-97.7,283.8h-4.1c-1.1,0-2,0.5-2,1.7c0,1.3,0.9,1.8,2,1.8h8.9v3.9h-9.5c-3.6,0-6.4-2-6.4-5.6
				c0-3.6,2.9-5.6,6.4-5.6h4.3c1.1,0,2-0.5,2-1.8c0-1.3-0.9-1.7-2-1.7h-10v-3.9h10.5c3.6,0,6.4,2,6.4,5.6
				C-91.3,281.8-94.2,283.8-97.7,283.8"/>
			<path class="st30" d="M-132.4,291.2l-7-16.8l-6.7,7.5l8.4,9.3h-5.7l-7.9-8.9v8.9h-5v-18.7h5v8.9l7.9-8.9h8.3l5.7,14.1l4.1-10.3
				h-6.6l1.6-3.7h11.6l-7.8,18.7H-132.4L-132.4,291.2z"/>
		</g>
		
			<linearGradient id="SVGID_00000062188828541494097460000005827451983676565438_" gradientUnits="userSpaceOnUse" x1="-453.2996" y1="134.7642" x2="-352.1955" y2="134.7642" gradientTransform="matrix(7.316 0 0 7.316 3148.479 -721.2281)">
			<stop  offset="0" style="stop-color:#69C5F0"/>
			<stop  offset="5.000000e-02" style="stop-color:#69C5F0"/>
			<stop  offset="0.38" style="stop-color:#3F88D0"/>
			<stop  offset="0.5" style="stop-color:#3F88D0"/>
			<stop  offset="0.73" style="stop-color:#2C61B5"/>
			<stop  offset="0.95" style="stop-color:#2C61B5"/>
			<stop  offset="1" style="stop-color:#2C61B5"/>
		</linearGradient>
		<path style="fill:url(#SVGID_00000062188828541494097460000005827451983676565438_);" d="M-167.8,264.7c17.3-2.5,35-3.7,53-3.7
			s35.7,1.3,53,3.7c-17.3,2.5-35,3.7-53,3.7S-150.5,267.2-167.8,264.7"/>
	</g>
</g>
<g id="Layer_9" class="st0">
	<polygon class="st32" points="50.6,39.7 76.2,14.1 229.6,14.1 229.6,160.2 203.9,185.9 50.7,185.9 	"/>
	<polygon class="st33" points="100.6,114.7 96.9,114.7 96.9,112.1 100.3,112.1 100.3,110.5 96.9,110.5 96.9,108 100.5,108 
		100.5,106.5 95.3,106.5 95.3,116.2 100.6,116.2 	"/>
	<polygon class="st33" points="145.4,108 145.4,106.5 140.2,106.5 140.2,116.2 145.5,116.2 145.5,114.7 141.8,114.7 141.8,112.1 
		145.3,112.1 145.3,110.5 141.8,110.5 141.8,108 	"/>
	<polygon class="st33" points="86.7,112.2 91.1,112.2 91.1,116.2 92.6,116.2 92.6,106.5 91.1,106.5 91.1,110.6 86.7,110.6 
		86.7,106.5 85.1,106.5 85.1,116.2 86.7,116.2 	"/>
	<path class="st33" d="M109.9,116.3c1.1,0.1,2.2-0.3,3-1.1c0.7-0.8,1-1.8,1-2.9v-5.9h-1.6v5.7c0.1,0.7-0.1,1.4-0.5,2
		c-0.5,0.5-1.2,0.7-1.9,0.7c-0.6,0-1.3-0.3-1.7-0.7c-0.4-0.5-0.6-1.2-0.5-1.8v-5.7h-1.5v6c-0.1,1.1,0.4,2.2,1.2,2.9
		C108.2,116.1,109,116.4,109.9,116.3z"/>
	<path class="st33" d="M124.3,116.2v-9.7h-1.5v7c-0.2-0.2-5.5-7-5.5-7h-1.2v9.7h1.5v-6.9c0.2,0.2,5.4,6.9,5.4,6.9H124.3z"/>
	<path class="st33" d="M138.3,106.5h-1.6c0,0-2.3,6.1-2.4,6.3l-2.4-6.3h-1.6l3.8,9.8h0.5L138.3,106.5z"/>
	<path class="st33" d="M153.4,116.2h1.8l-0.3-0.4c-0.5-0.8-0.7-1.1-1.1-1.7s-0.6-1.1-0.9-1.5c-0.2-0.4-0.5-0.7-0.8-1
		c0.8-0.5,1.3-1.4,1.3-2.3c0-0.8-0.3-1.5-0.8-2.1c-0.6-0.5-1.4-0.8-2.2-0.7h-2.3v9.7h1.5v-4.1h0.3c0.5,0,1,0.2,2.1,2.1L153.4,116.2z
		 M151.9,109.3c0,0.4-0.1,0.7-0.3,1c-0.3,0.3-0.7,0.4-1.2,0.4h-0.6V108h0.6C151.4,108,151.9,108.4,151.9,109.3L151.9,109.3z"/>
	<path class="st33" d="M159.2,108c0.7,0,1.4,0.4,1.8,0.9l0.2,0.2v0.1v-2l0,0v-0.1c-0.6-0.4-1.3-0.7-2-0.7c-1.4-0.1-2.6,1-2.7,2.4
		c0,0.1,0,0.2,0,0.3c0,1.4,1,2.1,1.9,2.8l0.2,0.2l0.4,0.3c0.2,0.1,0.4,0.3,0.6,0.5c0.3,0.2,0.5,0.6,0.5,1c0,0.6-0.6,1-1.2,1l0,0
		c-0.9-0.1-1.6-0.5-2.1-1.3l-0.2-0.3v-0.1v2.4l0,0c0.7,0.6,1.6,0.9,2.5,0.9c0.7,0,1.3-0.3,1.8-0.8s0.8-1.3,0.7-2
		c0-1.3-0.8-2.4-1.9-3l-0.7-0.4c-0.2-0.1-0.4-0.3-0.6-0.4c-0.3-0.2-0.5-0.6-0.5-1C158.1,108.3,158.6,107.9,159.2,108z"/>
	<path class="st33" d="M179.1,116.2h1.5v-5.1l3.3-4.7h-1.8c0,0-2.2,3-2.2,3.1c-0.1-0.1-2.2-3.1-2.2-3.1h-1.9c0,0,3.3,4.6,3.3,4.7
		S179.1,116.2,179.1,116.2z"/>
	<rect x="126.9" y="106.5" class="st33" width="1.5" height="9.7"/>
	<rect x="164.3" y="106.5" class="st33" width="1.5" height="9.7"/>
	<polygon class="st33" points="79.4,116.2 80.9,116.2 80.9,108 83.9,108 83.9,106.5 76.4,106.5 76.4,108 79.4,108 	"/>
	<polygon class="st33" points="170.7,116.2 172.3,116.2 172.3,108 175.2,108 175.2,106.5 167.8,106.5 167.8,108 170.7,108 	"/>
	<polygon class="st33" points="199.7,111.8 203,111.8 203,110.3 199.7,110.3 199.7,108 203,108 203,106.5 198.2,106.5 198.2,116.1 
		199.7,116.1 	"/>
	<path class="st33" d="M191.7,116.4c1.3,0,2.6-0.5,3.4-1.5c1.6-2,1.6-4.9,0-6.9c-1.7-1.9-4.6-2-6.5-0.3c-0.1,0.1-0.2,0.2-0.3,0.3
		c-0.8,1-1.3,2.2-1.3,3.4c0,1.3,0.4,2.5,1.3,3.4C189.2,115.8,190.4,116.4,191.7,116.4z M189.5,109c0.6-0.6,1.4-1,2.2-0.9
		c1.7,0,3.1,1.4,3.1,3.2c0,0.1,0,0.1,0,0.2c0,0.9-0.3,1.8-0.9,2.4c-1.2,1.2-3.1,1.3-4.3,0.1l-0.1-0.1
		C188.3,112.5,188.3,110.4,189.5,109z"/>
	<path class="st33" d="M162.1,123h-1.9l-6.4,16.6h2.7c0,0,1.8-4.6,1.8-4.7h5.7c0.1,0.1,1.9,4.7,1.9,4.7h2.8L162.1,123z M159.4,132.3
		c0-0.2,1.6-4.4,1.8-4.7c0.1,0.3,1.8,4.5,1.9,4.7H159.4z"/>
	<polygon class="st33" points="151.5,137 145,137 145,123.1 142.4,123.1 142.4,139.7 151.5,139.7 	"/>
	<path class="st33" d="M80.9,135h5.7c0,0.1,1.9,4.7,1.9,4.7h2.7l-6.7-16.6h-1.8l-6.4,16.6H79C79.1,139.7,80.9,135,80.9,135z
		 M83.7,127.6c0.1,0.3,1.8,4.6,1.9,4.7h-3.7C82,132.2,83.6,127.9,83.7,127.6L83.7,127.6z"/>
	<path class="st33" d="M122.7,138.4v-3.2h-0.1l-0.4,0.3c-1.4,1.1-3.1,1.7-4.9,1.7c-1.5,0.1-2.9-0.5-4-1.6c-1-1.1-1.6-2.6-1.5-4.2
		c0-1.5,0.5-3,1.5-4.2c1-1.1,2.4-1.7,3.9-1.6c1.7,0,3.4,0.6,4.8,1.6l0.3,0.2h0.1l-0.1-3.2l0,0c-1.6-0.8-3.4-1.2-5.1-1.2
		c-4.7,0-8.2,3.6-8.2,8.7c0,2,0.7,3.9,1.9,5.4c1.5,1.8,3.8,2.9,6.2,2.8C119.1,139.9,121,139.4,122.7,138.4L122.7,138.4z"/>
	<path class="st33" d="M131.7,130.9c0-0.1,6.5-7.8,6.5-7.8h-3.3c0,0-5.4,6.5-5.6,6.8v-6.8h-2.6v16.6h2.6v-7.5
		c0.2,0.3,6.9,7.5,6.9,7.5h3.6L131.7,130.9z"/>
	<path class="st33" d="M202,125.8c-1.5-1.8-3.7-2.8-6-2.7h-5.9v16.6h5.9c2.2,0,4.3-0.9,5.8-2.5C204.5,133.9,204.6,129.2,202,125.8
		L202,125.8z M195.7,137h-3v-11.2h2.9c1.6-0.1,3.1,0.5,4.2,1.7c0.9,1.1,1.4,2.5,1.4,4C201.2,133.5,200,137,195.7,137z"/>
	<path class="st33" d="M99.4,139.9c1.9,0.1,3.7-0.6,5-1.9c1.2-1.4,1.8-3.1,1.7-4.9v-10h-2.7v9.6c0,1.7-0.3,2.6-0.9,3.3
		c-0.8,0.8-2,1.2-3.2,1.2c-1.1,0-2.2-0.4-2.9-1.3c-0.6-0.7-0.8-1.4-0.8-3.1v-9.7h-2.5v10.2c-0.2,3.4,2.3,6.4,5.7,6.6
		C99,139.9,99.2,139.9,99.4,139.9L99.4,139.9z"/>
	<path class="st33" d="M183.2,135c-0.2-0.3-9.3-11.9-9.3-11.9h-2.1v16.6h2.5v-11.8c0.2,0.3,9.2,11.7,9.2,11.7h2.2V123h-2.5
		L183.2,135L183.2,135z"/>
	<polygon class="st33" points="81.7,158.1 77.7,153.4 76.5,153.4 76.5,160.2 77.8,160.2 77.8,155.4 81.9,160.2 83,160.2 83,153.4 
		81.7,153.4 	"/>
	<polygon class="st33" points="91.1,157.2 94.1,157.2 94.1,156.2 91.1,156.2 91.1,154.4 94.2,154.4 94.2,153.4 89.8,153.4 
		89.8,160.2 94.2,160.2 94.2,159.1 91.1,159.1 	"/>
	<polygon class="st33" points="107.8,157.6 106,153.4 104.9,153.4 103.1,157.6 101.5,153.4 100.1,153.4 102.9,160.2 103.3,160.2 
		105.4,155.3 107.5,160.2 108,160.2 110.8,153.4 109.5,153.4 	"/>
	<polygon class="st33" points="130.5,153.4 124.6,153.4 124.6,154.4 128.3,154.4 124.4,160.2 130.5,160.2 130.5,159.1 126.6,159.1 	
		"/>
	<polygon class="st33" points="138.2,157.2 141.1,157.2 141.1,156.2 138.2,156.2 138.2,154.4 141.2,154.4 141.2,153.4 136.9,153.4 
		136.9,160.2 141.3,160.2 141.3,159.1 138.2,159.1 	"/>
	<path class="st33" d="M150,153.4l-2.8,6.8h1.4l0.6-1.6h3l0.7,1.6h1.4l-3-6.8H150z M149.6,157.6l1.1-2.6l1.2,2.6H149.6z"/>
	<polygon class="st33" points="161.7,153.4 160.4,153.4 160.4,160.2 165,160.2 165,159.1 161.7,159.1 	"/>
	<path class="st33" d="M173.3,153.4l-2.8,6.8h1.4l0.6-1.6h3l0.7,1.6h1.4l-3-6.8H173.3z M172.9,157.6l1.1-2.6l1.2,2.6H172.9z"/>
	<polygon class="st33" points="188.9,158.1 184.9,153.4 183.7,153.4 183.7,160.2 185,160.2 185,155.4 189,160.2 190.2,160.2 
		190.2,153.4 188.9,153.4 	"/>
	<path class="st33" d="M201.7,153.9c-0.6-0.3-1.2-0.4-1.9-0.4H197v6.8h2.8c0.7,0,1.3-0.1,1.9-0.4c0.5-0.3,1-0.7,1.3-1.2
		s0.5-1.1,0.5-1.8c0-0.6-0.2-1.2-0.5-1.7C202.7,154.6,202.2,154.2,201.7,153.9z M201.4,158.5c-0.5,0.4-1.1,0.7-1.7,0.6h-1.4v-4.7
		h1.3c0.7,0,1.3,0.2,1.8,0.6c0.4,0.5,0.7,1.1,0.6,1.8C202.1,157.4,201.9,158,201.4,158.5z"/>
	<rect x="76.5" y="146.3" class="st33" width="127.2" height="0.7"/>
	<path class="st33" d="M114.5,39.8v26c0,6.1,4.6,23.9,25.4,32.6l0.3,0.2l0.3-0.2c20.8-8.7,25.4-26.4,25.4-32.6v-26
		C165.9,39.8,114.5,39.8,114.5,39.8z"/>
	<path class="st32" d="M120,56.9L120,56.9l-0.2-0.1c-1.2-0.7-2.5-1.1-3.9-1.1h-0.3v9.9c0,0.2,0.7,21.4,24.6,31.5
		c23.9-10,24.6-31.3,24.6-31.5v-9.9h-0.3c-1.4,0-2.7,0.4-3.9,1.1c-2.6,1.5-5.8,1.5-8.4,0c-2.4-1.4-5.4-1.4-7.8,0l0,0
		c-2.6,1.5-5.7,1.5-8.2,0h-0.1c-2.4-1.4-5.4-1.4-7.8,0h-0.1l0,0C125.7,58.3,122.6,58.4,120,56.9z"/>
	<path class="st32" d="M122.8,44.4c0.7-0.8,1.6-1.2,2.6-1.2c3.8-0.1,5.8,2.8,5.7,5c0.1,1.5-0.9,2.9-2.3,3.3c0,0.5,0.2,0.9,0.4,1.3
		c0,0,0.1,0.1,0,0.3c-0.1,0.2-0.1,0.2-0.1,0.2c0,0.1,0,0.1,0,0.2c0,0.2,0,0.4-0.2,0.6c-0.1,0.4-0.1,0.7,0,1.1c0,0,0,0-0.1,0
		c-0.3-0.2-0.4-0.6-0.5-0.9c-0.5,0.2-1,0.7-1.2,1.2c0,0.1-0.1,0.1-0.1,0c0-0.5,0.2-1.1,0.6-1.4c-0.3-0.1-0.7,0-1,0.2h-0.1
		c0.1-0.1,0.2-0.5,1.2-0.6c0,0,0.2-0.4,0.3-0.6c-0.1-0.5-0.2-0.9-0.5-1.3c-0.4,0-0.9,0.2-1.2,0.4c-0.1,0-0.1,0.1-0.1,0.2v0.2
		c0,0,0,0.2-0.3,0.3c-0.4,0.1-0.9,0.3-1.3,0.5c-0.3,0.1-0.5,0.3-0.6,0.5s-0.3,0.4-0.6,0.5c-0.1,0-0.3,0.1-0.4,0.2l-0.3,0.3
		c-0.2,0.2-0.4,0.4-0.5,0.6c0,0.1,0,0.1,0,0v-0.3c0.1-0.3,0.2-0.6,0.5-0.9c-0.1,0-0.1,0-0.1,0c-0.6,0-1.2,0-1.9,0.2c0,0-0.1,0,0-0.1
		s0.3-0.7,1.6-0.8c-0.2-0.2-0.6-0.4-0.9-0.4c-0.1,0-0.1-0.1,0-0.1c0.4-0.2,0.9-0.1,1.3,0.2c0,0,0.5-0.2,0.7-0.2
		c0.3-0.2,1-0.9,1.3-1.1v-0.3h-0.1c-0.3-0.5-0.4-1.1-0.4-1.7c-0.8-0.2-1.5-0.6-2-1.3c-0.9-0.2-1.8-0.8-2.2-1.6
		c-1.4,1.1-2.5,2.4-3.3,4c0,0,0,0-0.1,0c-0.2-0.4-0.2-0.8-0.2-1.2c0.6-1.3,1.3-2.6,2.3-3.7c-0.2-1.3,0.6-2.5,1.9-2.8
		c0.1,0,0.3,0,0.4,0C121.9,43.6,122.4,43.9,122.8,44.4L122.8,44.4z"/>
	<path class="st33" d="M126.6,44.7L126.6,44.7c0.1-0.2,0.4-0.3,0.7-0.3c-0.6-0.3-1.3-0.3-1.8,0l0,0c0.1-0.2,0.3-0.4,0.5-0.5
		c-0.6,0-1.2,0.2-1.6,0.6l0,0c0.1-0.2,0.2-0.4,0.4-0.5c-1.2,0-2.1,1.5-2.1,1.5c-0.1-0.6-0.6-1.1-1.3-1.1c-0.7-0.1-2.5,1-1.8,2.3
		c-0.8,1-1.6,2.1-2.2,3.2l0,0c0.8-1.2,1.8-2.3,3-3.2c0.1,0.1,0.7,1.8,2.3,1.8c0.5,0.8,1.4,1.2,2.3,1.3c0,0.6,0.1,1.2,0.3,1.7h0.1
		l0,0c0.4-0.4,0.9-0.7,1.5-0.8c0.1-0.4,0.2-0.7,0.4-1.1c1.1-0.2,1.9-1.2,2-2.3C129.2,46,128,44.5,126.6,44.7z M120.2,46.3
		c-0.2,0-0.3-0.1-0.3-0.3s0.1-0.3,0.3-0.3s0.3,0.1,0.3,0.3l0,0C120.5,46.2,120.4,46.3,120.2,46.3z"/>
	<path class="st32" d="M138.9,44.4c0.7-0.8,1.6-1.2,2.6-1.2c3.8-0.1,5.8,2.8,5.7,5c0.1,1.5-0.9,2.8-2.3,3.3c0,0.5,0.1,0.9,0.4,1.3
		c0.1,0,0.1,0.1,0.1,0.3c-0.1,0.2-0.1,0.2-0.1,0.2c0,0.1,0,0.1,0,0.2c0,0.2,0,0.4-0.2,0.6c-0.1,0.4-0.1,0.7,0,1.1c0,0.1,0,0.1-0.1,0
		c-0.3-0.2-0.4-0.6-0.5-0.9c-0.5,0.2-1,0.7-1.2,1.2c0,0.1-0.1,0.1-0.2,0c0-0.5,0.2-1.1,0.6-1.4c-0.3-0.1-0.7,0-1,0.2
		c0,0-0.1,0.1-0.1,0c0.1,0,0.2-0.5,1.2-0.6c0,0,0.2-0.4,0.3-0.6c0-0.5-0.2-0.9-0.5-1.3c-0.4,0-0.9,0.2-1.2,0.4
		c-0.1,0-0.1,0.1-0.1,0.2v0.2c0,0,0,0.2-0.3,0.3c-0.4,0.1-0.9,0.3-1.3,0.5c-0.3,0.1-0.5,0.3-0.6,0.5s-0.3,0.4-0.6,0.5
		c-0.1,0-0.3,0.1-0.4,0.2l-0.3,0.3c-0.2,0.2-0.4,0.4-0.5,0.6c0,0.1,0,0.1,0,0v-0.3c0.1-0.3,0.3-0.6,0.5-0.8c-0.1,0-0.1,0-0.1,0
		c-0.6,0-1.2,0-1.9,0.2c0,0-0.1,0,0,0s0.3-0.7,1.6-0.8c-0.2-0.2-0.6-0.4-0.9-0.4c-0.1,0,0,0,0,0c0.4-0.2,0.9-0.1,1.3,0.2
		c0,0,0.5-0.2,0.7-0.2c0.3-0.2,1-0.9,1.3-1.1V52h-0.1c-0.3-0.5-0.4-1.1-0.4-1.7c-0.8-0.2-1.5-0.6-2-1.3c-0.9-0.2-1.8-0.8-2.2-1.6
		c-1.4,1.1-2.5,2.4-3.3,4c0,0,0,0-0.1,0c-0.2-0.4-0.3-0.8-0.2-1.2c0.6-1.3,1.3-2.6,2.3-3.7c-0.2-1.3,0.6-2.5,1.9-2.8
		c0.1,0,0.3,0,0.4,0C138,43.6,138.5,43.9,138.9,44.4z"/>
	<path class="st33" d="M142.7,44.7L142.7,44.7c0-0.2,0.4-0.3,0.7-0.3c-0.6-0.3-1.3-0.3-1.9,0l0,0c0.1-0.2,0.3-0.4,0.5-0.5
		c-0.6,0-1.2,0.2-1.6,0.6l0,0c0.1-0.2,0.2-0.4,0.4-0.5c-1.2,0-2.1,1.5-2.1,1.5c-0.1-0.6-0.7-1-1.3-1.1c-0.7-0.1-2.4,1-1.8,2.3
		c-0.8,1-1.6,2.1-2.2,3.2l0,0c0.8-1.3,1.8-2.3,3-3.2c0.1,0.1,0.8,1.8,2.3,1.8c0.2,0.1,0.9,1.4,2.2,1.3c0,0.6,0.1,1.2,0.3,1.7h0.1
		l0,0c0.4-0.4,0.9-0.7,1.5-0.8c0.1-0.4,0.2-0.7,0.4-1.1c1.1-0.2,1.9-1.2,2-2.3C145.3,46,144.1,44.5,142.7,44.7z M136.3,46.3
		c-0.2,0-0.3-0.1-0.3-0.3s0.1-0.3,0.3-0.3s0.3,0.1,0.3,0.3l0,0C136.6,46.2,136.5,46.3,136.3,46.3z"/>
	<path class="st32" d="M154.9,44.4c0.7-0.8,1.6-1.2,2.6-1.2c3.8-0.1,5.8,2.8,5.7,5c0.1,1.5-0.9,2.8-2.3,3.3c0,0.5,0.1,0.9,0.4,1.3
		c0.1,0,0.1,0.1,0.1,0.3c-0.1,0.2-0.1,0.2-0.1,0.2c0,0.1,0,0.1,0,0.2c0,0.2,0,0.4-0.1,0.6c-0.1,0.4,0,0.7,0.1,1.1
		c0,0.1-0.1,0.1-0.1,0c-0.3-0.2-0.4-0.6-0.5-0.9c-0.5,0.2-0.9,0.7-1.2,1.2c0,0.1-0.1,0.1-0.1,0c0-0.5,0.2-1.1,0.6-1.4
		c-0.4-0.1-0.7,0-1.1,0.2c0,0-0.1,0.1,0,0c0.1,0,0.2-0.5,1.2-0.6c0,0,0.2-0.4,0.3-0.6c0-0.5-0.2-0.9-0.5-1.3c-0.4,0-0.9,0.2-1.2,0.4
		c-0.1,0-0.1,0.1-0.1,0.2v0.2c0,0.1-0.1,0.3-0.3,0.3c-0.4,0.1-0.9,0.3-1.3,0.5c-0.3,0.1-0.5,0.3-0.6,0.5s-0.3,0.4-0.6,0.5
		c-0.1,0-0.3,0.1-0.4,0.2l-0.3,0.3c-0.2,0.2-0.4,0.4-0.5,0.6c0,0.1,0,0.1,0,0v-0.3c0.1-0.3,0.2-0.6,0.5-0.8c0,0,0,0-0.1,0
		c-0.6,0-1.2,0-1.8,0.2c-0.1,0-0.1,0-0.1,0s0.3-0.7,1.6-0.8c-0.2-0.2-0.6-0.4-0.9-0.4c-0.1,0-0.1,0,0,0c0.4-0.2,0.9-0.1,1.3,0.2
		c0.1,0,0.5-0.2,0.7-0.2c0.3-0.2,1-0.9,1.3-1.1V52l0,0c-0.3-0.5-0.4-1.1-0.4-1.7c-0.8-0.2-1.5-0.6-2-1.3c-0.9-0.2-1.8-0.8-2.2-1.6
		c-1.4,1.1-2.5,2.4-3.3,4c0,0,0,0-0.1,0c-0.2-0.4-0.3-0.8-0.2-1.2c0.6-1.3,1.3-2.6,2.3-3.7c-0.2-1.3,0.6-2.5,1.9-2.8
		c0.1,0,0.3,0,0.4,0C154,43.8,154.5,44.1,154.9,44.4L154.9,44.4z"/>
	<path class="st33" d="M158.7,44.7L158.7,44.7c0.1-0.2,0.4-0.3,0.7-0.3c-0.6-0.3-1.3-0.3-1.9,0l0,0c0.1-0.2,0.3-0.4,0.5-0.5
		c-0.6,0-1.2,0.2-1.6,0.6l0,0c0.1-0.2,0.2-0.4,0.4-0.5c-1.2,0-2.1,1.5-2.1,1.5c-0.1-0.6-0.7-1-1.3-1.1c-0.7-0.1-2.4,1-1.8,2.3
		c-0.8,1-1.6,2.1-2.2,3.2l0,0c0.8-1.2,1.8-2.3,3-3.2c0.1,0.1,0.7,1.8,2.3,1.8c0.5,0.8,1.4,1.2,2.3,1.3c0,0.6,0.1,1.2,0.3,1.7l0,0
		l0,0c0.4-0.4,0.9-0.7,1.5-0.8c0.1-0.4,0.3-0.7,0.4-1.1c1.1-0.2,1.9-1.2,2-2.3C161.3,46,160.1,44.5,158.7,44.7z M152.3,46.3
		c-0.2,0-0.3-0.1-0.3-0.3s0.1-0.3,0.3-0.3s0.3,0.1,0.3,0.3l0,0C152.6,46.2,152.5,46.3,152.3,46.3L152.3,46.3z"/>
	<path class="st33" d="M142.2,81.5l-0.4,0.3l0.4,0.2c0.3,0.1,0.4,0.4,0.4,0.7c0,0.4-0.4,0.8-0.8,0.8h-3.3c-0.4,0-0.8-0.4-0.8-0.8
		c0-0.3,0.2-0.6,0.4-0.7l0.4-0.2l-0.4-0.2c-0.8-0.5-1.7-0.8-2.6-0.8c-0.9,0-1.9,0.3-2.6,0.8c-0.9,0.6-2.1,0.9-3.2,0.8
		c-1.7,0-3.3-0.6-4.5-1.7l0,0h-0.9l-0.1,0.1c-0.1,0.1-0.3,0.2-0.5,0.2c-0.3,0-0.6-0.3-0.6-0.6c0-0.3,0.3-0.6,0.6-0.6l0,0
		c0.2,0,0.3,0.1,0.4,0.2l0.1,0.1h1v-1.3h-1l-0.1,0.2c-0.1,0.1-0.3,0.2-0.5,0.2c-0.3,0-0.6-0.3-0.6-0.6c0-0.3,0.3-0.6,0.6-0.6l0,0
		c0.2,0,0.4,0.1,0.5,0.2l0.1,0.1h1V77h-1l-0.1,0.1c-0.1,0.1-0.3,0.2-0.5,0.2c-0.3,0-0.6-0.3-0.6-0.6c0-0.3,0.3-0.6,0.6-0.6l0,0
		c0.2,0,0.4,0.1,0.5,0.2l0.1,0.1h1v-1.2h-1l-0.1,0.1c-0.1,0.1-0.3,0.2-0.5,0.2c-0.3,0-0.6-0.3-0.6-0.6c0-0.3,0.3-0.6,0.6-0.6l0,0
		c0.2,0,0.4,0.1,0.5,0.2l0.1,0.1h1v-1.2h-1l-0.1,0.1c-0.1,0.1-0.3,0.2-0.5,0.2c-0.3,0-0.6-0.3-0.6-0.6c0-0.3,0.3-0.6,0.6-0.6l0,0
		c0.2,0,0.4,0.1,0.5,0.2l0.1,0.1h1v-1.2h-1l-0.1,0.4c-0.1,0.1-0.3,0.2-0.5,0.2c-0.3,0-0.6-0.3-0.6-0.6c0-0.3,0.3-0.6,0.6-0.6l0,0
		c0.2,0,0.4,0.1,0.5,0.2l0.1,0.1h1v-1.2h-1l-0.1,0.1c-0.1,0.1-0.3,0.2-0.5,0.2c-0.3,0-0.6-0.3-0.6-0.6c0-0.3,0.3-0.6,0.6-0.6l0,0
		c0.2,0,0.4,0.1,0.5,0.2v0.1h0.8l0.8-0.4v11.1l0.1,0.2c2,1.4,4.5,1.6,6.7,0.4s5.2-1.3,7,1.3h-0.7c-0.1,0-0.3,0.1-0.3,0.2l0,0
		c0,0.1,0.1,0.3,0.2,0.3l0,0h2.7c0.1,0,0.3-0.1,0.3-0.2l0,0c0-0.1-0.1-0.3-0.2-0.3l0,0h-0.8c1.8-2.6,4.9-2.4,7-1.3
		c1.9,1,4.1,0.8,6.6-0.4l0.2-0.2v-11l0.9,0.4h0.8l0.1-0.1c0.1-0.1,0.3-0.2,0.5-0.2c0.3,0,0.6,0.2,0.6,0.6c0,0.3-0.3,0.6-0.6,0.6l0,0
		c-0.2,0-0.4-0.1-0.5-0.2l-0.1-0.1h-1v1.2h1l0.1-0.1c0.1-0.1,0.3-0.2,0.5-0.2c0.3,0,0.6,0.3,0.6,0.6c0,0.3-0.3,0.6-0.6,0.6l0,0
		c-0.2,0-0.3-0.1-0.5-0.2l-0.1-0.1h-1v1.2h1l0.1-0.1c0.1-0.1,0.3-0.2,0.5-0.2c0.3,0,0.6,0.2,0.6,0.6c0,0.3-0.3,0.6-0.6,0.6l0,0
		c-0.2,0-0.4-0.1-0.5-0.2l-0.1-0.1h-1V75h1l0.1-0.1c0.1-0.1,0.3-0.2,0.5-0.2c0.3,0,0.6,0.2,0.6,0.6c0,0.3-0.3,0.6-0.6,0.6l0,0
		c-0.2,0-0.3-0.1-0.5-0.2l-0.1-0.1h-1v1.2h1l0.1-0.1c0.1-0.1,0.3-0.2,0.5-0.2c0.3,0,0.6,0.3,0.6,0.6c0,0.3-0.3,0.6-0.6,0.6l0,0
		c-0.2,0-0.4-0.1-0.5-0.2l-0.1-0.1h-1v1.2h1l0.1-0.1c0.1-0.1,0.3-0.2,0.5-0.2c0.3,0,0.6,0.2,0.6,0.6c0,0.3-0.3,0.6-0.6,0.6l0,0
		c-0.2,0-0.3-0.1-0.5-0.2l-0.1-0.1h-1v1.2h1l0.1-0.1c0.1-0.1,0.3-0.2,0.5-0.2c0.3,0,0.6,0.3,0.6,0.6c0,0.3-0.3,0.6-0.6,0.6l0,0
		c-0.2,0-0.4-0.1-0.5-0.2l-0.1-0.1h-0.8h-0.3c-1.3,1.1-2.9,1.7-4.6,1.7c-1.1,0.1-2.2-0.2-3.2-0.8C145.8,80.4,143.7,80.4,142.2,81.5z
		"/>
	<path class="st33" d="M127.1,80c1.7,0.9,3.1,1.2,5.6-0.2c2.4-1.2,5.3-0.8,7.3,1.2v0.8c-2-2.6-5.2-2.5-7.5-1.2c-1.9,1-4.2,0.9-6-0.3
		V69.1l0.6-0.3L127.1,80L127.1,80z"/>
	<path class="st33" d="M127.5,79.6V68.5h0.1c1.8,0.5,3.6,0.3,5.3-0.5c2.4-1,5.1-0.6,7.1,1v11.2c-1.2-1-2.8-1.6-4.4-1.6
		c-1.1,0-2.1,0.2-3.1,0.7C130.2,80.5,129,80.4,127.5,79.6z"/>
	<path class="st33" d="M147.7,79.8c2.5,1.3,3.9,1.1,5.6,0.2l0.2-0.1V68.8l0.6,0.3v11.2c-2.3,1.1-4.3,1.2-6,0.3
		c-2.3-1.2-5.5-1.4-7.5,1.2V81C142.4,79.1,145.3,78.6,147.7,79.8z"/>
	<path class="st33" d="M140.4,80.2V68.9c2-1.6,4.7-2,7.1-1c1.7,0.8,3.5,1,5.3,0.5l0,0v11.2c-1.5,0.8-2.8,1-5-0.2
		C145.4,78.2,142.5,78.5,140.4,80.2z"/>
	<polygon class="st33" points="153,66.5 150,64.2 147,66.5 148.2,62.9 145,60.6 148.9,60.6 150,56.9 151.2,60.6 155,60.6 
		151.9,62.9 	"/>
	<polygon class="st33" points="133.4,66.5 130.3,64.2 127.3,66.5 128.5,62.9 125.4,60.6 129.2,60.6 130.3,57 131.5,60.6 135.4,60.6 
		132.2,62.9 	"/>
	<polygon class="st33" points="137.2,94.9 138.3,91.3 135.2,89 139,89 140.2,85.3 141.3,89 145.2,89 142,91.3 143.2,94.9 
		140.2,92.7 	"/>
	<rect x="40.1" class="st34" width="200" height="200"/>
</g>
<g id="Layer_10">
	<g>
		<path class="st35" d="M56.8,12.6c0-6.9,5.6-12.5,12.5-12.5h58.3c6.9,0,12.5,5.6,12.5,12.5v54.1H69.3c-6.9,0-12.5-5.6-12.5-12.5
			V12.6z M140,66.7h70.7c6.9,0,12.5,5.6,12.5,12.5v41.6c0,6.9-5.6,12.5-12.5,12.5H140V66.7z M56.8,145.8c0-6.9,5.6-12.5,12.5-12.5
			H140v54.1c0,6.9-5.6,12.5-12.5,12.5H69.3c-6.9,0-12.5-5.6-12.5-12.5V145.8z"/>
	</g>
</g>
</svg>
