<?xml version="1.0" encoding="utf-8"?>
<!-- Generator: Adobe Illustrator 26.5.0, SVG Export Plug-In . SVG Version: 6.00 Build 0)  -->
<svg version="1.1" xmlns="http://www.w3.org/2000/svg" xmlns:xlink="http://www.w3.org/1999/xlink" x="0px" y="0px"
	 viewBox="0 0 280 200" style="enable-background:new 0 0 280 200;" xml:space="preserve">
<style type="text/css">
	.st0{display:none;}
	.st1{display:inline;}
	.st2{display:inline;fill:#94CC33;}
	.st3{display:inline;fill:#3AAA35;}
	.st4{display:inline;fill:#C6C6C6;}
	.st5{display:inline;fill:#F6F6F6;}
	.st6{display:inline;fill:#231F20;}
	.st7{display:inline;fill:#020303;}
	.st8{display:inline;fill:#A9A09D;}
	.st9{display:inline;fill:#282729;}
	.st10{display:inline;fill:#595558;}
	.st11{display:inline;fill:#E1DCD7;}
	.st12{display:inline;fill:#706D6E;}
	.st13{display:inline;fill:#F1511B;}
	.st14{display:inline;fill:#80CC28;}
	.st15{display:inline;fill:#00ADEF;}
	.st16{display:inline;fill:#FBBC09;}
	.st17{fill:none;stroke:#28A5DA;stroke-width:6.4585;stroke-miterlimit:3.2293;}
	.st18{fill:#F7F8F9;}
	.st19{fill:#F9A737;}
</style>
<g id="Layer_1" class="st0">
	<path class="st1" d="M185.6,28.3h-19.3v-18h-53.2v18H93.8v50.3h-8.6v14.2c0,27.9,22.7,50.5,50.6,50.5h7.8
		c27.9,0,50.5-22.6,50.6-50.5V78.6h-8.6V28.3z M180.7,33.2v52.3h-14.4V33.2H180.7z M161.4,15.2v80c-5.5-1.6-11.2-2.4-17-2.4H135
		c-5.8,0-11.5,0.8-17,2.4v-80H161.4z M98.7,33.2h14.4v52.3H98.7V33.2z M189.3,83.5v9.3c0,25.2-20.5,45.6-45.7,45.7h-7.8
		c-25.2,0-45.7-20.4-45.7-45.7v-9.3h3.7v6.9h19.3v6.5c-4.5,1.7-8.8,4-12.8,6.8l2.8,4c9.3-6.5,20.5-10,31.9-10h9.5
		c11.4,0,22.5,3.5,31.9,10l2.8-4c-4-2.8-8.3-5.1-12.8-6.8v-6.5h19.3v-6.9H189.3z"/>
	<rect x="126.3" y="40.7" class="st1" width="7.3" height="13.3"/>
	<rect x="145.8" y="40.7" class="st1" width="7.3" height="13.3"/>
	<rect x="126.3" y="66.3" class="st1" width="7.3" height="13.3"/>
	<rect x="145.8" y="66.3" class="st1" width="7.3" height="13.3"/>
	<path class="st2" d="M185.6,90.3h-19.3v6.5c4.5,1.7,8.8,4,12.8,6.8l-2.8,4c-9.3-6.5-20.5-10-31.9-10H135c-11.4,0-22.5,3.5-31.9,10
		l-2.8-4c4-2.8,8.3-5.1,12.8-6.8v-6.5H93.8v-6.9h-3.7v9.3c0,25.2,20.5,45.6,45.7,45.7h7.8c25.2,0,45.7-20.4,45.7-45.7v-9.3h-3.7
		V90.3z"/>
	<path class="st3" d="M143.6,134.6h-7.8c-25.2,0-45.7-20.5-45.7-45.7v3.9c0,25.2,20.5,45.6,45.7,45.7h7.8
		c25.2,0,45.7-20.4,45.7-45.7v-3.9C189.3,114.2,168.8,134.6,143.6,134.6z"/>
	<rect x="98.7" y="33.2" class="st4" width="14.4" height="52.3"/>
	<rect x="166.3" y="33.2" class="st4" width="14.4" height="52.3"/>
	<path class="st5" d="M144.4,92.8c5.8,0,11.5,0.8,17,2.4v-80H118v80c5.5-1.6,11.2-2.4,17-2.4H144.4z M145.8,40.7h7.3V54h-7.3V40.7z
		 M145.8,66.3h7.3v13.3h-7.3V66.3z M133.7,79.6h-7.3V66.3h7.3V79.6z M133.7,54h-7.3V40.7h7.3V54z"/>
	<path class="st1" d="M203.6,66.8v28.7c0,30.9-25.1,56-56,56h-15.8c-30.9,0-56-25.1-56-56V66.8h-4.9v28.7
		c0.1,33.6,27.3,60.8,60.9,60.8h15.7c33.6-0.1,60.8-27.3,60.9-60.8V66.8H203.6z"/>
	<path class="st1" d="M74.1,29.4c0,0-16.1,18.4-13.8,34.8c2.1,15.2,25.5,15.2,27.6,0C90.2,47.9,74.1,29.4,74.1,29.4z"/>
	<path class="st2" d="M74.1,73.1c-5,0-10.3-2.8-11.2-9.2C61.2,52.2,70,39,74.1,33.6c4.1,5.4,12.9,18.6,11.2,30.2
		C84.4,70.2,79,73.1,74.1,73.1z"/>
	<path class="st3" d="M85.3,61.2c-0.9,6.3-6.3,9.2-11.2,9.2s-10.3-2.8-11.2-9.2c-0.1-0.6-0.1-1.2-0.2-1.8c-0.1,1.5,0,3,0.2,4.5
		c0.9,6.3,6.3,9.2,11.2,9.2s10.3-2.8,11.2-9.2c0.2-1.5,0.3-3,0.2-4.5C85.4,60,85.4,60.6,85.3,61.2z"/>
	<path class="st1" d="M206,29.4c0,0-16.1,18.4-13.8,34.8c2.1,15.2,25.5,15.2,27.6,0C222.1,47.9,206,29.4,206,29.4z"/>
	<path class="st2" d="M205.9,73.1c-4.9,0-10.3-2.8-11.2-9.2c-1.6-11.6,7.2-24.9,11.2-30.2c4.1,5.4,12.9,18.6,11.2,30.2
		C216.3,70.2,210.9,73.1,205.9,73.1z"/>
	<path class="st3" d="M217.2,61.2c-0.9,6.3-6.3,9.2-11.2,9.2s-10.3-2.8-11.2-9.2c-0.1-0.6-0.1-1.2-0.1-1.8c-0.1,1.5-0.1,3,0.1,4.5
		c0.9,6.4,6.3,9.2,11.2,9.2s10.4-2.8,11.2-9.2c0.2-1.5,0.3-3,0.1-4.5C217.3,60,217.3,60.6,217.2,61.2z"/>
	<path class="st6" d="M81,175.9v2h-6v3.8h4.8v1.9h-4.8v3.9h6v2h-8.5v-13.6L81,175.9z"/>
	<path class="st6" d="M99.8,186.3c0.1,0,0.3,0.1,0.4,0.2l1,1.1c-0.5,0.7-1.2,1.2-2,1.6c-0.9,0.4-1.9,0.6-2.9,0.6
		c-0.9,0-1.9-0.2-2.7-0.5c-0.8-0.3-1.5-0.8-2.1-1.4c-0.6-0.6-1-1.4-1.3-2.2c-0.3-0.9-0.5-1.8-0.5-2.8c0-1,0.2-1.9,0.5-2.8
		c0.3-0.8,0.8-1.6,1.4-2.2c0.6-0.6,1.3-1.1,2.1-1.4c1.7-0.7,3.6-0.7,5.4,0c0.7,0.3,1.4,0.7,2,1.3l-0.8,1.2c-0.1,0.1-0.1,0.1-0.2,0.2
		c-0.1,0.1-0.2,0.1-0.3,0.1c-0.1,0-0.2,0-0.3-0.1l-0.3-0.2c-0.1-0.1-0.2-0.2-0.4-0.3c-0.2-0.1-0.4-0.2-0.6-0.3
		c-0.2-0.1-0.5-0.1-0.7-0.2c-0.3-0.1-0.7-0.1-1-0.1c-0.6,0-1.1,0.1-1.7,0.3c-0.5,0.2-0.9,0.5-1.3,0.9c-0.4,0.4-0.7,0.9-0.8,1.5
		c-0.2,0.6-0.3,1.3-0.3,2c0,0.7,0.1,1.4,0.3,2c0.2,0.6,0.5,1.1,0.9,1.5c0.4,0.4,0.8,0.7,1.3,0.9c0.5,0.2,1.1,0.3,1.6,0.3
		c0.3,0,0.6,0,0.9-0.1c0.3,0,0.5-0.1,0.8-0.2c0.2-0.1,0.5-0.2,0.7-0.3c0.2-0.1,0.4-0.3,0.6-0.5c0.1-0.1,0.1-0.1,0.2-0.1
		C99.6,186.3,99.7,186.3,99.8,186.3z"/>
	<path class="st6" d="M123.1,182.7c0,0.9-0.2,1.9-0.5,2.8c-0.3,0.8-0.8,1.6-1.4,2.2c-0.6,0.6-1.4,1.1-2.2,1.4
		c-0.9,0.4-1.9,0.5-2.8,0.5c-1,0-1.9-0.2-2.8-0.5c-0.8-0.3-1.6-0.8-2.2-1.4c-0.6-0.6-1.1-1.4-1.4-2.2c-0.7-1.8-0.7-3.8,0-5.5
		c0.6-1.7,1.9-3,3.6-3.7c0.9-0.4,1.8-0.5,2.8-0.5c0.7,0,1.3,0.1,1.9,0.2c0.6,0.2,1.2,0.4,1.7,0.7c0.5,0.3,1,0.6,1.4,1.1
		c0.4,0.4,0.7,0.9,1,1.4c0.3,0.5,0.5,1.1,0.6,1.7C123,181.5,123.1,182.1,123.1,182.7z M120.5,182.7c0-0.7-0.1-1.4-0.3-2
		c-0.2-0.6-0.5-1.1-0.9-1.5c-0.4-0.4-0.8-0.8-1.3-1c-1.2-0.4-2.4-0.4-3.6,0c-0.5,0.2-1,0.6-1.4,1c-0.4,0.4-0.7,1-0.9,1.5
		c-0.4,1.3-0.4,2.7,0,4c0.2,0.6,0.5,1.1,0.9,1.5c0.4,0.4,0.8,0.7,1.4,0.9c1.2,0.4,2.4,0.4,3.6,0c0.5-0.2,1-0.5,1.3-0.9
		c0.4-0.4,0.7-0.9,0.9-1.5C120.4,184.1,120.5,183.4,120.5,182.7z"/>
	<path class="st6" d="M154.3,186.3c0.1,0,0.3,0.1,0.4,0.2l1,1.1c-0.5,0.7-1.2,1.2-2,1.6c-0.9,0.4-1.9,0.6-2.9,0.6
		c-0.9,0-1.9-0.2-2.7-0.5c-0.8-0.3-1.5-0.8-2.1-1.4c-0.6-0.6-1-1.4-1.3-2.2c-0.3-0.9-0.5-1.8-0.5-2.8c0-1,0.2-1.9,0.5-2.8
		c0.3-0.8,0.8-1.6,1.4-2.2c0.6-0.6,1.3-1.1,2.1-1.4c1.7-0.7,3.6-0.7,5.4,0c0.7,0.3,1.4,0.7,2,1.3l-0.9,1.2c-0.1,0.1-0.1,0.1-0.2,0.2
		c-0.1,0.1-0.2,0.1-0.3,0.1c-0.1,0-0.2,0-0.3-0.1l-0.3-0.2c-0.1-0.1-0.2-0.2-0.4-0.3c-0.2-0.1-0.4-0.2-0.5-0.3
		c-0.2-0.1-0.5-0.1-0.7-0.2c-0.3-0.1-0.7-0.1-1-0.1c-0.6,0-1.1,0.1-1.7,0.3c-0.5,0.2-0.9,0.5-1.3,0.9c-0.4,0.4-0.7,0.9-0.9,1.5
		c-0.2,0.6-0.3,1.3-0.3,2c0,0.7,0.1,1.4,0.3,2c0.2,0.6,0.5,1.1,0.9,1.5c0.4,0.4,0.8,0.7,1.3,0.9c0.5,0.2,1.1,0.3,1.6,0.3
		c0.3,0,0.6,0,0.9-0.1c0.3,0,0.5-0.1,0.8-0.2c0.2-0.1,0.5-0.2,0.7-0.3c0.2-0.1,0.4-0.3,0.6-0.5c0.1-0.1,0.1-0.1,0.2-0.1
		C154.1,186.3,154.2,186.3,154.3,186.3z"/>
	<path class="st6" d="M167.4,189.5h-2.5v-13.6h2.5L167.4,189.5z"/>
	<path class="st6" d="M187.5,175.9v2.1h-4.1v11.5h-2.5V178h-4.1v-2.1L187.5,175.9z"/>
	<path class="st6" d="M202.7,184.3v5.3h-2.5v-5.3l-5-8.3h2.2c0.2,0,0.4,0,0.5,0.2c0.1,0.1,0.2,0.3,0.3,0.4l2.5,4.5
		c0.1,0.3,0.3,0.5,0.4,0.8s0.2,0.5,0.3,0.7c0.1-0.2,0.2-0.5,0.3-0.7s0.2-0.5,0.4-0.8l2.5-4.5c0.1-0.1,0.2-0.3,0.3-0.4
		c0.1-0.1,0.3-0.2,0.5-0.2h2.2L202.7,184.3z"/>
</g>
<g id="Layer_2" class="st0">
	<path class="st7" d="M279.8,106l-0.9-3l-0.8-2.7c0,0-2.5-8.3-2.9-9.4c-0.4-1.3-0.8-2.7-1.2-4l-0.1-0.2l5.6-6.8l-2.7-8.3l-28.4,0
		l-0.9,1.4l-0.3-1.4l-28.6,0l-0.7,1.6l-0.3-1.6l-28.9,0l-0.5,1.9l-0.2-1.9l-29.1,0l-0.3,3.1l-0.1-3.1l-29.3,0l-0.1,2.8l-0.3-2.8
		l-29,0l-0.2,1.8l-0.5-1.8l-14,0L84,79.6L83.4,78l-0.3,0l-2.4-6.2l-13.8,0l-0.3,1.5l-0.7-1.5l-13.7,0l-0.3,1.4L51,71.9l-13.6,0
		L35.9,78l-3.7,0l-0.7,2.7l-6.4-8.7l-13.2,0L0.6,107l12,11.1h13.1l2.1-7.8l1,1.1h3.5l5.8,6.7l13.4,0l0.3-1.3l1,1.3l13.5,0l0.2-1.4
		l0.9,1.4l13.7,0l1.1-7.3l3.5,7.3l13.9,0l0.2-1.7l0.6,1.7l28.8,0l0.1-2.7l0.3,2.7l29,0l0.3-2.9l0.1,2.9l14.2,0l0.4-2l0.1,2l14.1,0
		l0.6-1.8l0.2,1.8h13.9l0.7-1.6l0.2,1.6h13.8l0.8-1.4l0.2,1.4l13.7,0l7.9-11.3l-0.4-1.8l4.4,0l6.2-8.6l5.3,21.6l13.4,0l11.2-11.2
		L279.8,106L279.8,106z M144,97.5l0.1-4.8l13.7,0l0.1-1.6l0.2,6.4L144,97.5z"/>
	<path class="st8" d="M25.7,79.8l-1.8,6.4H32l1.7-6.3l3.7,0l1.6-6.1l10.7,0l-7.5,32.3l-11.5,0L34,92.4l-4.2,0l-1.8,6.7l-7.5,0
		l1.9-6.7l-4.2,0l-4.1,13.7l-11.3,0l10.4-32.3l10.5,0L22,79.7L25.7,79.8z M64.3,73.9L58,106.2l-11.5,0l7.2-32.4L64.3,73.9z
		 M79.9,95.7l1-6.7L76.7,89l-2.8,17.2l-11.5,0l6-32.4l10.7,0l-0.9,6l3.7,0.1L81,86.1l4.1,0.1l1.8-12.4l10.7,0l-3.7,32.4l-11.5,0
		l1.4-10.3L79.9,95.7z M126,99.5l-0.3,6.7l-27.5,0l3.4-32.4l25.5,0l-0.3,5.7l-15,0l-0.5,6.6l15.2,0l-0.3,6.3l-15.5,0l-0.5,7
		L126,99.5z M275.5,73.6l1.8,5.7l-7.4,0l0,0.2c0.3,1.3,0.6,2.5,1,3.8c0.4,1.3,0.7,2.6,1.1,4c0.4,1.4,0.8,2.7,1.2,4.1
		c0.4,1.4,0.8,2.8,1.3,4.2c0.3,0.8,0.5,1.7,0.8,2.6c0.3,0.9,0.5,1.7,0.8,2.6c0.3,0.9,0.5,1.8,0.8,2.6c0.3,0.9,0.5,1.8,0.8,2.7
		l-11.6,0l-7.3-26.7l-7.4,0l-1.5-5.7L275.5,73.6L275.5,73.6z M248.8,85.9l1.6,6.4l-15.5,0l2.9,13.8l-11.6,0l-5.9-32.5l25.6,0
		l1.4,5.7l-15.1,0l1.4,6.5L248.8,85.9z M204.2,95.6l1.4,10.5l-11.6,0l-3.6-32.4l25.6,0l5.6,32.5l-11.6,0l-1.5-10.5L204.2,95.6
		L204.2,95.6z M211.7,82.9l-0.7-4.1l-5.1,0l0.5,3.8l-4,0l-0.5-3.7l-4.9,0l0.5,4.1l4.5,0l0.2,1.5l-2.3,0l0.8,6.3l2.7,0l-0.2-2.2l4,0
		l0.3,2.2l2.8,0l-1-6.3l-2.2,0l-0.2-1.5L211.7,82.9 M184.1,89.3l3.8,0l1.7,16.8l-11.6,0l-1-13.7l-4.3-0.1l0.9,13.8l-11.6,0
		l-1.2-32.4l25.5,0l1.2,12l-3.8,0L184.1,89.3z M176.6,86.1l-0.5-6.7l-4.2,0l0.4,6.7L176.6,86.1 M142.1,79.5l14.8,0l-0.2-5.7l-25.5,0
		l-1.1,32.4l27.5,0l-0.2-6.7l-15.7,0L142.1,79.5z"/>
	<path class="st9" d="M4.4,106.2c-0.8,0-1,0.5-0.4,1l8.2,7.8c0.6,0.6,1.8,1,2.6,1H22c0.8,0,1-0.5,0.5-1.1l-7.2-7.7
		c-0.6-0.6-1.7-1.1-2.5-1.1L4.4,106.2L4.4,106.2z M32.1,106.2c-0.8,0-1.1,0.5-0.5,1.2l6.4,7.6c0.5,0.6,1.6,1.2,2.5,1.2H48
		c0.8,0,1.1-0.5,0.6-1.2l-5.6-7.5c-0.5-0.7-1.6-1.2-2.4-1.2L32.1,106.2L32.1,106.2z"/>
	<path class="st9" d="M22.1,99.1c-0.8,0-1.1,0.5-0.5,1.1l7.1,8c0.6,0.6,1.6,1.1,2.2,1.1c0.7,0,0.8-0.6,0.4-1.3l-0.5-0.7
		c-0.5-0.7-0.7-1.9-0.5-2.7l0.1-0.5c0.2-0.8,0-2-0.5-2.6l-1-1.2c-0.5-0.7-1.6-1.2-2.4-1.2L22.1,99.1L22.1,99.1z M48,106.2
		c-0.8,0-1.1,0.6-0.6,1.2l5.5,7.4c0.5,0.7,1.6,1.2,2.4,1.2h7.4c0.8,0,1.1-0.6,0.7-1.3l-4.6-7.3c-0.4-0.7-1.5-1.3-2.3-1.3L48,106.2
		L48,106.2z M63.9,106.2c-0.8,0-1.2,0.6-0.7,1.3l4.4,7.3c0.4,0.7,1.5,1.3,2.3,1.3h7.3c0.8,0,1.2-0.6,0.8-1.4l-3.5-7.1
		c-0.4-0.7-1.3-1.4-2.2-1.4L63.9,106.2L63.9,106.2z M83.8,106.2c-0.8,0-1.2,0.6-0.9,1.4l3.3,7.2c0.4,0.8,1.3,1.4,2.1,1.4h7.6
		c0.8,0,1.3-0.6,1-1.4l-2.6-7.1c-0.3-0.8-1.2-1.4-2-1.4L83.8,106.2L83.8,106.2z M99.7,106.1c-0.8,0-1.3,0.6-1,1.4l2.5,6.9
		c0.3,0.8,1.2,1.4,2,1.4h22.4c0.8,0,1.4-0.7,1.3-1.5l-1-6.8c-0.1-0.8-0.9-1.5-1.7-1.5L99.7,106.1z M131.6,106.1
		c-0.8,0-1.4,0.7-1.3,1.5l0.8,7c0.1,0.8,0.8,1.5,1.7,1.5H155c0.8,0,1.6-0.7,1.7-1.5l0.8-7c0.1-0.8-0.5-1.5-1.3-1.5L131.6,106.1
		L131.6,106.1z M163.6,106.1c-0.8,0-1.6,0.7-1.7,1.5l-0.9,6.9c-0.1,0.8,0.5,1.5,1.3,1.5h7.4c0.8,0,1.7-0.7,1.9-1.5l1.7-6.9
		c0.2-0.8-0.3-1.5-1.2-1.5L163.6,106.1L163.6,106.1z M179.6,106.1c-0.8,0-1.7,0.7-1.9,1.5l-1.6,6.8c-0.2,0.8,0.3,1.5,1.2,1.5h7.4
		c0.8,0,1.7-0.6,2-1.4l2.4-6.9c0.3-0.8-0.2-1.4-1-1.4L179.6,106.1L179.6,106.1z M195.6,106.1c-0.8,0-1.7,0.6-2,1.4l-2.5,7
		c-0.3,0.8,0.2,1.4,1,1.4h7.4c0.8,0,1.8-0.6,2.2-1.4l3.3-7.1c0.4-0.8,0-1.4-0.9-1.4L195.6,106.1L195.6,106.1z M211.6,106.1
		c-0.8,0-1.8,0.6-2.2,1.4l-3.5,7.2c-0.4,0.7,0,1.4,0.8,1.4h7.7c0.8,0,1.8-0.6,2.3-1.3l4.2-7.3c0.4-0.7,0.1-1.3-0.8-1.3H211.6
		L211.6,106.1z M227.6,106.1c-0.8,0-1.9,0.6-2.3,1.3l-4.5,7.3c-0.4,0.7-0.1,1.3,0.7,1.3h7.6c0.8,0,1.9-0.6,2.4-1.2l5.3-7.4
		c0.5-0.7,0.2-1.2-0.6-1.2L227.6,106.1L227.6,106.1z M267.6,106.1c-0.8,0-2,0.5-2.5,1.1l-6.6,7.5c-0.6,0.6-0.3,1.1,0.5,1.1h7.2
		c0.8,0,2-0.5,2.6-1.1l7.9-7.7c0.6-0.6,0.4-1.1-0.4-1.1L267.6,106.1L267.6,106.1z"/>
	<path class="st7" d="M11.4,79.2c-0.1,0.2,0.5,0.4,1.4,0.4l7.9,0c0.8,0,1.5-0.2,1.5-0.4c0-0.2-0.7-0.4-1.5-0.4H13
		C12.2,78.9,11.4,79,11.4,79.2 M10.8,95.7c0.3-0.8-0.2-1.4-1-1.4H7.9c-0.8,0-1.5,0.2-1.5,0.4C6.3,94.8,7,95,7.9,95h1
		c0.8,0,1.3,0.6,1,1.4l-1.8,5.4c-0.3,0.8,0.2,1.4,1,1.4h5.9c0.8,0,1.5-0.2,1.5-0.4s-0.7-0.4-1.5-0.4h-5c-0.8,0-1.3-0.6-1-1.4
		l0.1-0.4c0.3-0.8,1.2-1.4,2-1.4h4.6c0.8,0,1.5-0.2,1.5-0.4c0-0.2-0.7-0.4-1.5-0.4h-4.3c-0.8,0-1.3-0.6-1-1.4L10.8,95.7L10.8,95.7z
		 M42.4,80.6c0.1-0.8-0.5-1.5-1.3-1.5l-2.3,0c-0.8,0-1.6,0.2-1.6,0.4c-0.1,0.2,0.5,0.3,1.4,0.3h1.8c0.8,0,1.4,0.7,1.3,1.5l-0.3,2.4
		c-0.1,0.8-0.9,1.5-1.7,1.5h-7.3c-0.8,0-1.5,0.2-1.5,0.4c0,0.2,0.7,0.4,1.5,0.4h14.3c0.8,0,1.5-0.2,1.5-0.4c0-0.2-0.7-0.4-1.5-0.4
		h-3.3c-0.8,0-1.4-0.7-1.3-1.5L42.4,80.6L42.4,80.6z M52.4,102.2c0.1-0.8,0.1-1.1-0.2-0.7c-0.3,0.4-0.6,1.4-0.8,2.3l-0.2,1.2
		c-0.2,0.8,0.1,2,0.6,2.7l0.4,0.6c0.5,0.7,1.2,1.5,1.7,1.8c0.4,0.3,0.4,0,0-0.7l-1.3-1.9c-0.5-0.7-0.7-1.9-0.6-2.7L52.4,102.2z
		 M63.7,80.4c0-0.2-0.7-0.3-1.5-0.3l-3,0.1c-0.8,0-1.2,0.2-0.7,0.3c0.4,0.2,1.4,0.3,2.3,0.3h1.4C63,80.7,63.7,80.6,63.7,80.4
		 M68.1,103.9c0.2-0.8,0.1-1.1-0.2-0.7c-0.3,0.4-0.6,1.3-0.8,1.8c-0.1,0.6,0,1.6,0.2,2.3c0.3,0.7,0.7,1.6,1,2
		c0.3,0.4,0.3,0.1,0.1-0.7l-0.4-1.2c-0.3-0.8-0.3-2.1-0.2-2.9L68.1,103.9z M65.2,95.7c-0.8,0-1.5,0.1-1.5,0.3c0,0.2,0.7,0.4,1.5,0.4
		l8.4,0.4c0.8,0,1.7,0.4,2,0.8c0.3,0.4,0.6,0.7,0.8,0.6c0.2-0.1,0-0.6-0.3-1.1c-0.3-0.5-1.3-0.9-2.1-1L65.2,95.7L65.2,95.7z
		 M74.2,79.3c0.3,0.2,1.3,0.4,2.1,0.4h0.6c0.8,0,1.5-0.2,1.5-0.4c0-0.2-0.7-0.4-1.5-0.4l-1.8,0C74.3,78.9,73.8,79,74.2,79.3
		 M84.2,96c-0.8,0-1.5,0.2-1.5,0.4c0,0.2,0.7,0.3,1.5,0.3l4.9-0.2c0.8,0,1.4,0.6,1.3,1.4l-1,6.8c-0.1,0.8,0,2.1,0.2,2.9l0.2,0.7
		c0.2,0.8,0.7,1.8,1.1,2.3c0.3,0.5,0.4,0.2,0.2-0.6l-0.8-2.5c-0.2-0.8-0.3-2.1-0.2-2.9l1.1-7.5c0.1-0.8-0.5-1.5-1.3-1.4L84.2,96
		L84.2,96z M85.9,79.1c0,0.2,0.6,0.5,1.4,0.6l8.4,1c0.8,0.1,1.5,0,1.5-0.2c0-0.2-0.7-0.4-1.5-0.5l-8.2-1
		C86.7,78.9,86,78.9,85.9,79.1 M104.1,100.3c0-0.8-0.6-1.5-1.4-1.5c0,0,0,0-0.1,0h-3c-0.8,0-1.5,0.2-1.5,0.4c0,0.2,0.7,0.4,1.5,0.4
		h2.3c0.8,0,1.5,0.6,1.5,1.4c0,0,0,0,0,0.1l-0.1,3.5c0,0.8,0.1,2.2,0.3,3l0.6,2.2c0.2,0.8,0.6,1.9,0.9,2.3c0.3,0.5,0.3,0.2,0.2-0.6
		l-0.9-4c-0.2-0.8-0.3-2.2-0.3-3L104.1,100.3L104.1,100.3z M99.9,83.2c0,0.2,0.7,0.4,1.5,0.4h2.9c0.8,0,1.9-0.2,2.3-0.4
		c0.4-0.2,0.1-0.4-0.7-0.4l-4.4,0.1C100.6,82.8,99.9,83,99.9,83.2 M119.4,86.8c0-0.8-0.2-1.5-0.4-1.5c-0.2,0-0.4,0.7-0.4,1.5v3.4
		c0,0.8,0.2,1.1,0.4,0.6c0.2-0.5,0.4-1.6,0.4-2.4L119.4,86.8L119.4,86.8z M122.8,99.7c0,0.8-0.7,1.5-1.6,1.5h-2.3
		c-0.8,0-1.5,0.7-1.5,1.5v2.3c0,0.8,0.2,1.5,0.4,1.5c0.2,0,0.4-0.7,0.4-1.5v-1.6c0-0.8,0.7-1.5,1.5-1.5h2.3c0.8,0,1.5-0.7,1.6-1.5
		l0-0.7c0-0.8-0.1-1.5-0.3-1.5C123,98.1,122.8,98.8,122.8,99.7L122.8,99.7z M151.7,101.2c-0.2,0.3-0.2,1.2-0.1,2.1l0.1,1.4
		c0.1,0.8,0.1,2.2,0,3l-1,7.2c-0.1,0.8,0,1.5,0.2,1.5c0.2,0,0.5-0.7,0.6-1.5l0.9-7.1c0.1-0.8,0.1-2.2,0-3l-0.3-2.6
		C152.1,101.4,151.9,100.9,151.7,101.2 M130.5,112.4c0,0.2,0.7,0.4,1.5,0.4h0.4c0.8,0,1.5-0.2,1.5-0.4c0-0.2-0.7-0.4-1.5-0.4H132
		C131.2,112,130.5,112.2,130.5,112.4 M133.2,84.1c0.4,0.2,1.4,0.5,2.2,0.7l5.8,1c0.8,0.3,1.5,0.5,1.5,0.3c0.1-0.2-0.5-0.5-1.3-0.8
		l-7.5-1.3C133.1,83.9,132.8,83.9,133.2,84.1 M133.1,90.7c0.3-0.2-0.1-0.4-0.9-0.4l-0.3,0c-0.8,0-1.5,0.2-1.5,0.4s0.5,0.4,1.1,0.4
		C132,91.1,132.7,90.9,133.1,90.7 M165.9,84.5c0,0.5,0.8,0.8,1.6,0.8h0.7c0.8,0,1.6,0,1.7,0.1c0.1,0,0.6,0.4,0.8,0.3
		c0.2-0.1,0-0.4-0.3-0.6c-0.3-0.2-1.3-0.4-2.1-0.4h-0.1c-0.8,0-1.6-0.7-1.7-1.5l-0.9-8.3c-0.1-0.8-0.3-1.5-0.5-1.5
		c-0.2,0-0.3,0.7-0.2,1.5l0.7,6.6c0.1,0.8-0.5,1.5-1.3,1.5h-2.4c-0.8,0-1.5,0.2-1.5,0.4c0,0.2,0.7,0.4,1.5,0.4h2.5
		C165.2,83.7,165.9,84,165.9,84.5 M164.9,101.1c0.1,0.8-0.2,2.1-0.7,2.8l-0.6,0.7c-0.2,0.8-0.2,1.5,0,1.5c0.2,0,0.6-0.6,0.8-1.4
		c0,0,0.1-0.3,0.4-0.8c0.3-0.4,0.6-0.8,0.7-0.8c0.1,0,0.1-0.7,0.1-1.5l-0.3-3.8c-0.1-0.8,0.5-1.4,1.3-1.5c0,0,0.1,0,0.1,0h5.7
		c0.8,0,1.5-0.2,1.5-0.4c0-0.2-0.7-0.4-1.5-0.4h-6.4c-0.8,0-1.5,0.7-1.4,1.5L164.9,101.1L164.9,101.1z M176.8,98.1
		c0,0.2,0.7,0.4,1.5,0.4h3.8c0.8,0,1.8-0.2,2.2-0.4c0.4-0.2,0-0.4-0.9-0.4l-5.1,0C177.5,97.8,176.8,97.9,176.8,98.1 M180.1,88.2
		c0.2,0.2,1.1,0.3,1.9,0.3h1.1c0.8,0,1.5-0.2,1.5-0.4c0-0.2-0.7-0.3-1.5-0.3l-1.9,0C180.4,87.8,179.9,88,180.1,88.2 M160.7,112.9
		c0,0.2,0.7,0.4,1.5,0.5l8.4,0.6c0.8,0.1,1.5,0,1.5-0.2c0-0.2-0.7-0.4-1.5-0.5l-8.4-0.6C161.4,112.6,160.7,112.7,160.7,112.9
		 M209.7,97.9c-0.8,0-1.5,0.2-1.5,0.4c0,0.2,0.7,0.3,1.5,0.3l10.3,1.1c0.8,0.1,1.6,0,1.6-0.2c0.1-0.2-0.6-0.4-1.4-0.5L209.7,97.9
		L209.7,97.9z M241.7,84.8c-0.2,0.1-0.3,0.8-0.3,1.6l0.9,4.7c-0.4,0.8-0.5,1.4-0.3,1.5c0.2,0.1,0.6-0.5,1-1.2l-0.9-5.3
		C242.1,85.4,241.9,84.8,241.7,84.8 M236.2,76c-0.7,0-1.5-0.6-1.8-1.4c-0.2-0.8-0.6-1.4-0.8-1.3c-0.2,0.1-0.1,0.8,0.1,1.5l0.1,0.4
		c0.2,0.8,1.1,1.4,1.8,1.4c0.7,0,1.6,0.6,1.8,1.4l0.4,1c0.3,0.8,0.6,1.4,0.8,1.3c0.2-0.1,0.1-0.8-0.2-1.5l-0.5-1.5
		C237.8,76.7,237,76,236.2,76 M264.1,96.5c-0.8,0-1.5,0.2-1.5,0.4c0,0.2,0.7,0.4,1.5,0.4h9.7c0.8,0,1.5-0.2,1.5-0.4
		c0-0.2-0.7-0.4-1.5-0.4H264.1z M271.4,79.9c0.2-0.1,0.2-0.7-0.1-1.5l-1-3.6c-0.2-0.8-0.5-1.4-0.7-1.4c-0.2,0.1-0.2,0.7,0.1,1.5
		l1,3.6C270.9,79.3,271.3,80,271.4,79.9"/>
	<path class="st7" d="M36.8,79.7H40c0.8,0,0.8-0.1,0-0.3l-1.1-0.2c-0.8-0.2-1.4,0-1.4,0.3C37.6,79.5,36.8,79.7,36.8,79.7z M19.2,111
		c-0.3-0.4-1.3-0.6-2.1-0.5l-1.8,0.2c-0.8,0.1-0.8,0.3,0,0.4l3,0.4C19.1,111.6,19.5,111.4,19.2,111 M49.1,114.9
		c-0.2-0.4-1.1-0.6-1.9-0.5l-3.9,0.3c-0.8,0.1-0.8,0.2,0,0.3l4.8,0.4C48.8,115.5,49.3,115.2,49.1,114.9 M85.3,113.4
		c-0.1-0.3,0.5-0.6,1.3-0.5l1,0c0.8,0,0.9,0.2,0.1,0.5l-0.7,0.2C86.1,113.8,85.4,113.7,85.3,113.4 M126.7,111.1
		c-0.1-0.5-0.8-0.8-1.6-0.7l-2.8,0.4c-0.8,0.1-0.8,0.3,0,0.4l3,0.5C126.2,111.9,126.8,111.6,126.7,111.1 M130.2,112.8
		c0-0.5,0.6-0.8,1.4-0.7l0.1,0c0.8,0.1,0.9,0.5,0.1,0.8l-0.2,0.1C130.9,113.4,130.2,113.3,130.2,112.8 M104,104.7
		c-0.1-0.7-0.3-0.8-0.4-0.1c-0.1,0.6,0,1.8,0.2,2.6l0.2,0.6c0.2,0.8,0.4,0.8,0.3-0.1l0-0.3C104.2,106.6,104.1,105.6,104,104.7
		 M117.7,105.2c-0.2-0.3-0.3,0.1-0.2,1l0,0.4c0,0.8,0.2,1,0.3,0.3C117.9,106.3,117.9,105.5,117.7,105.2 M89.9,104.9
		c0-0.7-0.2-0.7-0.3,0c-0.1,0.7,0,1.9,0.2,2.7l0.2,0.7c0.3,0.8,0.4,0.8,0.2-0.1l-0.1-0.5C90,106.8,89.9,105.9,89.9,104.9
		 M67.5,105.5c-0.1-0.3-0.3-0.2-0.5,0.1c-0.1,0.4,0,1,0.3,1.5c0.3,0.5,0.5,0.4,0.5-0.1C67.7,106.4,67.6,105.8,67.5,105.5 M51.8,105
		c-0.2-0.7-0.5-0.6-0.6,0.2v0c-0.2,0.8,0.1,1.9,0.7,2.5c0.6,0.6,0.9,0.5,0.6-0.2C52.3,106.7,52,105.8,51.8,105 M23.7,103.9
		c-0.2-0.3,0.3-0.5,1.1-0.4l2.4,0.2c0.8,0.1,0.8,0.2,0,0.3l-1.6,0.2C24.8,104.4,23.9,104.2,23.7,103.9 M151.9,104.4
		c0.1-0.8,0.4-0.8,0.5,0l0.1,0.3c0.2,0.8,0.1,2.1-0.1,2.9l-0.3,1.1c-0.2,0.8-0.4,0.8-0.4-0.1l0-1c0-0.8,0.1-2.2,0.2-3L151.9,104.4z
		 M142.5,86.3c0,0.4-0.6,0.3-1.2-0.2l-0.4-0.3c-0.7-0.5-0.6-0.7,0.2-0.5l0,0C141.8,85.5,142.5,86,142.5,86.3 M188.4,110.2
		c0.1-0.3-0.5-0.6-1.3-0.5l-1.1,0c-0.8,0-0.9,0.2-0.1,0.5l0.9,0.2C187.6,110.6,188.3,110.6,188.4,110.2 M182.5,105.2
		c-0.2-0.5-0.4-0.2-0.4,0.6l0,0.2c0,0.8,0.2,1.2,0.4,0.8C182.8,106.4,182.7,105.7,182.5,105.2 M203.4,111.7c0.1-0.4-0.4-0.6-1.3-0.5
		l-2.9,0.2c-0.8,0.1-0.8,0.2,0,0.3l2.4,0.4C202.5,112.3,203.2,112.1,203.4,111.7 M200.4,105.4c-0.1-0.4-0.3-0.4-0.4-0.1
		c-0.1,0.4-0.1,1.2,0.1,1.8c0.1,0.6,0.3,0.6,0.4,0.1C200.6,106.6,200.6,105.8,200.4,105.4 M242.1,92.9c-0.3-0.1-0.3-0.8,0.1-1.5
		c0.3-0.7,0.6-0.7,0.5,0.2l0,0C242.7,92.4,242.4,93,242.1,92.9 M222.4,110.9c0.3-0.4,1.2-0.5,2-0.4l4.1,0.6c0.8,0.1,0.8,0.2,0,0.3
		l-5.1,0.1C222.5,111.5,222.1,111.2,222.4,110.9 M260.9,110.9c0.4-0.5,1.3-0.8,2.1-0.6l3.7,0.7c0.8,0.2,0.8,0.3,0,0.4l-5,0.3
		C260.9,111.7,260.6,111.4,260.9,110.9 M262.4,96.8c-0.2-0.5,0.4-0.9,1.2-0.8l3.4,0.5c0.8,0.1,0.8,0.3,0,0.5l-2.8,0.5
		C263.4,97.7,262.6,97.3,262.4,96.8 M258.5,80.4c-0.3-0.2-0.5-1.1-0.5-1.9l0-0.2c0-0.8,0.1-0.9,0.3,0l0.3,1.1
		C258.8,80.2,258.8,80.7,258.5,80.4 M221.1,100.1l-2.1-0.9c-0.8-0.3-0.7-0.5,0.1-0.4l2.3,0.2 M140.4,106.9c0.2-0.5,0.2-1.2,0-1.6
		c-0.2-0.4-1-0.8-1.8-0.8h-0.9c-0.8,0-1.7,0.4-2,0.9c-0.3,0.5,0.1,1.1,0.9,1.3l2,0.6C139.5,107.6,140.3,107.4,140.4,106.9"/>
	<path class="st7" d="M139,105.8c-0.6-0.6-0.5-1.1,0.1-1.1c0.6,0,1.3,0.3,1.6,0.6c0.3,0.4,0.2,1.2-0.3,1.9l-0.2,0.3
		c-0.4,0.7-0.7,0.8-0.5,0.3C139.9,107.3,139.6,106.4,139,105.8 M85.8,79.3c0.1-0.5,0.8-0.7,1.6-0.5l0.4,0.1c0.8,0.2,0.8,0.5,0,0.7
		l-0.6,0.1C86.4,80,85.7,79.8,85.8,79.3 M47.8,85.7c-0.2,0.3-1,0.4-1.8,0.2l-0.5-0.1c-0.8-0.2-0.8-0.4,0-0.4l1-0.1
		C47.4,85.2,47.9,85.4,47.8,85.7 M17.2,98.7c0.1-0.4-0.4-0.6-1.2-0.4l-1.3,0.2c-0.8,0.2-0.8,0.4,0,0.5l0.8,0.1
		C16.2,99.3,17,99.1,17.2,98.7"/>
	<path class="st9" d="M19.5,111.1c-0.3-0.3-0.3-1.2,0-2l0.3-1.1c0.2-0.8,0.4-0.8,0.4,0.1l-0.1,2C20,111,19.8,111.4,19.5,111.1
		 M48.9,115c-0.3-0.2-0.3-0.9,0-1.6c0.3-0.7,0.5-0.6,0.5,0.2v0.2C49.4,114.6,49.2,115.2,48.9,115 M75.4,97.3c0-0.5,0.2-0.3,0.5,0.5
		l0.2,0.5c0.3,0.8,0.3,1.1,0,0.7C75.7,98.6,75.4,97.8,75.4,97.3 M222.7,111.4c0.3-0.2,0.3-1.1,0.1-1.9l-0.3-1.2
		c-0.2-0.8-0.4-0.8-0.4,0.1l0,1.9C222.2,111.1,222.4,111.6,222.7,111.4 M261.5,111.1c0.4-0.2,0.5-1,0.1-1.8l-1.6-3.4
		c-0.3-0.8-0.5-0.7-0.4,0.1l0.7,4C260.6,110.9,261.1,111.3,261.5,111.1 M263.1,96.7c-0.2-0.3-0.6,0-1,0.8l-1.6,3.3
		c-0.4,0.7-0.3,0.8,0.2,0.1l1.7-2.4C263,97.9,263.3,97,263.1,96.7"/>
	<path class="st7" d="M237.9,80.6l0.1-1.9c0-0.8,0.2-0.9,0.4,0l0.6,2.2"/>
	<path class="st10" d="M13.9,111.9c-0.7-0.2-0.7-0.4,0.1-0.3c0.9,0.1,1.8,0.2,2.6,0.3c0.6,0.1,0.6,0.2-0.1,0.3
		C15.9,112.3,14.7,112.2,13.9,111.9 M51.1,107.8c-0.6-0.6-0.7-0.5-0.2,0.2l0.6,0.8c0.5,0.7,1.2,1.5,1.7,1.8c0.5,0.3,0.4,0.1-0.1-0.5
		C52.6,109.3,51.9,108.6,51.1,107.8L51.1,107.8z M66.3,106.1c-0.2,0-0.1,0.6,0.2,1.2c0.3,0.7,0.5,0.7,0.4,0
		C66.8,106.7,66.5,106.1,66.3,106.1 M87.9,113.6c-0.6-0.1-0.5-0.2,0.3-0.4l0.9-0.2c0.8-0.1,1.1-0.1,0.7,0.2
		C89.4,113.6,88.6,113.7,87.9,113.6 M103,107.4c-0.3-0.4-0.4-0.2-0.2,0.6c0.2,0.7,0.6,1.9,0.9,2.5c0.4,0.6,0.5,0.5,0.3-0.3l-0.1-0.6
		C103.7,108.8,103.3,107.8,103,107.4 M153,108.6c-0.1-0.5-0.3-0.4-0.5,0.2c-0.2,0.6-0.4,1.7-0.4,2.5c0,0.8,0.2,0.8,0.5,0l0.1-0.3
		C153,110.2,153.1,109.1,153,108.6 M136.3,105.4c-0.2-0.5-0.5-0.4-0.8,0.2c-0.3,0.6,0.1,1.4,0.8,1.7l0,0c0.7,0.4,1.1,0.3,0.8-0.2
		C136.9,106.7,136.5,105.9,136.3,105.4 M164.3,113.9c-0.7-0.2-0.7-0.4,0.2-0.4h0.3c0.8,0,2.1,0.2,2.9,0.5c0.7,0.3,0.7,0.4-0.2,0.4
		l-0.3,0C166.3,114.3,165,114.1,164.3,113.9 M183.2,107.4c-0.1-0.3-0.3,0-0.5,0.6c-0.2,0.6-0.2,0.9,0.1,0.5
		C183,108.2,183.2,107.6,183.2,107.4 M201.3,106.7c-0.1-0.3-0.3,0-0.5,0.6c-0.2,0.6-0.2,0.9,0.1,0.5
		C201.2,107.5,201.4,107,201.3,106.7 M198.4,112.2c-0.8-0.2-0.8-0.4,0-0.4l0.6-0.1c0.8-0.1,1.8,0.1,2.3,0.3c0.4,0.3,0.3,0.5-0.3,0.5
		S199.3,112.3,198.4,112.2L198.4,112.2z M225.1,112.1c-0.7,0.1-0.7-0.1,0-0.3c0.7-0.2,2-0.4,2.9-0.3l1.1,0.1c0.8,0.1,0.8,0.2,0,0.2
		l-1.1,0.1C227.1,112,225.8,112.1,225.1,112.1"/>
	<path class="st9" d="M242.3,93.1c-0.4,0.2-1,0.9-1.3,1.7l0,0c-0.3,0.8-0.2,0.9,0.3,0.2l0.8-1C242.6,93.4,242.7,93,242.3,93.1"/>
	<path class="st7" d="M271.5,80.3c-0.4,0-0.7-0.7-0.8-1.5l-0.1-0.6c-0.1-0.8,0.1-0.9,0.5-0.1l0.4,0.9
		C271.9,79.6,271.9,80.3,271.5,80.3 M160.4,83.6c0-0.4,0.6-0.7,1.5-0.7l0.5,0c0.8,0,0.9,0.3,0.1,0.6l-0.6,0.3
		C161.1,84.1,160.4,84,160.4,83.6 M119.1,85.1c-0.3-0.2-0.5,0.4-0.4,1.2l0.1,0.7c0.1,0.8,0.3,0.8,0.5,0l0-0.1
		C119.5,86.1,119.4,85.3,119.1,85.1 M82.1,96.6C82,96.3,82.6,96,83.4,96h3.2c0.8,0,0.8,0.1,0,0.3l-2.9,0.6
		C82.9,97.1,82.2,96.9,82.1,96.6 M16.5,103.1c0-0.2-0.6-0.4-1.4-0.4h-0.8c-0.8,0-0.9,0.2,0,0.4l0.7,0.2
		C15.7,103.3,16.4,103.3,16.5,103.1"/>
	<path class="st11" d="M4.8,105.8c-0.8,0-1.4,0.1-1.2,0.3c0.2,0.2,1,0.3,1.8,0.3h6.2c0.8,0,1.6-0.2,1.8-0.4c0.2-0.2-0.4-0.3-1.2-0.3
		C12.1,105.7,4.8,105.8,4.8,105.8z M32.7,105.8c-0.8,0-1.4,0.1-1.2,0.3c0.2,0.2,1,0.3,1.8,0.3h6.2c0.8,0,1.6-0.2,1.8-0.4
		c0.2-0.2-0.4-0.3-1.2-0.3L32.7,105.8z M48.3,105.6c-0.8,0-1.5,0.2-1.4,0.3c0.1,0.2,0.8,0.3,1.6,0.3h0.1c0.8,0,1.6-0.2,1.6-0.4
		c0.1-0.2-0.6-0.3-1.4-0.3L48.3,105.6z M20.4,92c-0.8,0-1.5,0.2-1.4,0.3c0.1,0.2,0.8,0.3,1.6,0.3h0.1c0.8,0,1.6-0.2,1.6-0.4
		c0.1-0.2-0.6-0.3-1.4-0.3L20.4,92L20.4,92z M31.9,92c-0.8,0-1.5,0.2-1.4,0.3c0.1,0.2,0.8,0.3,1.6,0.3h0.1c0.8,0,1.6-0.2,1.6-0.4
		c0.1-0.2-0.6-0.3-1.4-0.3L31.9,92z M8.8,93.8c-0.8,0-1.5,0.2-1.4,0.4c0,0.2,0.7,0.3,1.5,0.3s1.4-0.2,1.5-0.4
		c0.1-0.2-0.6-0.3-1.4-0.3L8.8,93.8L8.8,93.8z M22.7,98.5c-0.8,0-1.4,0.2-1.3,0.3c0.1,0.2,0.9,0.3,1.7,0.3h2.8
		c0.8,0,1.6-0.2,1.7-0.4c0.1-0.2-0.5-0.3-1.3-0.3L22.7,98.5z M16.3,78.4c-0.8,0-1.4,0.2-1.3,0.3c0.1,0.2,0.9,0.3,1.7,0.3h2.8
		c0.8,0,1.6-0.2,1.7-0.4c0.1-0.2-0.5-0.3-1.3-0.3C19.8,78.3,16.3,78.4,16.3,78.4z M64.4,105.6c-0.8,0-1.5,0.2-1.4,0.3
		c0.1,0.2,0.8,0.3,1.6,0.3h0.1c0.8,0,1.6-0.2,1.6-0.4c0.1-0.2-0.6-0.3-1.4-0.3L64.4,105.6z M91.8,105.6c-0.8,0-1.5,0.2-1.4,0.3
		c0,0.2,0.7,0.3,1.5,0.3c0.8,0,1.4-0.2,1.5-0.4c0.1-0.2-0.6-0.3-1.4-0.3L91.8,105.6z M69.5,105.7c-0.8,0-1.4,0.2-1.3,0.3
		c0.1,0.2,0.8,0.3,1.7,0.3h2.1c0.8,0,1.6-0.2,1.7-0.4c0.1-0.2-0.5-0.3-1.3-0.3L69.5,105.7z M84,105.7c-0.8,0-1.4,0.2-1.3,0.3
		c0.1,0.2,0.9,0.3,1.7,0.3H87c0.8,0,1.6-0.2,1.7-0.4c0.1-0.2-0.5-0.3-1.3-0.3L84,105.7L84,105.7z M100.1,105.6
		c-0.8,0-1.5,0.2-1.4,0.3c0.1,0.2,0.8,0.3,1.6,0.3h1.1c0.8,0,1.6-0.2,1.6-0.4c0.1-0.2-0.5-0.3-1.4-0.3L100.1,105.6L100.1,105.6z
		 M131.9,105.6c-0.8,0-1.5,0.2-1.4,0.3c0.1,0.2,0.8,0.3,1.6,0.3h1.1c0.8,0,1.6-0.2,1.6-0.4c0.1-0.2-0.5-0.3-1.4-0.3L131.9,105.6
		L131.9,105.6z M154.6,105.6c-0.8,0-1.5,0.2-1.4,0.3c0.1,0.2,0.8,0.3,1.6,0.3h0.7c0.8,0,1.6-0.2,1.6-0.4c0.1-0.2-0.6-0.3-1.4-0.3
		L154.6,105.6L154.6,105.6z M165.9,105.7c-0.8,0-1.4,0.2-1.3,0.3c0.1,0.2,0.9,0.3,1.8,0.3h4.9c0.8,0,1.6-0.2,1.8-0.4
		s-0.4-0.3-1.3-0.3L165.9,105.7L165.9,105.7z M179.8,105.6c-0.8,0-1.5,0.2-1.4,0.3c0.1,0.2,0.8,0.3,1.6,0.3h0.2
		c0.8,0,1.6-0.2,1.6-0.4c0.1-0.2-0.6-0.3-1.4-0.3L179.8,105.6L179.8,105.6z M184.8,105.7c-0.8,0-1.4,0.2-1.3,0.3
		c0.1,0.2,0.8,0.3,1.7,0.3h2.1c0.8,0,1.6-0.2,1.7-0.4c0.1-0.2-0.5-0.3-1.3-0.3L184.8,105.7L184.8,105.7z M195.9,105.6
		c-0.8,0-1.4,0.2-1.4,0.3c0.1,0.2,0.8,0.3,1.7,0.3h1.3c0.8,0,1.6-0.2,1.6-0.4s-0.5-0.3-1.4-0.3L195.9,105.6z M202.5,105.6
		c-0.8,0-1.5,0.2-1.4,0.3c0.1,0.2,0.8,0.3,1.6,0.3h0.5c0.8,0,1.6-0.2,1.6-0.4c0.1-0.2-0.6-0.3-1.4-0.3L202.5,105.6L202.5,105.6z
		 M211.9,105.7c-0.8,0-1.4,0.1-1.2,0.3c0.2,0.2,1,0.3,1.8,0.3h6.8c0.8,0,1.7-0.2,1.8-0.4c0.2-0.2-0.4-0.3-1.2-0.3L211.9,105.7z
		 M227.7,105.7c-0.8,0-1.4,0.1-1.2,0.3c0.2,0.2,1,0.3,1.8,0.3h6.8c0.8,0,1.7-0.2,1.8-0.4c0.2-0.2-0.4-0.3-1.2-0.3L227.7,105.7
		L227.7,105.7z M267.9,105.7c-0.8,0-1.4,0.1-1.2,0.3c0.2,0.2,1,0.3,1.8,0.3h6.8c0.8,0,1.7-0.2,1.8-0.4c0.2-0.2-0.4-0.3-1.2-0.3
		L267.9,105.7z M253.1,78.9c-0.8,0-1.4,0.2-1.3,0.3c0.1,0.2,0.9,0.3,1.7,0.3h2.5c0.8,0,1.6-0.2,1.7-0.4c0.1-0.2-0.5-0.3-1.3-0.3
		L253.1,78.9z M240.6,78.9c-0.8,0-1.4,0.2-1.3,0.3c0.1,0.2,0.9,0.3,1.7,0.3h3.3c0.8,0,1.6-0.2,1.7-0.4c0.1-0.2-0.5-0.3-1.3-0.3
		C244.7,78.9,240.6,78.9,240.6,78.9z M234.3,78.9c-0.8,0-1.4,0.2-1.4,0.3c0.1,0.2,0.8,0.3,1.7,0.3h1.4c0.8,0,1.6-0.2,1.7-0.4
		c0.1-0.2-0.5-0.3-1.4-0.3C236.2,78.9,234.3,78.9,234.3,78.9z M236.4,91.9c-0.8,0-1.4,0.2-1.3,0.3c0.1,0.2,0.9,0.3,1.7,0.3h2.7
		c0.8,0,1.6-0.2,1.7-0.4c0.1-0.2-0.5-0.3-1.3-0.3L236.4,91.9L236.4,91.9z M197.7,78.1c-0.8,0-1.4,0.2-1.4,0.3
		c0.1,0.2,0.8,0.3,1.7,0.3h1.4c0.8,0,1.6-0.2,1.7-0.4c0.1-0.2-0.5-0.3-1.4-0.3C199.7,78,197.7,78.1,197.7,78.1z M206.7,78.1
		c-0.8,0-1.4,0.2-1.4,0.3c0.1,0.2,0.8,0.3,1.7,0.3h1.4c0.8,0,1.6-0.2,1.7-0.4c0.1-0.2-0.5-0.3-1.4-0.3
		C208.6,78,206.7,78.1,206.7,78.1z M200.9,83.8c-0.7,0-1.2,0.2-1.1,0.4c0,0.2,0.6,0.3,1.2,0.3c0.6,0,1.1-0.2,1.1-0.4
		C202.1,83.9,201.6,83.7,200.9,83.8 M204.1,81.9c-0.8,0-1.5,0.2-1.4,0.4c0,0.2,0.7,0.3,1.4,0.3c0.7,0,1.4-0.2,1.4-0.4
		C205.6,82,205,81.9,204.1,81.9L204.1,81.9z M164.1,82.3c-0.8,0-1.5,0.2-1.4,0.4c0,0.2,0.7,0.3,1.4,0.3s1.4-0.2,1.4-0.4
		C165.6,82.4,165,82.2,164.1,82.3C164.1,82.3,164.1,82.3,164.1,82.3z M174.1,91.6c-0.8,0-1.5,0.2-1.4,0.3c0.1,0.2,0.8,0.3,1.6,0.3
		h0.3c0.8,0,1.6-0.2,1.6-0.4c0.1-0.2-0.6-0.3-1.4-0.3L174.1,91.6z M167.1,95c-0.8,0-1.4,0.2-1.3,0.3c0.1,0.2,0.8,0.3,1.7,0.3h2.1
		c0.8,0,1.6-0.2,1.7-0.4c0.1-0.2-0.5-0.3-1.3-0.3L167.1,95L167.1,95z M266.9,95.7c-0.8,0-1.4,0.2-1.3,0.3c0.1,0.2,0.8,0.3,1.7,0.3
		h2.1c0.8,0,1.6-0.2,1.7-0.4c0.1-0.2-0.5-0.3-1.3-0.3L266.9,95.7L266.9,95.7z M100.9,98.3c-0.8,0-1.5,0.2-1.4,0.3
		c0.1,0.2,0.8,0.3,1.6,0.3h0.8c0.8,0,1.6-0.2,1.6-0.4c0.1-0.2-0.6-0.3-1.4-0.3L100.9,98.3z M86.8,95.5c-0.8,0-1.5,0.2-1.4,0.3
		s0.8,0.3,1.6,0.3h0.8c0.8,0,1.6-0.2,1.6-0.4c0.1-0.2-0.6-0.3-1.4-0.3L86.8,95.5z M66.7,95.2c-0.8,0-1.5,0.2-1.4,0.3
		c0.1,0.2,0.8,0.3,1.6,0.3h0.8c0.8,0,1.6-0.2,1.6-0.4c0.1-0.2-0.6-0.3-1.4-0.3L66.7,95.2L66.7,95.2z M36.2,84.5
		c-0.8,0-1.4,0.2-1.3,0.3c0.1,0.2,0.8,0.3,1.7,0.3l2.2,0c0.8,0,1.6-0.2,1.7-0.3c0.1-0.2-0.5-0.3-1.3-0.3L36.2,84.5L36.2,84.5z
		 M93.3,79.4c-0.8-0.1-1.5,0-1.4,0.1c0,0.2,0.8,0.4,1.6,0.5l0.8,0.1c0.8,0.1,1.6,0.1,1.7-0.1c0.1-0.2-0.5-0.4-1.3-0.5
		C94.6,79.5,93.3,79.4,93.3,79.4z M179.9,97.2c-0.8,0-1.5,0.2-1.4,0.3c0.1,0.2,0.8,0.3,1.6,0.3h0.8c0.8,0,1.6-0.2,1.6-0.4
		c0.1-0.2-0.6-0.3-1.4-0.3L179.9,97.2L179.9,97.2z M205.3,94.7c-0.8,0-1.5,0.2-1.4,0.3c0.1,0.2,0.8,0.3,1.6,0.3h0.8
		c0.8,0,1.6-0.2,1.6-0.4c0.1-0.2-0.6-0.3-1.4-0.3L205.3,94.7L205.3,94.7z M144.2,78.7c-0.8,0-1.3,0.1-1.1,0.3
		c0.2,0.2,1.1,0.3,1.9,0.3h8.9c0.8,0,1.7-0.2,1.9-0.4c0.2-0.2-0.3-0.3-1.1-0.3L144.2,78.7z M114,78.8c-0.8,0-1.3,0.1-1.1,0.3
		c0.2,0.2,1.1,0.3,1.9,0.3h9.3c0.8,0,1.7-0.2,1.9-0.4c0.2-0.2-0.3-0.3-1.1-0.3L114,78.8L114,78.8z M112.4,91.6
		c-0.8,0-1.4,0.2-1.3,0.3c0.1,0.2,0.9,0.3,1.7,0.3h3.7c0.8,0,1.6-0.2,1.7-0.4c0.1-0.2-0.5-0.3-1.3-0.3L112.4,91.6L112.4,91.6z
		 M120.5,91.6c-0.8,0-1.4,0.2-1.3,0.3c0.1,0.2,0.9,0.3,1.7,0.3h3.3c0.8,0,1.6-0.2,1.7-0.4c0.1-0.2-0.5-0.3-1.3-0.3L120.5,91.6
		L120.5,91.6z M137.9,104c-0.8,0-1.5,0.2-1.4,0.3c0.1,0.2,0.8,0.3,1.6,0.3h0c0.8,0,1.6-0.2,1.6-0.4c0.1-0.2-0.6-0.3-1.4-0.3
		L137.9,104L137.9,104z M135.5,83.3c-0.8-0.1-1.5,0-1.4,0.1c0.1,0.2,0.8,0.4,1.6,0.5l1.5,0.2c0.8,0.1,1.6,0.1,1.7-0.1
		s-0.5-0.4-1.3-0.5L135.5,83.3z M211.3,97.2c-0.8-0.1-1.5,0-1.4,0.1c0.1,0.2,0.8,0.4,1.6,0.5l1.5,0.2c0.8,0.1,1.6,0.1,1.7-0.1
		c0.1-0.2-0.5-0.4-1.3-0.5L211.3,97.2z M208.6,83.8c-0.6,0-1.1,0.2-1.1,0.4c0,0.2,0.5,0.3,1.1,0.3c0.6,0,1-0.2,1.1-0.4
		C209.7,83.9,209.2,83.7,208.6,83.8 M244.4,91.9c-0.8,0-1.4,0.2-1.3,0.3c0.1,0.2,0.9,0.3,1.7,0.3h3.3c0.8,0,1.6-0.2,1.7-0.4
		c0.1-0.2-0.5-0.3-1.3-0.3L244.4,91.9z M273.5,78.9c-0.8,0-1.4,0.2-1.4,0.3c0.1,0.2,0.8,0.3,1.7,0.3h1.5c0.8,0,1.6-0.2,1.7-0.4
		c0.1-0.2-0.5-0.3-1.4-0.3L273.5,78.9z M143,105.7c-0.8,0-1.4,0.2-1.2,0.3c0.2,0.2,1,0.3,1.8,0.3h5.7c0.8,0,1.6-0.2,1.8-0.4
		c0.2-0.2-0.4-0.3-1.2-0.3L143,105.7L143,105.7z M106,105.7c-0.8,0-1.3,0.1-1.1,0.3c0.2,0.2,1,0.3,1.9,0.3h8.4
		c0.8,0,1.7-0.2,1.9-0.4c0.2-0.2-0.3-0.3-1.1-0.3L106,105.7L106,105.7z M119.7,105.7c-0.8,0-1.4,0.2-1.3,0.3
		c0.1,0.2,0.9,0.3,1.7,0.3h3.2c0.8,0,1.6-0.2,1.7-0.4c0.1-0.2-0.5-0.3-1.3-0.3L119.7,105.7z M54.3,105.7c-0.8,0-1.4,0.2-1.4,0.3
		c0.1,0.2,0.8,0.3,1.6,0.3h1.4c0.8,0,1.6-0.2,1.6-0.4c0.1-0.2-0.5-0.3-1.4-0.3L54.3,105.7L54.3,105.7z"/>
</g>
<g id="Layer_3" class="st0">
	<path class="st12" d="M280.5,105.4v-4.9h-6.1v-7.7l-0.2,0.1l-5.7,1.8l-0.1,0v5.8h-9.1v-3.2c0-1.5,0.3-2.7,1-3.4
		c0.7-0.8,1.6-1.1,2.8-1.1c0.9,0,1.8,0.2,2.7,0.6l0.2,0.1v-5.2l-0.1,0c-0.8-0.3-2-0.5-3.4-0.5c-1.8,0-3.4,0.4-4.8,1.2
		c-1.4,0.8-2.5,1.9-3.3,3.3c-0.8,1.4-1.2,3-1.2,4.8v3.6h-4.3v4.9h4.3v20.7h6.1v-20.7h9.1v13.2c0,5.4,2.6,8.2,7.6,8.2
		c0.8,0,1.7-0.1,2.6-0.3c0.9-0.2,1.5-0.4,1.9-0.6l0.1,0v-5l-0.2,0.2c-0.3,0.2-0.7,0.4-1.2,0.5c-0.5,0.1-0.9,0.2-1.2,0.2
		c-1.2,0-2.1-0.3-2.6-0.9c-0.5-0.6-0.8-1.7-0.8-3.3v-12.1H280.5L280.5,105.4z M235.3,121.8c-2.2,0-4-0.7-5.2-2.2
		c-1.2-1.5-1.9-3.5-1.9-6.2c0-2.7,0.6-4.9,1.9-6.3c1.2-1.5,3-2.2,5.2-2.2c2.1,0,3.8,0.7,5,2.1c1.2,1.4,1.8,3.5,1.8,6.3
		c0,2.8-0.6,4.9-1.7,6.4C239.2,121.1,237.5,121.8,235.3,121.8 M235.5,99.9c-4.2,0-7.6,1.2-10,3.7c-2.4,2.4-3.6,5.8-3.6,10.1
		c0,4,1.2,7.3,3.5,9.6c2.3,2.4,5.5,3.5,9.5,3.5c4.1,0,7.4-1.3,9.8-3.7c2.4-2.5,3.6-5.8,3.6-10c0-4.1-1.1-7.3-3.4-9.7
		C242.7,101.1,239.5,99.9,235.5,99.9 M212.1,99.9c-2.9,0-5.3,0.7-7.1,2.2c-1.8,1.5-2.8,3.4-2.8,5.7c0,1.2,0.2,2.3,0.6,3.2
		c0.4,0.9,1,1.7,1.8,2.4c0.8,0.7,2.1,1.4,3.7,2.1c1.4,0.6,2.4,1.1,3.1,1.4c0.6,0.4,1.1,0.8,1.4,1.1c0.3,0.4,0.4,0.8,0.4,1.5
		c0,1.7-1.3,2.6-3.9,2.6c-1,0-2.1-0.2-3.3-0.6c-1.2-0.4-2.4-1-3.4-1.7l-0.3-0.2v5.9l0.1,0c0.9,0.4,2,0.7,3.2,1
		c1.3,0.3,2.4,0.4,3.5,0.4c3.1,0,5.6-0.7,7.5-2.2c1.8-1.5,2.8-3.4,2.8-5.8c0-1.7-0.5-3.2-1.5-4.4c-1-1.2-2.7-2.3-5.1-3.2
		c-1.9-0.8-3.1-1.4-3.6-1.9c-0.5-0.5-0.7-1.1-0.7-2c0-0.7,0.3-1.3,0.9-1.8c0.6-0.5,1.5-0.7,2.6-0.7c1,0,2.1,0.2,3.1,0.5
		c1,0.3,1.9,0.7,2.7,1.3l0.2,0.2V101l-0.1,0c-0.7-0.3-1.6-0.6-2.7-0.8C214,100,213,99.9,212.1,99.9 M186.3,121.8
		c-2.2,0-4-0.7-5.2-2.2c-1.2-1.5-1.9-3.5-1.9-6.2c0-2.7,0.6-4.9,1.9-6.3c1.2-1.5,3-2.2,5.1-2.2c2.1,0,3.8,0.7,5,2.1
		c1.2,1.4,1.8,3.5,1.8,6.3c0,2.8-0.6,4.9-1.7,6.4C190.2,121.1,188.5,121.8,186.3,121.8 M186.6,99.9c-4.2,0-7.6,1.2-10,3.7
		c-2.4,2.4-3.6,5.8-3.6,10.1c0,4,1.2,7.3,3.5,9.6c2.3,2.4,5.5,3.5,9.5,3.5c4.1,0,7.4-1.3,9.8-3.7c2.4-2.5,3.6-5.8,3.6-10
		c0-4.1-1.1-7.3-3.4-9.7C193.7,101.1,190.6,99.9,186.6,99.9 M163.7,104.9v-4.4h-6v25.7h6V113c0-2.2,0.5-4.1,1.5-5.5
		c1-1.4,2.3-2.1,3.9-2.1c0.5,0,1.2,0.1,1.8,0.3c0.7,0.2,1.1,0.4,1.4,0.6l0.3,0.2v-6.1l-0.1,0c-0.6-0.2-1.4-0.4-2.4-0.4
		c-1.5,0-2.9,0.5-4,1.4C165.1,102.3,164.3,103.5,163.7,104.9L163.7,104.9z M146.8,99.9c-2.8,0-5.2,0.6-7.3,1.8
		c-2.1,1.2-3.7,2.8-4.8,5c-1.1,2.1-1.7,4.6-1.7,7.4c0,2.4,0.5,4.7,1.6,6.6c1.1,2,2.6,3.5,4.5,4.6c1.9,1.1,4.1,1.6,6.6,1.6
		c2.9,0,5.3-0.6,7.3-1.7l0.1,0v-5.5l-0.3,0.2c-0.9,0.6-1.9,1.2-3,1.5c-1.1,0.4-2,0.6-2.9,0.6c-2.4,0-4.3-0.7-5.7-2.2
		c-1.4-1.5-2.1-3.5-2.1-6.1c0-2.6,0.7-4.7,2.2-6.3c1.4-1.6,3.3-2.3,5.7-2.3c2,0,3.9,0.7,5.7,2l0.3,0.2v-5.8l-0.1,0
		c-0.7-0.4-1.6-0.7-2.8-0.9C149,100,147.9,99.9,146.8,99.9 M128.8,100.5h-6v25.7h6V100.5L128.8,100.5z M125.9,89.6
		c-1,0-1.9,0.3-2.6,1c-0.7,0.7-1.1,1.5-1.1,2.5c0,1,0.4,1.8,1.1,2.5c0.7,0.7,1.6,1,2.6,1c1,0,1.9-0.3,2.6-1c0.7-0.7,1.1-1.5,1.1-2.5
		c0-1-0.4-1.8-1.1-2.5C127.8,89.9,126.9,89.6,125.9,89.6 M110.8,98.6v27.6h6.2V90.3h-8.5l-10.8,26.6L87.1,90.3h-8.9v35.8H84V98.6
		h0.2l11.1,27.6h4.4l10.9-27.6L110.8,98.6L110.8,98.6z"/>
	<path class="st13" d="M28.9,106.8H0.5V78.4h28.4V106.8z"/>
	<path class="st14" d="M60.3,106.8H31.9V78.4h28.4L60.3,106.8L60.3,106.8z"/>
	<path class="st15" d="M28.9,138.2H0.5v-28.4h28.4V138.2z"/>
	<path class="st16" d="M60.3,138.2H31.9v-28.4h28.4L60.3,138.2L60.3,138.2z"/>
</g>
<g id="Layer_4">
	<g transform="matrix(.322927 0 0 .322927 -1.17028 -1.72249)">
		<g>
			<g>
				<path id="B" class="st17" d="M57.2,422.8c-20.5,0-37.7-16.1-39.1-36.6l0-0.8c-0.3-6.6-0.8-19.4,0-33.8
					c0.5-9.4,0.8-25.3,0.8-25.8c0,0,0-0.1,0-0.1c0.1-9.7,3.9-18.6,9.9-25.4c-3-10.4-4-22.9-2.1-37.5l0.3-2.3
					c1.1-8.7,2.6-21.5,9.2-33.9c9.9-18.7,28-29.4,49.6-29.4c1.3,0,2.6,0,3.9,0.1c2.1,0.1,4.2,0.4,6.3,0.7c6.9-6.1,16-9.8,26-9.8h0.4
					c21.5,0.3,38.9,17.9,38.8,39.4l0,0.4c0,0.5-2,55.4-2.6,59.3l-0.1,0.8c-0.5,2.9-1.3,5.7-2.5,8.4c9.5,11.2,14.6,25,14.8,40.7
					c0.2,19.7-8.8,38.8-24.7,52.5c-13.7,11.7-31,18.2-48.8,18.2c-2.9,0-5.8-0.2-8.6-0.5c-0.6,0.8-1.2,1.5-1.9,2.3
					c-6.9,7.9-16.5,12.5-27,13.2C59,422.8,58.1,422.8,57.2,422.8L57.2,422.8z"/>
			</g>
			<g>
				<path id="C" class="st17" d="M86.6,297.3c-9.9-1.5-15.1-8.1-12.5-28.6l0.3-2.5c2.2-17.8,4.1-21.7,12.6-21.2
					c2.5,0.2,5.4,1.7,8.3,4.1c2.6,3.1,8.6,7.1,11.9,15c2.4,5.8,3.2,9.6,3.5,13.6c0,0.1,0.6,5,0.6,5l0,0c0.7,3.4,3.3,6.2,6.9,6.9
					c4.7,0.8,9.2-2.3,10-6.9c0.1-0.5,2.2-54.4,2.2-55.3c0-4.7-3.8-8.6-8.5-8.7c-4.8,0-8.7,3.8-8.7,8.6l-0.2,15
					c-6.7-7.4-15.5-14-25.1-14.5c-26.1-1.4-28.9,22.5-30.6,36.3l-0.3,2.4c-3.5,27.2,5.6,44.4,27,47.8c23.2,3.7,38.7,9,38.9,23.3
					c0.1,5.5-2.8,11.2-8,15.6c-6.1,5.2-14.4,7.6-22.1,6.3c-2.3-0.4-4.6-1-6.8-1.8c-3.1-1.7-10.7-6.3-14.6-11.7
					c-3.3-4.5-4.4-11.7-4.8-16.2l0.1-3.5c0.1-4.7-3.7-8.6-8.5-8.7s-8.7,3.7-8.8,8.5c0,0.2-0.3,17-0.8,27.2c-0.9,16.3,0,30.2,0,30.8
					c0.3,4.8,4.4,8.4,9.2,8c4.8-0.3,8.3-4.4,8.1-9.1c0-0.1-0.4-6.8-0.4-16.1c6.3,4.1,14.5,8,24.5,9.7c12.8,2.1,26-1.6,36.1-10.2
					c9-7.7,14.1-18.2,14-28.9C139.8,305.7,103.9,300.1,86.6,297.3L86.6,297.3z"/>
			</g>
			<g>
				<path id="D" class="st17" d="M354.5,414.8c-7.5,0-14.9-1.5-22.9-4.6c-7-2.7-12.6-6.9-17-11.3c-2.9,1.2-6,2-9.2,2.5l-41.6,6.1
					c-1.9,0.3-3.8,0.4-5.7,0.4c-19.4,0-36.1-14.5-38.9-33.7c-1.5-10.2,1.1-20.6,7.4-29c3.1-4.1,6.9-7.6,11.4-10.3l0-6
					c-8-7.2-13-17.6-13-29.2c0-8.2,2.6-16.2,7.3-22.8c-9.3-6-15.9-15.8-17.6-27.4c-1.5-10.2,1.1-20.5,7.4-29
					c6.3-8.4,15.5-13.9,25.9-15.4c8.7-1.3,26.2-3.5,44.9-3.5c41.4,0,67.7,10.6,80.5,32.4c6.7,11.4,14.3,34.3-5.7,63.9
					c1.9,6,3.3,12.8,4.2,20.3h0.4c3.9,0,7.8,0.6,11.5,1.7c20.8,6.4,32.4,28.4,26,49.1c-6.2,20.1-16.2,32.5-32.2,40.3
					C370.4,413,362.6,414.8,354.5,414.8L354.5,414.8z"/>
			</g>
			<g>
				<path id="E" class="st17" d="M375,349.3c-4.6-1.4-9.4,1.2-10.8,5.7c-3.1,10.2-5.7,10.6-7.4,11.4c-1.7,0.8-4.1,0.6-7.8-0.9
					c-0.6-0.3-2.1-2.4-3-4.3c-1.3-2.9-2.9-14.9-3.1-21.7c-0.7-25.3-5.1-39.2-12.2-46.9c4.8-3.2,8.3-7.2,8.7-7.8
					c0.1-0.1,0.1-0.1,0.2-0.2c10.6-13.7,13.1-25.5,7.5-35.1c-14.1-24-76-16.9-94.6-14.1c-4.7,0.7-8,5.1-7.3,9.8c0.7,4.7,5,8,9.8,7.2
					c4.5-0.7,9-1.2,13.5-1.6l0.2,40.1c-1.4,0.1-2.9,0.1-4.3,0.1c-4.7,0-8.6,3.8-8.6,8.6c0,0,0,0,0,0c0,4.7,3.9,8.6,8.6,8.6
					c1.4,0,2.9,0,4.3-0.1l0.2,50.1l-11.9,1.7c-4.7,0.7-8,5.1-7.3,9.8c0.7,4.7,5,8,9.8,7.3l41.6-6.1c4.7-0.7,8-5.1,7.3-9.7
					c-0.7-4.7-5.1-8-9.8-7.3l-12.5,1.8l-0.2-49.4c8.2-1.3,16-3.1,22.6-5.1h0c0,0,1.9-0.2,3,0c3.5,0.6,5.4,1.2,7.4,4.1
					c2.8,3.9,6.3,13.1,6.8,34.6c0.1,4.2,1.2,21.1,4.7,28.6c1.1,2.4,5.3,10.3,12.4,13c5.3,2.1,13.3,4.3,21.5,0.3
					c7.6-3.7,12.4-9.1,16.3-21.8C382.1,355.5,379.5,350.7,375,349.3L375,349.3z M326,272.4c-0.8,0.9-3,3.2-5.3,4.6
					c-2.1,1.2-5,2.1-7.8,3l-4.4,1.4c-6.1,2.2-14.1,4.4-22.8,6l-0.2-39.2c22.8-0.6,42.7,1.9,46.5,8.5c0.4,0.6,0.5,1.3,0.5,2.1
					C332.6,261.9,330.3,266.8,326,272.4L326,272.4z"/>
			</g>
			<g>
				<path id="F" class="st17" d="M645.8,413c-44.4,0-69.8-33.4-72-66.4h0c-0.1-2.1-0.2-6.3-0.4-17.3l0-1.1l0.4-25.8
					c2.2-31.6,13.2-53.6,32.5-65.5c9.2-5.7,19.6-8.6,31-8.6c3.9,0,7.6,0.3,11.1,0.9c7.2-8.1,17.7-13.3,29.4-13.3
					c21.6,0,39.3,17.6,39.3,39.2v37.3c0,4.4-0.7,8.7-2.2,12.8c5.4,6.4,8.8,14.5,9.2,23.4c0.2,3,0.4,4.9,0.3,6.9l-0.5,11.5
					c0,0.3-0.1,0.7-0.1,1c-0.9,6.5-3.3,18.9-8.8,28.7c-3.6,6.2-7.3,10.7-10.8,14.7c-7,7.9-15.1,12.3-22.1,15.6
					c-11.7,5.5-21.7,5.6-29.1,5.7l-4.6,0L645.8,413L645.8,413z"/>
			</g>
			<g>
				<path id="G" class="st17" d="M684.8,322.2c-4.7,0.1-8.4,3.9-8.4,8.6c0,0,0.2,2.8,0.2,3.1s-0.2,7.1-0.2,8.1
					c-0.5,3.6-1.8,9.2-3,11.2c-1.3,2.3-2.6,4-5,6.7c-1.3,1.5-4.6,3.1-6.6,4c-2.2,1-4.3,1.1-9.4,1.1l-5.2,0.1
					c-22.4,0.7-25.2-17.5-25.6-21.5l-0.3-14.8l0.3-23.1c1.1-14.8,4.6-24.8,9.8-28c4.1-2.5,10.5-1.8,19.8,2
					c11.4,4.8,19.2,17.2,19.3,17.3c2,3.3,6,4.8,9.7,3.8c3.7-1.1,6.3-4.4,6.3-8.3v-37.3c0-4.7-3.8-8.6-8.6-8.6
					c-4.7,0-8.6,3.9-8.6,8.6v15.3c-3.3-2.6-7.1-5-11.4-6.7c-5.4-2.3-22-9.2-35.5-0.8c-10.6,6.5-16.5,20.1-18,41.6
					c0,0.2-0.3,24-0.3,24l0.3,15.9c0.9,13.5,11.1,38.7,43.3,37.7l4.8-0.1c5.8-0.1,10.8-0.1,16.6-2.8c4.1-1.9,8.7-4.3,12.2-8.2
					c2.5-2.8,4.9-5.7,7.1-9.6c3.3-5.8,4.8-15.8,5.1-17.8c0-0.3,0.3-9.8,0.3-9.8c0-0.1-0.2-3.6-0.2-3.6
					C693.5,325.9,689.6,322.1,684.8,322.2L684.8,322.2z"/>
			</g>
			<g>
				<path id="H" class="st17" d="M768.2,426.9c-9.3,0-18.1-3.5-25-9.8c-2.8-2.5-5.1-5.4-6.9-8.4l-32.4-0.5
					c-21.6-0.4-38.9-18.2-38.6-39.7c0.3-15.7,9.8-29.2,23.3-35.3l0.1-60.2c-13.4-6.2-22.8-19.9-22.8-35.6
					c0-21.6,17.6-39.3,39.2-39.3H742c7.1-8.6,17.7-14.1,29.6-14.4l45.6-0.8c21.3,0,38.9,17.3,39.3,38.6c0.2,15.5-8.6,29.1-21.6,35.7
					l0.5,87.1c11.9,6.1,20.3,18.2,21.3,32.4c1.4,21.6-15.1,40.3-36.6,41.7c-17.8,1.2-29.2,3.2-32.4,4.1c-0.6,0.3-1.2,0.5-1.9,0.7
					C781.8,424.6,775.9,426.9,768.2,426.9L768.2,426.9z"/>
			</g>
			<g>
				<path id="I" class="st17" d="M454,381.8c-8.5,0-16.6-2.7-23.5-7.8c-1.5-1.1-2.9-2.3-4.2-3.5c-4.9,2.2-10.3,3.4-16,3.4
					c-0.6,0-1.2,0-1.8,0l-43-2c-21.6-1-38.4-19.4-37.4-41c0.9-21,18.2-37.5,39.2-37.5l0.5,0l7-35.2c-14.2-4.5-25.2-16.9-27.2-32.3
					c-2.8-21.4,12.3-41.2,33.6-44.1l36.9-5.1c1.8-0.2,3.5-0.4,5.3-0.4c10.8,0,21.2,4.5,28.7,12.4c2.7,2.9,6.6,8.5,8.6,13.4
					l32.4,78.2l0.5,1.2l0.3,0c16.6,0,31.3,10.4,37,26c7.3,20.3-3.3,42.8-23.6,50.2c-12.9,4.6-21.2,8.9-24.2,10.7
					C476,376.9,465.2,381.8,454,381.8L454,381.8z"/>
			</g>
			<g>
				<path id="J" class="st17" d="M491.3,312.9c-2.6,0.9-7.5,3.4-15.1,6.7l-11.1-27.3l-32.4-78.3c-0.3-0.8-2.1-3.6-2.7-4.2
					c-1.9-2-4.7-3-7.4-2.7l-36.9,5.1c-4.7,0.7-8,5-7.4,9.7c0.6,4.7,5,8,9.7,7.4l24.9-3.5l-19.9,99.4l-25-1.2c-4.7-0.2-8.8,3.5-9,8.2
					c-0.2,4.7,3.5,8.8,8.2,9l42.9,2c4.7,0.2,8.8-3.5,9-8.2c0.2-4.8-2.6-9.1-8.7-9.1l2-13.1l39.8-6.6l8.5,21.1
					c-6.5,3.7-10.5,6.1-13.6,10.1c-2.8,3.8-2,9.2,1.8,12c3.8,2.8,9.2,2,12.1-1.8c3.8-5.2,20.1-12.9,36.2-18.6
					c4.5-1.6,6.8-6.6,5.2-11C500.7,313.6,495.8,311.3,491.3,312.9L491.3,312.9z M416,299l10.6-51.7l18.9,46.8L416,299L416,299z"/>
			</g>
			<g>
				<path id="K" class="st17" d="M514.9,406.5c-21.3,0-38.9-17.3-39.2-38.6c-0.3-17.4,10.9-32.4,26.5-37.8l0-11.6
					c-1.2,0.3-2.3,0.5-3.5,0.7c-1.9,0.3-3.9,0.4-5.8,0.4c-19.6,0-35.9-14.1-38.8-33.4l-6.6-42.3c-1.7-11.2,1.5-22.6,8.9-31.3
					c7.3-8.7,18.1-13.7,29.5-13.9l54.8-0.9c26.6-0.5,50.4-2.2,51.7-2.3c0.2,0,0.4,0,0.6,0c0.8-0.1,1.7-0.1,2.5-0.1
					c10.5,0,20.6,4.2,28,11.7c7.9,7.9,12,19.1,11.1,30.5c-0.7,9.8-1,25.2-1,29c0.4,15.9-8.3,30.3-22.4,36.9
					c-5.2,2.5-11.2,3.8-17,3.8c-4.7,0-9.2-0.9-13.4-2.4l0,24.6c14.9,5.4,25.7,19.7,25.9,36.4c0.2,10.5-3.8,20.4-11.2,28
					c-7.3,7.5-17.2,11.7-27.7,11.8C567.8,405.7,515.1,406.5,514.9,406.5L514.9,406.5z"/>
			</g>
			<g>
				<path id="L" class="st17" d="M594.8,226.1c-0.3,0-25.5,1.8-53.7,2.4l-55,0.9c-2.5,0-4.9,1.1-6.5,3c-1.6,1.9-2.3,4.4-2,6.8
					l6.6,42.4c0.7,4.7,5.1,7.9,9.8,7.2c4.3-0.6,7.3-4.3,7.3-8.5c0-0.4-3.5-22.1-5.2-33.9l36.5-0.6l0.2,112.5l-18.1,0.2
					c-4.8,0.1-8.6,4-8.5,8.7c0.1,4.8,4,8.6,8.7,8.5l52.5-0.8c4.7,0,8.6-4,8.5-8.7c-0.1-4.8-4-8.5-8.7-8.5l-17.1,0.3l-0.2-112.6
					c14.8-0.4,27.5-1.1,36.2-1.6c-0.4,7.2-0.7,12.6-0.7,16.5c0,9.2,1,11,1.7,12.3c2.2,4,6.8,5,11,3.1c3.2-1.5,4.9-5.1,4.7-8.6
					c0-0.1,0.2-19.4,1.1-31.8c0.2-2.5-0.7-5-2.5-6.7C599.8,226.8,597.3,225.9,594.8,226.1L594.8,226.1z"/>
			</g>
			<g>
				<path id="M" class="st17" d="M193,423.8c-44.2,0-69.6-33-72.1-65.8c-0.1-1-0.1-1.8-0.1-2.5l-0.3-15.9l0.3-23.9
					c0-0.7,0-1.6,0.1-2.4c2.3-31.6,13.2-53.6,32.5-65.5c9.2-5.7,19.7-8.5,31-8.5c3.9,0,7.6,0.4,11.1,0.9
					c7.2-8.1,17.7-13.3,29.4-13.3c21.6,0,39.2,17.6,39.2,39.3v37.3c0,4-0.6,7.9-1.8,11.7c5.2,6.4,8.5,14.5,8.8,23.3l0.2,4.5
					c0,0.5,0,1.1,0,1.7c0,0.1-0.1,10.6-0.6,14.5h0c-1.1,8-3.6,19.5-8.8,28.6c-3.6,6.3-7.4,10.8-10.7,14.6
					c-7.2,8-15.2,12.4-22.2,15.7c-11.7,5.5-21.8,5.6-29.1,5.7l-4.5,0.1L193,423.8L193,423.8z"/>
			</g>
			<g>
				<path id="N" class="st17" d="M231.9,331.2c-4.7,0.1-8.5,3.9-8.5,8.6c0,0,0.2,4.5,0.2,4.8c-0.1,2.7-0.1,5.4-0.2,8.1
					c-0.5,3.6-1.8,9.2-2.9,11.2c-1.3,2.3-2.7,4.1-5.1,6.7c-1.3,1.5-4.6,3.1-6.6,4c-2.2,1-4.3,1.1-9.3,1.1l-5.3,0.1
					c-22.4,0.7-25.2-17.5-25.6-21.5l-0.3-14.8c0-0.3,0.3-22.5,0.3-23.1c1.1-14.8,4.6-24.7,9.8-28c4-2.5,10.5-1.8,19.8,2
					c11.4,4.8,19.2,17.2,19.3,17.3c2,3.3,6,4.8,9.7,3.8c3.7-1,6.3-4.4,6.3-8.3v-37.3c0-4.8-3.9-8.6-8.6-8.6c-4.8,0-8.6,3.8-8.6,8.6
					c0,0,0,0,0,0v15.3c-3.3-2.6-7.1-5-11.4-6.7c-5.4-2.3-22-9.1-35.5-0.8c-10.6,6.5-16.5,20.1-18,41.6c0,0.2,0,0.3,0,0.5l-0.3,23.9
					l0.3,15.2c0,0.1,0,0.2,0,0.4c0.9,13.5,11.1,38.7,43.3,37.7l4.8-0.1c5.8-0.1,10.8-0.1,16.6-2.8c4.1-1.9,8.7-4.3,12.2-8.2
					c2.5-2.8,4.9-5.7,7.1-9.5c3.3-5.8,4.8-15.8,5.1-17.8c0-0.3,0.3-10.1,0.3-10.2l-0.3-4.9C240.5,334.9,236.6,331.1,231.9,331.2
					L231.9,331.2z"/>
			</g>
		</g>
		<g>
			<g>
				<path id="B_00000096024400979233011390000008092288931583013513_" class="st18" d="M57.2,422.8c-20.5,0-37.7-16.1-39.1-36.6
					l0-0.8c-0.3-6.6-0.8-19.4,0-33.8c0.5-9.4,0.8-25.3,0.8-25.8c0,0,0-0.1,0-0.1c0.1-9.7,3.9-18.6,9.9-25.4c-3-10.4-4-22.9-2.1-37.5
					l0.3-2.3c1.1-8.7,2.6-21.5,9.2-33.9c9.9-18.7,28-29.4,49.6-29.4c1.3,0,2.6,0,3.9,0.1c2.1,0.1,4.2,0.4,6.3,0.7
					c6.9-6.1,16-9.8,26-9.8h0.4c21.5,0.3,38.9,17.9,38.8,39.4l0,0.4c0,0.5-2,55.4-2.6,59.3l-0.1,0.8c-0.5,2.9-1.3,5.7-2.5,8.4
					c9.5,11.2,14.6,25,14.8,40.7c0.2,19.7-8.8,38.8-24.7,52.5c-13.7,11.7-31,18.2-48.8,18.2c-2.9,0-5.8-0.2-8.6-0.5
					c-0.6,0.8-1.2,1.5-1.9,2.3c-6.9,7.9-16.5,12.5-27,13.2C59,422.8,58.1,422.8,57.2,422.8L57.2,422.8z"/>
			</g>
			<g>
				<path id="C_00000016067224095995039260000001774759741894048937_" class="st18" d="M86.6,297.3c-9.9-1.5-15.1-8.1-12.5-28.6
					l0.3-2.5c2.2-17.8,4.1-21.7,12.6-21.2c2.5,0.2,5.4,1.7,8.3,4.1c2.6,3.1,8.6,7.1,11.9,15c2.4,5.8,3.2,9.6,3.5,13.6
					c0,0.1,0.6,5,0.6,5l0,0c0.7,3.4,3.3,6.2,6.9,6.9c4.7,0.8,9.2-2.3,10-6.9c0.1-0.5,2.2-54.4,2.2-55.3c0-4.7-3.8-8.6-8.5-8.7
					c-4.8,0-8.7,3.8-8.7,8.6l-0.2,15c-6.7-7.4-15.5-14-25.1-14.5c-26.1-1.4-28.9,22.5-30.6,36.3l-0.3,2.4
					c-3.5,27.2,5.6,44.4,27,47.8c23.2,3.7,38.7,9,38.9,23.3c0.1,5.5-2.8,11.2-8,15.6c-6.1,5.2-14.4,7.6-22.1,6.3
					c-2.3-0.4-4.6-1-6.8-1.8c-3.1-1.7-10.7-6.3-14.6-11.7c-3.3-4.5-4.4-11.7-4.8-16.2l0.1-3.5c0.1-4.7-3.7-8.6-8.5-8.7
					s-8.7,3.7-8.8,8.5c0,0.2-0.3,17-0.8,27.2c-0.9,16.3,0,30.2,0,30.8c0.3,4.8,4.4,8.4,9.2,8c4.8-0.3,8.3-4.4,8.1-9.1
					c0-0.1-0.4-6.8-0.4-16.1c6.3,4.1,14.5,8,24.5,9.7c12.8,2.1,26-1.6,36.1-10.2c9-7.7,14.1-18.2,14-28.9
					C139.8,305.7,103.9,300.1,86.6,297.3L86.6,297.3z"/>
			</g>
			<g>
				<path id="D_00000150798867580799481650000010449034920467218334_" class="st18" d="M354.5,414.8c-7.5,0-14.9-1.5-22.9-4.6
					c-7-2.7-12.6-6.9-17-11.3c-2.9,1.2-6,2-9.2,2.5l-41.6,6.1c-1.9,0.3-3.8,0.4-5.7,0.4c-19.4,0-36.1-14.5-38.9-33.7
					c-1.5-10.2,1.1-20.6,7.4-29c3.1-4.1,6.9-7.6,11.4-10.3l0-6c-8-7.2-13-17.6-13-29.2c0-8.2,2.6-16.2,7.3-22.8
					c-9.3-6-15.9-15.8-17.6-27.4c-1.5-10.2,1.1-20.5,7.4-29c6.3-8.4,15.5-13.9,25.9-15.4c8.7-1.3,26.2-3.5,44.9-3.5
					c41.4,0,67.7,10.6,80.5,32.4c6.7,11.4,14.3,34.3-5.7,63.9c1.9,6,3.3,12.8,4.2,20.3h0.4c3.9,0,7.8,0.6,11.5,1.7
					c20.8,6.4,32.4,28.4,26,49.1c-6.2,20.1-16.2,32.5-32.2,40.3C370.4,413,362.6,414.8,354.5,414.8L354.5,414.8z"/>
			</g>
			<g>
				<path id="E_00000173843432230546814520000008449261689964522656_" class="st18" d="M375,349.3c-4.6-1.4-9.4,1.2-10.8,5.7
					c-3.1,10.2-5.7,10.6-7.4,11.4c-1.7,0.8-4.1,0.6-7.8-0.9c-0.6-0.3-2.1-2.4-3-4.3c-1.3-2.9-2.9-14.9-3.1-21.7
					c-0.7-25.3-5.1-39.2-12.2-46.9c4.8-3.2,8.3-7.2,8.7-7.8c0.1-0.1,0.1-0.1,0.2-0.2c10.6-13.7,13.1-25.5,7.5-35.1
					c-14.1-24-76-16.9-94.6-14.1c-4.7,0.7-8,5.1-7.3,9.8c0.7,4.7,5,8,9.8,7.2c4.5-0.7,9-1.2,13.5-1.6l0.2,40.1
					c-1.4,0.1-2.9,0.1-4.3,0.1c-4.7,0-8.6,3.8-8.6,8.6c0,0,0,0,0,0c0,4.7,3.9,8.6,8.6,8.6c1.4,0,2.9,0,4.3-0.1l0.2,50.1l-11.9,1.7
					c-4.7,0.7-8,5.1-7.3,9.8c0.7,4.7,5,8,9.8,7.3l41.6-6.1c4.7-0.7,8-5.1,7.3-9.7c-0.7-4.7-5.1-8-9.8-7.3l-12.5,1.8l-0.2-49.4
					c8.2-1.3,16-3.1,22.6-5.1h0c0,0,1.9-0.2,3,0c3.5,0.6,5.4,1.2,7.4,4.1c2.8,3.9,6.3,13.1,6.8,34.6c0.1,4.2,1.2,21.1,4.7,28.6
					c1.1,2.4,5.3,10.3,12.4,13c5.3,2.1,13.3,4.3,21.5,0.3c7.6-3.7,12.4-9.1,16.3-21.8C382.1,355.5,379.5,350.7,375,349.3L375,349.3z
					 M326,272.4c-0.8,0.9-3,3.2-5.3,4.6c-2.1,1.2-5,2.1-7.8,3l-4.4,1.4c-6.1,2.2-14.1,4.4-22.8,6l-0.2-39.2
					c22.8-0.6,42.7,1.9,46.5,8.5c0.4,0.6,0.5,1.3,0.5,2.1C332.6,261.9,330.3,266.8,326,272.4L326,272.4z"/>
			</g>
			<g>
				<path id="F_00000061443206567768123950000017825426330229820319_" class="st18" d="M645.8,413c-44.4,0-69.8-33.4-72-66.4h0
					c-0.1-2.1-0.2-6.3-0.4-17.3l0-1.1l0.4-25.8c2.2-31.6,13.2-53.6,32.5-65.5c9.2-5.7,19.6-8.6,31-8.6c3.9,0,7.6,0.3,11.1,0.9
					c7.2-8.1,17.7-13.3,29.4-13.3c21.6,0,39.3,17.6,39.3,39.2v37.3c0,4.4-0.7,8.7-2.2,12.8c5.4,6.4,8.8,14.5,9.2,23.4
					c0.2,3,0.4,4.9,0.3,6.9l-0.5,11.5c0,0.3-0.1,0.7-0.1,1c-0.9,6.5-3.3,18.9-8.8,28.7c-3.6,6.2-7.3,10.7-10.8,14.7
					c-7,7.9-15.1,12.3-22.1,15.6c-11.7,5.5-21.7,5.6-29.1,5.7l-4.6,0L645.8,413L645.8,413z"/>
			</g>
			<g>
				<path id="G_00000172404587056605591870000006906905080515114114_" class="st18" d="M684.8,322.2c-4.7,0.1-8.4,3.9-8.4,8.6
					c0,0,0.2,2.8,0.2,3.1s-0.2,7.1-0.2,8.1c-0.5,3.6-1.8,9.2-3,11.2c-1.3,2.3-2.6,4-5,6.7c-1.3,1.5-4.6,3.1-6.6,4
					c-2.2,1-4.3,1.1-9.4,1.1l-5.2,0.1c-22.4,0.7-25.2-17.5-25.6-21.5l-0.3-14.8l0.3-23.1c1.1-14.8,4.6-24.8,9.8-28
					c4.1-2.5,10.5-1.8,19.8,2c11.4,4.8,19.2,17.2,19.3,17.3c2,3.3,6,4.8,9.7,3.8c3.7-1.1,6.3-4.4,6.3-8.3v-37.3
					c0-4.7-3.8-8.6-8.6-8.6c-4.7,0-8.6,3.9-8.6,8.6v15.3c-3.3-2.6-7.1-5-11.4-6.7c-5.4-2.3-22-9.2-35.5-0.8
					c-10.6,6.5-16.5,20.1-18,41.6c0,0.2-0.3,24-0.3,24l0.3,15.9c0.9,13.5,11.1,38.7,43.3,37.7l4.8-0.1c5.8-0.1,10.8-0.1,16.6-2.8
					c4.1-1.9,8.7-4.3,12.2-8.2c2.5-2.8,4.9-5.7,7.1-9.6c3.3-5.8,4.8-15.8,5.1-17.8c0-0.3,0.3-9.8,0.3-9.8c0-0.1-0.2-3.6-0.2-3.6
					C693.5,325.9,689.6,322.1,684.8,322.2L684.8,322.2z"/>
			</g>
			<g>
				<path id="H_00000023959234343971046930000017181554853121817761_" class="st18" d="M768.2,426.9c-9.3,0-18.1-3.5-25-9.8
					c-2.8-2.5-5.1-5.4-6.9-8.4l-32.4-0.5c-21.6-0.4-38.9-18.2-38.6-39.7c0.3-15.7,9.8-29.2,23.3-35.3l0.1-60.2
					c-13.4-6.2-22.8-19.9-22.8-35.6c0-21.6,17.6-39.3,39.2-39.3H742c7.1-8.6,17.7-14.1,29.6-14.4l45.6-0.8
					c21.3,0,38.9,17.3,39.3,38.6c0.2,15.5-8.6,29.1-21.6,35.7l0.5,87.1c11.9,6.1,20.3,18.2,21.3,32.4c1.4,21.6-15.1,40.3-36.6,41.7
					c-17.8,1.2-29.2,3.2-32.4,4.1c-0.6,0.3-1.2,0.5-1.9,0.7C781.8,424.6,775.9,426.9,768.2,426.9L768.2,426.9z"/>
			</g>
			<g>
				<path id="O" class="st18" d="M826.1,378.6c-0.3-4.7-4.4-8.4-9.1-8c-3.2,0.2-7.4,0.5-12.1,1l-0.7-140.7l13.3-0.2
					c4.7-0.1,8.5-4,8.5-8.8c-0.1-4.8-4-8.6-8.7-8.5l-44.8,0.8c-4.8,0.1-8.5,4-8.5,8.8c0.1,4.8,4,8.6,8.7,8.5l14.3-0.3l0.4,59.7
					l-50.7,8.5l0.1-53.5h13.8c4.8,0,8.6-3.9,8.6-8.6c0-4.7-3.9-8.6-8.6-8.6h-45.2c-4.8,0-8.6,3.9-8.6,8.6c0,4.8,3.8,8.6,8.6,8.6
					h14.2l-0.2,114.6l-14.5-0.3c-4.7-0.1-8.7,3.7-8.8,8.5c-0.1,4.7,3.7,8.6,8.5,8.7l46.5,0.8c4.8,0.1,8.7-3.7,8.7-8.5
					c0.1-4.8-3.7-8.7-8.5-8.7l-14.8-0.2l0.1-44l50.8-8.5l0.3,65.7c-11.7,2.2-19.6,3.1-24.4,8.5c-3.1,3.5-2.7,8.8,0.7,12
					c3.5,3.2,7.3,1.3,12.2-0.5l-0.1,0c5-2.3,21.4-4.9,41.9-6.3C822.8,387.4,826.4,383.3,826.1,378.6L826.1,378.6z"/>
			</g>
			<g>
				<path id="I_00000093143722959602646670000007510650161432561074_" class="st18" d="M454,381.8c-8.5,0-16.6-2.7-23.5-7.8
					c-1.5-1.1-2.9-2.3-4.2-3.5c-4.9,2.2-10.3,3.4-16,3.4c-0.6,0-1.2,0-1.8,0l-43-2c-21.6-1-38.4-19.4-37.4-41
					c0.9-21,18.2-37.5,39.2-37.5l0.5,0l7-35.2c-14.2-4.5-25.2-16.9-27.2-32.3c-2.8-21.4,12.3-41.2,33.6-44.1l36.9-5.1
					c1.8-0.2,3.5-0.4,5.3-0.4c10.8,0,21.2,4.5,28.7,12.4c2.7,2.9,6.6,8.5,8.6,13.4l32.4,78.2l0.5,1.2l0.3,0c16.6,0,31.3,10.4,37,26
					c7.3,20.3-3.3,42.8-23.6,50.2c-12.9,4.6-21.2,8.9-24.2,10.7C476,376.9,465.2,381.8,454,381.8L454,381.8z"/>
			</g>
			<g>
				<path id="J_00000120552377200967713470000014177884103428095897_" class="st18" d="M491.3,312.9c-2.6,0.9-7.5,3.4-15.1,6.7
					l-11.1-27.3l-32.4-78.3c-0.3-0.8-2.1-3.6-2.7-4.2c-1.9-2-4.7-3-7.4-2.7l-36.9,5.1c-4.7,0.7-8,5-7.4,9.7c0.6,4.7,5,8,9.7,7.4
					l24.9-3.5l-19.9,99.4l-25-1.2c-4.7-0.2-8.8,3.5-9,8.2c-0.2,4.7,3.5,8.8,8.2,9l42.9,2c4.7,0.2,8.8-3.5,9-8.2
					c0.2-4.8-2.6-9.1-8.7-9.1l2-13.1l39.8-6.6l8.5,21.1c-6.5,3.7-10.5,6.1-13.6,10.1c-2.8,3.8-2,9.2,1.8,12c3.8,2.8,9.2,2,12.1-1.8
					c3.8-5.2,20.1-12.9,36.2-18.6c4.5-1.6,6.8-6.6,5.2-11C500.7,313.6,495.8,311.3,491.3,312.9L491.3,312.9z M416,299l10.6-51.7
					l18.9,46.8L416,299L416,299z"/>
			</g>
			<g>
				<path id="K_00000170995736964878264190000009638606034630043570_" class="st18" d="M514.9,406.5c-21.3,0-38.9-17.3-39.2-38.6
					c-0.3-17.4,10.9-32.4,26.5-37.8l0-11.6c-1.2,0.3-2.3,0.5-3.5,0.7c-1.9,0.3-3.9,0.4-5.8,0.4c-19.6,0-35.9-14.1-38.8-33.4
					l-6.6-42.3c-1.7-11.2,1.5-22.6,8.9-31.3c7.3-8.7,18.1-13.7,29.5-13.9l54.8-0.9c26.6-0.5,50.4-2.2,51.7-2.3c0.2,0,0.4,0,0.6,0
					c0.8-0.1,1.7-0.1,2.5-0.1c10.5,0,20.6,4.2,28,11.7c7.9,7.9,12,19.1,11.1,30.5c-0.7,9.8-1,25.2-1,29c0.4,15.9-8.3,30.3-22.4,36.9
					c-5.2,2.5-11.2,3.8-17,3.8c-4.7,0-9.2-0.9-13.4-2.4l0,24.6c14.9,5.4,25.7,19.7,25.9,36.4c0.2,10.5-3.8,20.4-11.2,28
					c-7.3,7.5-17.2,11.7-27.7,11.8C567.8,405.7,515.1,406.5,514.9,406.5L514.9,406.5z"/>
			</g>
			<g>
				<path id="L_00000018225257918659620980000014596042366830820516_" class="st18" d="M594.8,226.1c-0.3,0-25.5,1.8-53.7,2.4
					l-55,0.9c-2.5,0-4.9,1.1-6.5,3c-1.6,1.9-2.3,4.4-2,6.8l6.6,42.4c0.7,4.7,5.1,7.9,9.8,7.2c4.3-0.6,7.3-4.3,7.3-8.5
					c0-0.4-3.5-22.1-5.2-33.9l36.5-0.6l0.2,112.5l-18.1,0.2c-4.8,0.1-8.6,4-8.5,8.7c0.1,4.8,4,8.6,8.7,8.5l52.5-0.8
					c4.7,0,8.6-4,8.5-8.7c-0.1-4.8-4-8.5-8.7-8.5l-17.1,0.3l-0.2-112.6c14.8-0.4,27.5-1.1,36.2-1.6c-0.4,7.2-0.7,12.6-0.7,16.5
					c0,9.2,1,11,1.7,12.3c2.2,4,6.8,5,11,3.1c3.2-1.5,4.9-5.1,4.7-8.6c0-0.1,0.2-19.4,1.1-31.8c0.2-2.5-0.7-5-2.5-6.7
					C599.8,226.8,597.3,225.9,594.8,226.1L594.8,226.1z"/>
			</g>
			<g>
				<path id="M_00000095325570879255118170000001451915089020761776_" class="st18" d="M193,423.8c-44.2,0-69.6-33-72.1-65.8
					c-0.1-1-0.1-1.8-0.1-2.5l-0.3-15.9l0.3-23.9c0-0.7,0-1.6,0.1-2.4c2.3-31.6,13.2-53.6,32.5-65.5c9.2-5.7,19.7-8.5,31-8.5
					c3.9,0,7.6,0.4,11.1,0.9c7.2-8.1,17.7-13.3,29.4-13.3c21.6,0,39.2,17.6,39.2,39.3v37.3c0,4-0.6,7.9-1.8,11.7
					c5.2,6.4,8.5,14.5,8.8,23.3l0.2,4.5c0,0.5,0,1.1,0,1.7c0,0.1-0.1,10.6-0.6,14.5h0c-1.1,8-3.6,19.5-8.8,28.6
					c-3.6,6.3-7.4,10.8-10.7,14.6c-7.2,8-15.2,12.4-22.2,15.7c-11.7,5.5-21.8,5.6-29.1,5.7l-4.5,0.1L193,423.8L193,423.8z"/>
			</g>
			<g>
				<path id="N_00000112633533007214518870000014279305893382790847_" class="st18" d="M231.9,331.2c-4.7,0.1-8.5,3.9-8.5,8.6
					c0,0,0.2,4.5,0.2,4.8c-0.1,2.7-0.1,5.4-0.2,8.1c-0.5,3.6-1.8,9.2-2.9,11.2c-1.3,2.3-2.7,4.1-5.1,6.7c-1.3,1.5-4.6,3.1-6.6,4
					c-2.2,1-4.3,1.1-9.3,1.1l-5.3,0.1c-22.4,0.7-25.2-17.5-25.6-21.5l-0.3-14.8c0-0.3,0.3-22.5,0.3-23.1c1.1-14.8,4.6-24.7,9.8-28
					c4-2.5,10.5-1.8,19.8,2c11.4,4.8,19.2,17.2,19.3,17.3c2,3.3,6,4.8,9.7,3.8c3.7-1,6.3-4.4,6.3-8.3v-37.3c0-4.8-3.9-8.6-8.6-8.6
					c-4.8,0-8.6,3.8-8.6,8.6c0,0,0,0,0,0v15.3c-3.3-2.6-7.1-5-11.4-6.7c-5.4-2.3-22-9.1-35.5-0.8c-10.6,6.5-16.5,20.1-18,41.6
					c0,0.2,0,0.3,0,0.5l-0.3,23.9l0.3,15.2c0,0.1,0,0.2,0,0.4c0.9,13.5,11.1,38.7,43.3,37.7l4.8-0.1c5.8-0.1,10.8-0.1,16.6-2.8
					c4.1-1.9,8.7-4.3,12.2-8.2c2.5-2.8,4.9-5.7,7.1-9.5c3.3-5.8,4.8-15.8,5.1-17.8c0-0.3,0.3-10.1,0.3-10.2l-0.3-4.9
					C240.5,334.9,236.6,331.1,231.9,331.2L231.9,331.2z"/>
			</g>
		</g>
		<g>
			<g>
				<path id="C_00000133520442508838676840000013964257803093402772_" class="st19" d="M86.6,297.3c-9.9-1.5-15.1-8.1-12.5-28.6
					l0.3-2.5c2.2-17.8,4.1-21.7,12.6-21.2c2.5,0.2,5.4,1.7,8.3,4.1c2.6,3.1,8.6,7.1,11.9,15c2.4,5.8,3.2,9.6,3.5,13.6
					c0,0.1,0.6,5,0.6,5l0,0c0.7,3.4,3.3,6.2,6.9,6.9c4.7,0.8,9.2-2.3,10-6.9c0.1-0.5,2.2-54.4,2.2-55.3c0-4.7-3.8-8.6-8.5-8.7
					c-4.8,0-8.7,3.8-8.7,8.6l-0.2,15c-6.7-7.4-15.5-14-25.1-14.5c-26.1-1.4-28.9,22.5-30.6,36.3l-0.3,2.4
					c-3.5,27.2,5.6,44.4,27,47.8c23.2,3.7,38.7,9,38.9,23.3c0.1,5.5-2.8,11.2-8,15.6c-6.1,5.2-14.4,7.6-22.1,6.3
					c-2.3-0.4-4.6-1-6.8-1.8c-3.1-1.7-10.7-6.3-14.6-11.7c-3.3-4.5-4.4-11.7-4.8-16.2l0.1-3.5c0.1-4.7-3.7-8.6-8.5-8.7
					s-8.7,3.7-8.8,8.5c0,0.2-0.3,17-0.8,27.2c-0.9,16.3,0,30.2,0,30.8c0.3,4.8,4.4,8.4,9.2,8c4.8-0.3,8.3-4.4,8.1-9.1
					c0-0.1-0.4-6.8-0.4-16.1c6.3,4.1,14.5,8,24.5,9.7c12.8,2.1,26-1.6,36.1-10.2c9-7.7,14.1-18.2,14-28.9
					C139.8,305.7,103.9,300.1,86.6,297.3L86.6,297.3z"/>
			</g>
			<g>
				<path id="E_00000178899673774058312930000008844970056449820814_" class="st19" d="M375,349.3c-4.6-1.4-9.4,1.2-10.8,5.7
					c-3.1,10.2-5.7,10.6-7.4,11.4c-1.7,0.8-4.1,0.6-7.8-0.9c-0.6-0.3-2.1-2.4-3-4.3c-1.3-2.9-2.9-14.9-3.1-21.7
					c-0.7-25.3-5.1-39.2-12.2-46.9c4.8-3.2,8.3-7.2,8.7-7.8c0.1-0.1,0.1-0.1,0.2-0.2c10.6-13.7,13.1-25.5,7.5-35.1
					c-14.1-24-76-16.9-94.6-14.1c-4.7,0.7-8,5.1-7.3,9.8c0.7,4.7,5,8,9.8,7.2c4.5-0.7,9-1.2,13.5-1.6l0.2,40.1
					c-1.4,0.1-2.9,0.1-4.3,0.1c-4.7,0-8.6,3.8-8.6,8.6c0,0,0,0,0,0c0,4.7,3.9,8.6,8.6,8.6c1.4,0,2.9,0,4.3-0.1l0.2,50.1l-11.9,1.7
					c-4.7,0.7-8,5.1-7.3,9.8c0.7,4.7,5,8,9.8,7.3l41.6-6.1c4.7-0.7,8-5.1,7.3-9.7c-0.7-4.7-5.1-8-9.8-7.3l-12.5,1.8l-0.2-49.4
					c8.2-1.3,16-3.1,22.6-5.1h0c0,0,1.9-0.2,3,0c3.5,0.6,5.4,1.2,7.4,4.1c2.8,3.9,6.3,13.1,6.8,34.6c0.1,4.2,1.2,21.1,4.7,28.6
					c1.1,2.4,5.3,10.3,12.4,13c5.3,2.1,13.3,4.3,21.5,0.3c7.6-3.7,12.4-9.1,16.3-21.8C382.1,355.5,379.5,350.7,375,349.3L375,349.3z
					 M326,272.4c-0.8,0.9-3,3.2-5.3,4.6c-2.1,1.2-5,2.1-7.8,3l-4.4,1.4c-6.1,2.2-14.1,4.4-22.8,6l-0.2-39.2
					c22.8-0.6,42.7,1.9,46.5,8.5c0.4,0.6,0.5,1.3,0.5,2.1C332.6,261.9,330.3,266.8,326,272.4L326,272.4z"/>
			</g>
			<g>
				<path id="G_00000040546235516285394630000015097886975551149188_" class="st19" d="M684.8,322.2c-4.7,0.1-8.4,3.9-8.4,8.6
					c0,0,0.2,2.8,0.2,3.1s-0.2,7.1-0.2,8.1c-0.5,3.6-1.8,9.2-3,11.2c-1.3,2.3-2.6,4-5,6.7c-1.3,1.5-4.6,3.1-6.6,4
					c-2.2,1-4.3,1.1-9.4,1.1l-5.2,0.1c-22.4,0.7-25.2-17.5-25.6-21.5l-0.3-14.8l0.3-23.1c1.1-14.8,4.6-24.8,9.8-28
					c4.1-2.5,10.5-1.8,19.8,2c11.4,4.8,19.2,17.2,19.3,17.3c2,3.3,6,4.8,9.7,3.8c3.7-1.1,6.3-4.4,6.3-8.3v-37.3
					c0-4.7-3.8-8.6-8.6-8.6c-4.7,0-8.6,3.9-8.6,8.6v15.3c-3.3-2.6-7.1-5-11.4-6.7c-5.4-2.3-22-9.2-35.5-0.8
					c-10.6,6.5-16.5,20.1-18,41.6c0,0.2-0.3,24-0.3,24l0.3,15.9c0.9,13.5,11.1,38.7,43.3,37.7l4.8-0.1c5.8-0.1,10.8-0.1,16.6-2.8
					c4.1-1.9,8.7-4.3,12.2-8.2c2.5-2.8,4.9-5.7,7.1-9.6c3.3-5.8,4.8-15.8,5.1-17.8c0-0.3,0.3-9.8,0.3-9.8c0-0.1-0.2-3.6-0.2-3.6
					C693.5,325.9,689.6,322.1,684.8,322.2L684.8,322.2z"/>
			</g>
			<g>
				<path id="O_00000013152834828729195510000001715769647336046232_" class="st19" d="M826.1,378.6c-0.3-4.7-4.4-8.4-9.1-8
					c-3.2,0.2-7.4,0.5-12.1,1l-0.7-140.7l13.3-0.2c4.7-0.1,8.5-4,8.5-8.8c-0.1-4.8-4-8.6-8.7-8.5l-44.8,0.8c-4.8,0.1-8.5,4-8.5,8.8
					c0.1,4.8,4,8.6,8.7,8.5l14.3-0.3l0.4,59.7l-50.7,8.5l0.1-53.5h13.8c4.8,0,8.6-3.9,8.6-8.6c0-4.7-3.9-8.6-8.6-8.6h-45.2
					c-4.8,0-8.6,3.9-8.6,8.6c0,4.8,3.8,8.6,8.6,8.6h14.2l-0.2,114.6l-14.5-0.3c-4.7-0.1-8.7,3.7-8.8,8.5c-0.1,4.7,3.7,8.6,8.5,8.7
					l46.5,0.8c4.8,0.1,8.7-3.7,8.7-8.5c0.1-4.8-3.7-8.7-8.5-8.7l-14.8-0.2l0.1-44l50.8-8.5l0.3,65.7c-11.7,2.2-19.6,3.1-24.4,8.5
					c-3.1,3.5-2.7,8.8,0.7,12c3.5,3.2,7.3,1.3,12.2-0.5l-0.1,0c5-2.3,21.4-4.9,41.9-6.3C822.8,387.4,826.4,383.3,826.1,378.6
					L826.1,378.6z"/>
			</g>
			<g>
				<path id="J_00000006676217212326850700000015773849438293382837_" class="st19" d="M491.3,312.9c-2.6,0.9-7.5,3.4-15.1,6.7
					l-11.1-27.3l-32.4-78.3c-0.3-0.8-2.1-3.6-2.7-4.2c-1.9-2-4.7-3-7.4-2.7l-36.9,5.1c-4.7,0.7-8,5-7.4,9.7c0.6,4.7,5,8,9.7,7.4
					l24.9-3.5l-19.9,99.4l-25-1.2c-4.7-0.2-8.8,3.5-9,8.2c-0.2,4.7,3.5,8.8,8.2,9l42.9,2c4.7,0.2,8.8-3.5,9-8.2
					c0.2-4.8-2.6-9.1-8.7-9.1l2-13.1l39.8-6.6l8.5,21.1c-6.5,3.7-10.5,6.1-13.6,10.1c-2.8,3.8-2,9.2,1.8,12c3.8,2.8,9.2,2,12.1-1.8
					c3.8-5.2,20.1-12.9,36.2-18.6c4.5-1.6,6.8-6.6,5.2-11C500.7,313.6,495.8,311.3,491.3,312.9L491.3,312.9z M416,299l10.6-51.7
					l18.9,46.8L416,299L416,299z"/>
			</g>
			<g>
				<path id="L_00000015351504304193895600000002449966597069308843_" class="st19" d="M594.8,226.1c-0.3,0-25.5,1.8-53.7,2.4
					l-55,0.9c-2.5,0-4.9,1.1-6.5,3c-1.6,1.9-2.3,4.4-2,6.8l6.6,42.4c0.7,4.7,5.1,7.9,9.8,7.2c4.3-0.6,7.3-4.3,7.3-8.5
					c0-0.4-3.5-22.1-5.2-33.9l36.5-0.6l0.2,112.5l-18.1,0.2c-4.8,0.1-8.6,4-8.5,8.7c0.1,4.8,4,8.6,8.7,8.5l52.5-0.8
					c4.7,0,8.6-4,8.5-8.7c-0.1-4.8-4-8.5-8.7-8.5l-17.1,0.3l-0.2-112.6c14.8-0.4,27.5-1.1,36.2-1.6c-0.4,7.2-0.7,12.6-0.7,16.5
					c0,9.2,1,11,1.7,12.3c2.2,4,6.8,5,11,3.1c3.2-1.5,4.9-5.1,4.7-8.6c0-0.1,0.2-19.4,1.1-31.8c0.2-2.5-0.7-5-2.5-6.7
					C599.8,226.8,597.3,225.9,594.8,226.1L594.8,226.1z"/>
			</g>
			<g>
				<path id="N_00000158024040077722626770000009578207864232412344_" class="st19" d="M231.9,331.2c-4.7,0.1-8.5,3.9-8.5,8.6
					c0,0,0.2,4.5,0.2,4.8c-0.1,2.7-0.1,5.4-0.2,8.1c-0.5,3.6-1.8,9.2-2.9,11.2c-1.3,2.3-2.7,4.1-5.1,6.7c-1.3,1.5-4.6,3.1-6.6,4
					c-2.2,1-4.3,1.1-9.3,1.1l-5.3,0.1c-22.4,0.7-25.2-17.5-25.6-21.5l-0.3-14.8c0-0.3,0.3-22.5,0.3-23.1c1.1-14.8,4.6-24.7,9.8-28
					c4-2.5,10.5-1.8,19.8,2c11.4,4.8,19.2,17.2,19.3,17.3c2,3.3,6,4.8,9.7,3.8c3.7-1,6.3-4.4,6.3-8.3v-37.3c0-4.8-3.9-8.6-8.6-8.6
					c-4.8,0-8.6,3.8-8.6,8.6c0,0,0,0,0,0v15.3c-3.3-2.6-7.1-5-11.4-6.7c-5.4-2.3-22-9.1-35.5-0.8c-10.6,6.5-16.5,20.1-18,41.6
					c0,0.2,0,0.3,0,0.5l-0.3,23.9l0.3,15.2c0,0.1,0,0.2,0,0.4c0.9,13.5,11.1,38.7,43.3,37.7l4.8-0.1c5.8-0.1,10.8-0.1,16.6-2.8
					c4.1-1.9,8.7-4.3,12.2-8.2c2.5-2.8,4.9-5.7,7.1-9.5c3.3-5.8,4.8-15.8,5.1-17.8c0-0.3,0.3-10.1,0.3-10.2l-0.3-4.9
					C240.5,334.9,236.6,331.1,231.9,331.2L231.9,331.2z"/>
			</g>
		</g>
	</g>
</g>
</svg>
